AbhayaLibre-ExtraBold.ufo
<glyph name="si_GhR.halant" format="1">
  <advance width="677"/>
  <unicode hex="0000"/>
  <outline>
    <contour>
      <point x="63" y="-44" type="curve"/>
      <point x="93" y="-44" type="line"/>
      <point x="129" y="-87"/>
      <point x="198" y="-116"/>
      <point x="311" y="-116" type="curve" smooth="yes"/>
      <point x="462" y="-116"/>
      <point x="597" y="-31"/>
      <point x="597" y="63" type="curve" smooth="yes"/>
      <point x="597" y="78"/>
      <point x="594" y="91"/>
      <point x="588" y="102" type="curve"/>
      <point x="600" y="133" type="line"/>
      <point x="618" y="106"/>
      <point x="628" y="75"/>
      <point x="628" y="38" type="curve" smooth="yes"/>
      <point x="628" y="-124"/>
      <point x="485" y="-219"/>
      <point x="333" y="-219" type="curve" smooth="yes"/>
      <point x="193" y="-219"/>
      <point x="101" y="-153"/>
    </contour>
    <component base="si_Gh.halant"/>
  </outline>
</glyph>
<glyph name="si_GhR.halant" format="1">
  <advance width="677"/>
  <unicode hex="0000"/>
  <outline>
    <contour>
      <point x="63.25" y="-44" type="curve"/>
      <point x="92.75" y="-44" type="line"/>
      <point x="128.832" y="-87.3613"/>
      <point x="197.552" y="-115.5"/>
      <point x="310.75" y="-115.5" type="curve" smooth="yes"/>
      <point x="462.314" y="-115.5"/>
      <point x="597.25" y="-31.0107"/>
      <point x="597.25" y="63.25" type="curve" smooth="yes"/>
      <point x="597.25" y="78.2842"/>
      <point x="594.5" y="90.793"/>
      <point x="587.5" y="102" type="curve"/>
      <point x="600.5" y="133" type="line"/>
      <point x="618.5" y="106.333"/>
      <point x="627.5" y="74.667"/>
      <point x="627.5" y="38" type="curve" smooth="yes"/>
      <point x="627.5" y="-123.729"/>
      <point x="484.8" y="-219"/>
      <point x="333.25" y="-219" type="curve" smooth="yes"/>
      <point x="193.406" y="-219"/>
      <point x="100.583" y="-153.333"/>
    </contour>
    <component base="si_Gh.halant"/>
  </outline>
</glyph>
<glyph name="quotedbl" format="1">
  <advance width="308"/>
  <unicode hex="0022"/>
  <outline>
    <contour>
      <point x="82" y="660" type="curve" smooth="yes"/>
      <point x="51" y="660"/>
      <point x="25" y="646"/>
      <point x="25" y="615" type="curve" smooth="yes"/>
      <point x="25" y="572"/>
      <point x="54" y="518"/>
      <point x="66" y="431" type="curve"/>
      <point x="96" y="431" type="line"/>
      <point x="108" y="518"/>
      <point x="137" y="575"/>
      <point x="137" y="617" type="curve" smooth="yes"/>
      <point x="137" y="647"/>
      <point x="112" y="660"/>
    </contour>
    <contour>
      <point x="228" y="660" type="curve" smooth="yes"/>
      <point x="197" y="660"/>
      <point x="171" y="646"/>
      <point x="171" y="615" type="curve" smooth="yes"/>
      <point x="171" y="572"/>
      <point x="200" y="518"/>
      <point x="212" y="431" type="curve"/>
      <point x="242" y="431" type="line"/>
      <point x="254" y="518"/>
      <point x="283" y="575"/>
      <point x="283" y="617" type="curve" smooth="yes"/>
      <point x="283" y="647"/>
      <point x="258" y="660"/>
    </contour>
  </outline>
</glyph>
<glyph name="percent" format="1">
  <advance width="838"/>
  <unicode hex="0025"/>
  <outline>
    <contour>
      <point x="220" y="626" type="curve" smooth="yes"/>
      <point x="119" y="626"/>
      <point x="42" y="557"/>
      <point x="42" y="452" type="curve" smooth="yes"/>
      <point x="42" y="344"/>
      <point x="117" y="276"/>
      <point x="217" y="276" type="curve" smooth="yes"/>
      <point x="318" y="276"/>
      <point x="394" y="344"/>
      <point x="394" y="450" type="curve" smooth="yes"/>
      <point x="394" y="560"/>
      <point x="320" y="626"/>
    </contour>
    <contour>
      <point x="219" y="297" type="curve" smooth="yes"/>
      <point x="171" y="297"/>
      <point x="155" y="340"/>
      <point x="155" y="450" type="curve" smooth="yes"/>
      <point x="155" y="559"/>
      <point x="171" y="605"/>
      <point x="219" y="605" type="curve" smooth="yes"/>
      <point x="265" y="605"/>
      <point x="281" y="560"/>
      <point x="281" y="453" type="curve" smooth="yes"/>
      <point x="281" y="345"/>
      <point x="267" y="297"/>
    </contour>
    <contour>
      <point x="209" y="-33" type="line"/>
      <point x="638" y="610" type="line"/>
      <point x="601" y="633" type="line"/>
      <point x="171" y="-10" type="line"/>
    </contour>
    <contour>
      <point x="619" y="340" type="curve" smooth="yes"/>
      <point x="518" y="340"/>
      <point x="441" y="271"/>
      <point x="441" y="166" type="curve" smooth="yes"/>
      <point x="441" y="58"/>
      <point x="516" y="-10"/>
      <point x="616" y="-10" type="curve" smooth="yes"/>
      <point x="717" y="-10"/>
      <point x="793" y="58"/>
      <point x="793" y="164" type="curve" smooth="yes"/>
      <point x="793" y="274"/>
      <point x="719" y="340"/>
    </contour>
    <contour>
      <point x="618" y="11" type="curve" smooth="yes"/>
      <point x="570" y="11"/>
      <point x="554" y="54"/>
      <point x="554" y="164" type="curve" smooth="yes"/>
      <point x="554" y="273"/>
      <point x="570" y="319"/>
      <point x="618" y="319" type="curve" smooth="yes"/>
      <point x="664" y="319"/>
      <point x="680" y="274"/>
      <point x="680" y="167" type="curve" smooth="yes"/>
      <point x="680" y="59"/>
      <point x="666" y="11"/>
    </contour>
  </outline>
</glyph>
<glyph name="quotesingle" format="1">
  <advance width="168"/>
  <unicode hex="0027"/>
  <outline>
    <contour>
      <point x="85" y="660" type="curve" smooth="yes"/>
      <point x="54" y="660"/>
      <point x="25" y="646"/>
      <point x="25" y="615" type="curve" smooth="yes"/>
      <point x="25" y="572"/>
      <point x="57" y="518"/>
      <point x="69" y="431" type="curve"/>
      <point x="99" y="431" type="line"/>
      <point x="111" y="518"/>
      <point x="143" y="575"/>
      <point x="143" y="617" type="curve" smooth="yes"/>
      <point x="143" y="647"/>
      <point x="115" y="660"/>
    </contour>
  </outline>
</glyph>
<glyph name="comma" format="1">
  <advance width="187"/>
  <unicode hex="002C"/>
  <outline>
    <contour>
      <point x="167" y="53" type="curve" smooth="yes"/>
      <point x="167" y="100"/>
      <point x="142" y="136"/>
      <point x="93" y="136" type="curve" smooth="yes"/>
      <point x="55" y="136"/>
      <point x="25" y="104"/>
      <point x="25" y="65" type="curve" smooth="yes"/>
      <point x="25" y="27"/>
      <point x="53" y="2"/>
      <point x="82" y="-4" type="curve" smooth="yes"/>
      <point x="101" y="-8"/>
      <point x="108" y="-15"/>
      <point x="108" y="-29" type="curve" smooth="yes"/>
      <point x="108" y="-46"/>
      <point x="93" y="-76"/>
      <point x="69" y="-101" type="curve"/>
      <point x="90" y="-117" type="line"/>
      <point x="134" y="-70"/>
      <point x="167" y="-3"/>
    </contour>
  </outline>
</glyph>
<glyph name="hyphen" format="1">
  <advance width="350"/>
  <unicode hex="002D"/>
  <outline>
    <contour>
      <point x="25" y="195" type="line"/>
      <point x="325" y="195" type="line"/>
      <point x="325" y="240" type="line"/>
      <point x="25" y="240" type="line"/>
    </contour>
  </outline>
</glyph>
<glyph name="short_dash1" format="1">
  <advance width="297"/>
  <unicode hex="002D"/>
  <outline>
    <contour>
      <point x="43" y="226" type="line"/>
      <point x="245" y="226" type="line"/>
      <point x="245" y="187" type="line"/>
      <point x="43" y="187" type="line"/>
    </contour>
  </outline>
</glyph>
<glyph name="dot" format="1">
  <advance width="178"/>
  <unicode hex="002E"/>
  <outline>
    <contour>
      <point x="89" y="108" type="curve" smooth="yes"/>
      <point x="116" y="108"/>
      <point x="148" y="91"/>
      <point x="148" y="50" type="curve" smooth="yes"/>
      <point x="148" y="25"/>
      <point x="132" y="-8"/>
      <point x="89" y="-8" type="curve" smooth="yes"/>
      <point x="62" y="-8"/>
      <point x="30" y="9"/>
      <point x="30" y="50" type="curve" smooth="yes"/>
      <point x="30" y="63"/>
      <point x="33" y="74"/>
      <point x="40" y="84" type="curve" smooth="yes"/>
      <point x="51" y="100"/>
      <point x="68" y="108"/>
    </contour>
  </outline>
</glyph>
<glyph name="slash" format="1">
  <advance width="436"/>
  <unicode hex="002F"/>
  <outline>
    <contour>
      <point x="85" y="-155" type="line"/>
      <point x="426" y="710" type="line"/>
      <point x="341" y="710" type="line"/>
      <point x="0" y="-155" type="line"/>
    </contour>
  </outline>
</glyph>
<glyph name="one" format="1">
  <advance width="442"/>
  <unicode hex="0031"/>
  <outline>
    <contour>
      <point x="233" y="540" type="line"/>
      <point x="20" y="405" type="line"/>
      <point x="38" y="377" type="line"/>
      <point x="182" y="464" type="line"/>
      <point x="182" y="35" type="line"/>
      <point x="55" y="26" type="line"/>
      <point x="55" y="0" type="line"/>
      <point x="427" y="0" type="line"/>
      <point x="427" y="19"/>
      <point x="416" y="24"/>
      <point x="396" y="26" type="curve" smooth="yes"/>
      <point x="316" y="35" type="line"/>
      <point x="316" y="540" type="line"/>
    </contour>
  </outline>
</glyph>
<glyph name="two" format="1">
  <advance width="493"/>
  <unicode hex="0032"/>
  <outline>
    <contour>
      <point x="93" y="100" type="line"/>
      <point x="93" y="207"/>
      <point x="429" y="225"/>
      <point x="429" y="403" type="curve" smooth="yes"/>
      <point x="429" y="512"/>
      <point x="323" y="550"/>
      <point x="223" y="550" type="curve" smooth="yes"/>
      <point x="127" y="550"/>
      <point x="33" y="512"/>
      <point x="33" y="425" type="curve" smooth="yes"/>
      <point x="33" y="385"/>
      <point x="55" y="356"/>
      <point x="92" y="356" type="curve" smooth="yes"/>
      <point x="212" y="356"/>
      <point x="104" y="523"/>
      <point x="215" y="523" type="curve" smooth="yes"/>
      <point x="268" y="523"/>
      <point x="294" y="476"/>
      <point x="294" y="412" type="curve" smooth="yes"/>
      <point x="294" y="169"/>
      <point x="30" y="246"/>
      <point x="30" y="29" type="curve"/>
    </contour>
    <contour>
      <point x="437" y="0" type="line"/>
      <point x="437" y="100" type="line"/>
      <point x="93" y="100" type="line"/>
      <point x="30" y="29" type="line"/>
      <point x="30" y="0" type="line"/>
    </contour>
    <contour>
      <point x="438" y="188" type="line"/>
      <point x="415" y="188" type="line"/>
      <point x="397" y="144" type="line" smooth="yes"/>
      <point x="380" y="102"/>
      <point x="362" y="100"/>
      <point x="323" y="100" type="curve"/>
      <point x="437" y="0" type="line"/>
    </contour>
  </outline>
</glyph>
<glyph name="three" format="1">
  <advance width="539"/>
  <unicode hex="0033"/>
  <outline>
    <contour>
      <point x="501" y="123" type="curve" smooth="yes"/>
      <point x="501" y="206"/>
      <point x="439" y="276"/>
      <point x="307" y="276" type="curve" smooth="yes"/>
      <point x="264" y="276"/>
      <point x="219" y="267"/>
      <point x="178" y="250" type="curve"/>
      <point x="204" y="229" type="line"/>
      <point x="228" y="239"/>
      <point x="252" y="243"/>
      <point x="271" y="243" type="curve" smooth="yes"/>
      <point x="344" y="243"/>
      <point x="370" y="181"/>
      <point x="370" y="109" type="curve" smooth="yes"/>
      <point x="370" y="18"/>
      <point x="337" y="-53"/>
      <point x="234" y="-53" type="curve" smooth="yes"/>
      <point x="106" y="-53"/>
      <point x="215" y="112"/>
      <point x="103" y="112" type="curve" smooth="yes"/>
      <point x="60" y="112"/>
      <point x="39" y="84"/>
      <point x="39" y="48" type="curve" smooth="yes"/>
      <point x="39" y="-39"/>
      <point x="134" y="-80"/>
      <point x="244" y="-80" type="curve" smooth="yes"/>
      <point x="409" y="-80"/>
      <point x="501" y="16"/>
    </contour>
    <contour>
      <point x="94" y="357" type="line"/>
      <point x="112" y="403" type="line" smooth="yes"/>
      <point x="129" y="446"/>
      <point x="149" y="448"/>
      <point x="190" y="448" type="curve"/>
      <point x="71" y="540" type="line"/>
      <point x="69" y="357" type="line"/>
    </contour>
    <contour>
      <point x="474" y="513" type="line"/>
      <point x="351" y="448" type="line"/>
      <point x="178" y="250" type="line"/>
      <point x="204" y="229" type="line"/>
    </contour>
    <contour>
      <point x="351" y="448" type="line"/>
      <point x="474" y="513" type="line"/>
      <point x="474" y="540" type="line"/>
      <point x="71" y="540" type="line"/>
      <point x="71" y="448" type="line"/>
    </contour>
  </outline>
</glyph>
<glyph name="six" format="1">
  <advance width="552"/>
  <unicode hex="0036"/>
  <outline>
    <contour>
      <point x="517" y="190" type="curve" smooth="yes"/>
      <point x="517" y="285"/>
      <point x="452" y="373"/>
      <point x="315" y="373" type="curve" smooth="yes"/>
      <point x="253" y="373"/>
      <point x="187" y="348"/>
      <point x="141" y="301" type="curve"/>
      <point x="180" y="300" type="line"/>
      <point x="180" y="465"/>
      <point x="207" y="593"/>
      <point x="304" y="593" type="curve" smooth="yes"/>
      <point x="429" y="593"/>
      <point x="322" y="447"/>
      <point x="442" y="447" type="curve" smooth="yes"/>
      <point x="482" y="447"/>
      <point x="506" y="474"/>
      <point x="506" y="513" type="curve" smooth="yes"/>
      <point x="506" y="568"/>
      <point x="435" y="620"/>
      <point x="315" y="620" type="curve" smooth="yes"/>
      <point x="128" y="620"/>
      <point x="45" y="467"/>
      <point x="45" y="301" type="curve" smooth="yes"/>
      <point x="45" y="77"/>
      <point x="158" y="-10"/>
      <point x="279" y="-10" type="curve" smooth="yes"/>
      <point x="439" y="-10"/>
      <point x="517" y="92"/>
    </contour>
    <contour>
      <point x="182" y="173" type="curve" smooth="yes"/>
      <point x="182" y="292"/>
      <point x="221" y="340"/>
      <point x="289" y="340" type="curve" smooth="yes"/>
      <point x="354" y="340"/>
      <point x="387" y="298"/>
      <point x="387" y="184" type="curve" smooth="yes"/>
      <point x="387" y="63"/>
      <point x="350" y="17"/>
      <point x="283" y="17" type="curve" smooth="yes"/>
      <point x="217" y="17"/>
      <point x="182" y="61"/>
    </contour>
  </outline>
</glyph>
<glyph name="seven" format="1">
  <advance width="485"/>
  <unicode hex="0037"/>
  <outline>
    <contour>
      <point x="480" y="510" type="curve"/>
      <point x="448" y="518" type="line"/>
      <point x="248" y="224"/>
      <point x="105" y="86"/>
      <point x="105" y="-15" type="curve" smooth="yes"/>
      <point x="105" y="-58"/>
      <point x="138" y="-80"/>
      <point x="178" y="-80" type="curve" smooth="yes"/>
      <point x="310" y="-80"/>
      <point x="195" y="106"/>
    </contour>
    <contour>
      <point x="65" y="359" type="line"/>
      <point x="83" y="405" type="line" smooth="yes"/>
      <point x="99" y="446"/>
      <point x="120" y="448"/>
      <point x="161" y="448" type="curve"/>
      <point x="42" y="540" type="line"/>
      <point x="40" y="359" type="line"/>
    </contour>
    <contour>
      <point x="410" y="448" type="line"/>
      <point x="480" y="510" type="line"/>
      <point x="480" y="540" type="line"/>
      <point x="42" y="540" type="line"/>
      <point x="42" y="448" type="line"/>
    </contour>
  </outline>
</glyph>
<glyph name="eight" format="1">
  <advance width="545"/>
  <unicode hex="0038"/>
  <outline>
    <contour>
      <point x="86" y="150" type="curve" smooth="yes"/>
      <point x="86" y="65"/>
      <point x="169" y="20"/>
      <point x="241" y="20" type="curve" smooth="yes"/>
      <point x="316" y="20"/>
      <point x="378" y="55"/>
      <point x="378" y="123" type="curve" smooth="yes"/>
      <point x="378" y="269"/>
      <point x="63" y="290"/>
      <point x="63" y="460" type="curve" smooth="yes"/>
      <point x="63" y="568"/>
      <point x="164" y="620"/>
      <point x="263" y="620" type="curve" smooth="yes"/>
      <point x="372" y="620"/>
      <point x="450" y="570"/>
      <point x="450" y="475" type="curve" smooth="yes"/>
      <point x="450" y="411"/>
      <point x="397" y="344"/>
      <point x="304" y="311" type="curve"/>
      <point x="267" y="328" type="line"/>
      <point x="360" y="350"/>
      <point x="414" y="416"/>
      <point x="414" y="476" type="curve" smooth="yes"/>
      <point x="414" y="552"/>
      <point x="351" y="590"/>
      <point x="282" y="590" type="curve" smooth="yes"/>
      <point x="224" y="590"/>
      <point x="173" y="563"/>
      <point x="173" y="502" type="curve" smooth="yes"/>
      <point x="173" y="356"/>
      <point x="490" y="342"/>
      <point x="490" y="166" type="curve" smooth="yes"/>
      <point x="490" y="51"/>
      <point x="374" y="-10"/>
      <point x="257" y="-10" type="curve" smooth="yes"/>
      <point x="120" y="-10"/>
      <point x="50" y="69"/>
      <point x="50" y="147" type="curve" smooth="yes"/>
      <point x="50" y="216"/>
      <point x="97" y="281"/>
      <point x="195" y="311" type="curve"/>
      <point x="242" y="292" type="line"/>
      <point x="129" y="276"/>
      <point x="86" y="209"/>
    </contour>
  </outline>
</glyph>
<glyph name="nine" format="1">
  <advance width="552"/>
  <unicode hex="0039"/>
  <outline>
    <contour>
      <point x="507" y="259" type="curve" smooth="yes"/>
      <point x="507" y="448"/>
      <point x="409" y="550"/>
      <point x="264" y="550" type="curve" smooth="yes"/>
      <point x="118" y="550"/>
      <point x="35" y="471"/>
      <point x="35" y="357" type="curve" smooth="yes"/>
      <point x="35" y="247"/>
      <point x="114" y="179"/>
      <point x="250" y="179" type="curve" smooth="yes"/>
      <point x="314" y="179"/>
      <point x="372" y="202"/>
      <point x="415" y="251" type="curve"/>
      <point x="372" y="252" type="line"/>
      <point x="372" y="87"/>
      <point x="361" y="-53"/>
      <point x="250" y="-53" type="curve" smooth="yes"/>
      <point x="123" y="-53"/>
      <point x="223" y="104"/>
      <point x="110" y="104" type="curve" smooth="yes"/>
      <point x="66" y="104"/>
      <point x="43" y="74"/>
      <point x="43" y="42" type="curve" smooth="yes"/>
      <point x="43" y="-27"/>
      <point x="135" y="-80"/>
      <point x="237" y="-80" type="curve" smooth="yes"/>
      <point x="364" y="-80"/>
      <point x="507" y="4"/>
    </contour>
    <contour>
      <point x="165" y="374" type="curve" smooth="yes"/>
      <point x="165" y="478"/>
      <point x="201" y="523"/>
      <point x="267" y="523" type="curve" smooth="yes"/>
      <point x="334" y="523"/>
      <point x="372" y="475"/>
      <point x="372" y="363" type="curve" smooth="yes"/>
      <point x="372" y="259"/>
      <point x="332" y="212"/>
      <point x="266" y="212" type="curve" smooth="yes"/>
      <point x="198" y="212"/>
      <point x="165" y="262"/>
    </contour>
  </outline>
</glyph>
<glyph name="semicolon" format="1">
  <advance width="187"/>
  <unicode hex="003B"/>
  <outline>
    <contour>
      <point x="166" y="302" type="curve" smooth="yes"/>
      <point x="166" y="341"/>
      <point x="134" y="373"/>
      <point x="95" y="373" type="curve" smooth="yes"/>
      <point x="56" y="373"/>
      <point x="25" y="341"/>
      <point x="25" y="302" type="curve" smooth="yes"/>
      <point x="25" y="262"/>
      <point x="56" y="232"/>
      <point x="95" y="232" type="curve" smooth="yes"/>
      <point x="134" y="232"/>
      <point x="166" y="262"/>
    </contour>
    <contour>
      <point x="167" y="66" type="curve" smooth="yes"/>
      <point x="167" y="113"/>
      <point x="142" y="149"/>
      <point x="93" y="149" type="curve" smooth="yes"/>
      <point x="55" y="149"/>
      <point x="25" y="117"/>
      <point x="25" y="78" type="curve" smooth="yes"/>
      <point x="25" y="40"/>
      <point x="53" y="15"/>
      <point x="82" y="9" type="curve" smooth="yes"/>
      <point x="101" y="5"/>
      <point x="108" y="-2"/>
      <point x="108" y="-16" type="curve" smooth="yes"/>
      <point x="108" y="-33"/>
      <point x="93" y="-63"/>
      <point x="69" y="-88" type="curve"/>
      <point x="90" y="-104" type="line"/>
      <point x="134" y="-57"/>
      <point x="167" y="10"/>
    </contour>
  </outline>
</glyph>
<glyph name="equal" format="1">
  <advance width="448"/>
  <unicode hex="003D"/>
  <outline>
    <contour>
      <point x="418" y="268" type="line"/>
      <point x="418" y="310" type="line"/>
      <point x="30" y="310" type="line"/>
      <point x="30" y="268" type="line"/>
    </contour>
    <contour>
      <point x="418" y="158" type="line"/>
      <point x="418" y="200" type="line"/>
      <point x="30" y="200" type="line"/>
      <point x="30" y="158" type="line"/>
    </contour>
  </outline>
</glyph>
<glyph name="greater" format="1">
  <advance width="442"/>
  <unicode hex="003E"/>
  <outline>
    <contour>
      <point x="49" y="405" type="line"/>
      <point x="30" y="362" type="line"/>
      <point x="368" y="220" type="line"/>
      <point x="368" y="248" type="line"/>
      <point x="30" y="105" type="line"/>
      <point x="46" y="65" type="line"/>
      <point x="412" y="218" type="line"/>
      <point x="412" y="252" type="line"/>
    </contour>
  </outline>
</glyph>
<glyph name="at" format="1">
  <advance width="898"/>
  <unicode hex="0040"/>
  <outline>
    <contour>
      <point x="685" y="-118" type="curve"/>
      <point x="673" y="-92" type="line"/>
      <point x="613" y="-121"/>
      <point x="553" y="-134"/>
      <point x="496" y="-134" type="curve" smooth="yes"/>
      <point x="317" y="-134"/>
      <point x="170" y="1"/>
      <point x="170" y="217" type="curve" smooth="yes"/>
      <point x="170" y="444"/>
      <point x="291" y="554"/>
      <point x="454" y="554" type="curve" smooth="yes"/>
      <point x="620" y="554"/>
      <point x="748" y="439"/>
      <point x="748" y="212" type="curve" smooth="yes"/>
      <point x="748" y="115"/>
      <point x="717" y="35"/>
      <point x="668" y="35" type="curve" smooth="yes"/>
      <point x="643" y="35"/>
      <point x="633" y="58"/>
      <point x="633" y="88" type="curve" smooth="yes"/>
      <point x="633" y="275" type="line" smooth="yes"/>
      <point x="633" y="375"/>
      <point x="567" y="424"/>
      <point x="465" y="424" type="curve" smooth="yes"/>
      <point x="357" y="424"/>
      <point x="301" y="389"/>
      <point x="301" y="342" type="curve" smooth="yes"/>
      <point x="301" y="313"/>
      <point x="323" y="294"/>
      <point x="352" y="294" type="curve" smooth="yes"/>
      <point x="435" y="294"/>
      <point x="387" y="400"/>
      <point x="458" y="400" type="curve" smooth="yes"/>
      <point x="500" y="400"/>
      <point x="509" y="369"/>
      <point x="509" y="303" type="curve" smooth="yes"/>
      <point x="509" y="131" type="line"/>
      <point x="494" y="78"/>
      <point x="470" y="56"/>
      <point x="444" y="56" type="curve" smooth="yes"/>
      <point x="418" y="56"/>
      <point x="402" y="75"/>
      <point x="402" y="131" type="curve" smooth="yes"/>
      <point x="402" y="192"/>
      <point x="432" y="219"/>
      <point x="527" y="219" type="curve"/>
      <point x="527" y="245" type="line"/>
      <point x="358" y="245"/>
      <point x="274" y="203"/>
      <point x="274" y="121" type="curve" smooth="yes"/>
      <point x="274" y="47"/>
      <point x="323" y="11"/>
      <point x="397" y="11" type="curve" smooth="yes"/>
      <point x="455" y="11"/>
      <point x="502" y="41"/>
      <point x="519" y="98" type="curve"/>
      <point x="516" y="98" type="line"/>
      <point x="524" y="41"/>
      <point x="557" y="10"/>
      <point x="652" y="10" type="curve" smooth="yes"/>
      <point x="783" y="10"/>
      <point x="848" y="116"/>
      <point x="848" y="237" type="curve" smooth="yes"/>
      <point x="848" y="468"/>
      <point x="676" y="584"/>
      <point x="461" y="584" type="curve" smooth="yes"/>
      <point x="235" y="584"/>
      <point x="45" y="456"/>
      <point x="45" y="192" type="curve" smooth="yes"/>
      <point x="45" y="-34"/>
      <point x="243" y="-171"/>
      <point x="459" y="-171" type="curve" smooth="yes"/>
      <point x="535" y="-171"/>
      <point x="613" y="-154"/>
    </contour>
  </outline>
</glyph>
<glyph name="A" format="1">
  <advance width="647"/>
  <unicode hex="0041"/>
  <outline>
    <contour>
      <point x="647" y="0" type="line"/>
      <point x="647" y="23"/>
      <point x="642" y="27"/>
      <point x="623" y="27" type="curve" smooth="yes"/>
      <point x="379" y="27" type="line"/>
      <point x="379" y="0" type="line"/>
    </contour>
    <contour>
      <point x="440" y="219" type="line"/>
      <point x="430" y="249" type="line"/>
      <point x="160" y="249" type="line"/>
      <point x="150" y="219" type="line"/>
    </contour>
    <contour>
      <point x="604" y="0" type="line"/>
      <point x="357" y="600" type="line"/>
      <point x="283" y="600" type="line"/>
      <point x="64" y="27" type="line"/>
      <point x="0" y="27" type="line"/>
      <point x="0" y="0" type="line"/>
      <point x="184" y="0" type="line"/>
      <point x="184" y="23"/>
      <point x="179" y="27"/>
      <point x="160" y="27" type="curve" smooth="yes"/>
      <point x="104" y="27" type="line"/>
      <point x="281" y="497" type="line"/>
      <point x="267" y="497" type="line"/>
      <point x="460" y="0" type="line"/>
    </contour>
    <contour>
      <point x="626" y="9" type="move" name="ogonek"/>
    </contour>
    <contour>
      <point x="321" y="630" type="move" name="top"/>
    </contour>
  </outline>
</glyph>
<glyph name="B" format="1">
  <advance width="615"/>
  <unicode hex="0042"/>
  <outline>
    <contour>
      <point x="545" y="465" type="curve" smooth="yes"/>
      <point x="545" y="545"/>
      <point x="481" y="600"/>
      <point x="344" y="600" type="curve" smooth="yes"/>
      <point x="20" y="600" type="line"/>
      <point x="20" y="573" type="line"/>
      <point x="288" y="573" type="line" smooth="yes"/>
      <point x="370" y="573"/>
      <point x="400" y="527"/>
      <point x="400" y="457" type="curve" smooth="yes"/>
      <point x="400" y="392"/>
      <point x="371" y="339"/>
      <point x="296" y="339" type="curve" smooth="yes"/>
      <point x="150" y="339" type="line"/>
      <point x="150" y="311" type="line"/>
      <point x="322" y="311" type="line" smooth="yes"/>
      <point x="401" y="311"/>
      <point x="437" y="250"/>
      <point x="437" y="180" type="curve" smooth="yes"/>
      <point x="437" y="100"/>
      <point x="407" y="27"/>
      <point x="307" y="27" type="curve" smooth="yes"/>
      <point x="20" y="27" type="line"/>
      <point x="20" y="0" type="line"/>
      <point x="362" y="0" type="line" smooth="yes"/>
      <point x="513" y="0"/>
      <point x="590" y="83"/>
      <point x="590" y="173" type="curve" smooth="yes"/>
      <point x="590" y="256"/>
      <point x="535" y="312"/>
      <point x="423" y="325" type="curve"/>
      <point x="504" y="351"/>
      <point x="545" y="408"/>
    </contour>
    <component base="vertical_stem_upper" xOffset="58"/>
  </outline>
</glyph>
<glyph name="E" format="1">
  <advance width="569"/>
  <unicode hex="0045"/>
  <outline>
    <contour>
      <point x="510" y="9" type="move" name="ogonek"/>
    </contour>
    <contour>
      <point x="276" y="0" type="move" name="bottom"/>
    </contour>
    <contour>
      <point x="298" y="630" type="move" name="top"/>
    </contour>
    <contour>
      <point x="524" y="408" type="line"/>
      <point x="520" y="600" type="line"/>
      <point x="20" y="600" type="line"/>
      <point x="20" y="573" type="line"/>
      <point x="353" y="573" type="line" smooth="yes"/>
      <point x="430" y="573"/>
      <point x="457" y="526"/>
      <point x="473" y="477" type="curve" smooth="yes"/>
      <point x="495" y="408" type="line"/>
    </contour>
    <contour>
      <point x="520" y="0" type="line"/>
      <point x="524" y="192" type="line"/>
      <point x="495" y="192" type="line"/>
      <point x="472" y="123" type="line" smooth="yes"/>
      <point x="456" y="76"/>
      <point x="429" y="27"/>
      <point x="353" y="27" type="curve" smooth="yes"/>
      <point x="20" y="27" type="line"/>
      <point x="20" y="0" type="line"/>
    </contour>
    <contour>
      <point x="432" y="294" type="line"/>
      <point x="432" y="324" type="line"/>
      <point x="162" y="324" type="line"/>
      <point x="162" y="294" type="line"/>
    </contour>
    <component base="vertical_stem_upper" xOffset="58"/>
  </outline>
</glyph>
<glyph name="F" format="1">
  <advance width="529"/>
  <unicode hex="0046"/>
  <outline>
    <contour>
      <point x="524" y="403" type="line"/>
      <point x="520" y="600" type="line"/>
      <point x="20" y="600" type="line"/>
      <point x="20" y="573" type="line"/>
      <point x="353" y="573" type="line" smooth="yes"/>
      <point x="429" y="573"/>
      <point x="458" y="526"/>
      <point x="473" y="477" type="curve" smooth="yes"/>
      <point x="495" y="403" type="line"/>
    </contour>
    <contour>
      <point x="358" y="0" type="line"/>
      <point x="358" y="27" type="line"/>
      <point x="20" y="27" type="line"/>
      <point x="20" y="0" type="line"/>
    </contour>
    <contour>
      <point x="432" y="294" type="line"/>
      <point x="432" y="324" type="line"/>
      <point x="162" y="324" type="line"/>
      <point x="162" y="294" type="line"/>
    </contour>
    <component base="vertical_stem_upper" xOffset="58"/>
  </outline>
</glyph>
<glyph name="G" format="1">
  <advance width="695"/>
  <unicode hex="0047"/>
  <outline>
    <contour>
      <point x="357" y="630" type="move" name="top"/>
    </contour>
    <contour>
      <point x="349" y="0" type="move" name="bottom"/>
    </contour>
    <contour>
      <point x="387" y="276" type="line"/>
      <point x="387" y="249" type="line"/>
      <point x="472" y="249" type="line"/>
      <point x="472" y="42" type="line"/>
      <point x="483" y="68" type="line"/>
      <point x="452" y="37"/>
      <point x="405" y="22"/>
      <point x="363" y="22" type="curve" smooth="yes"/>
      <point x="249" y="22"/>
      <point x="190" y="99"/>
      <point x="190" y="298" type="curve" smooth="yes"/>
      <point x="190" y="499"/>
      <point x="256" y="579"/>
      <point x="371" y="579" type="curve" smooth="yes"/>
      <point x="465" y="579"/>
      <point x="527" y="518"/>
      <point x="552" y="388" type="curve"/>
      <point x="583" y="388" type="line"/>
      <point x="579" y="600" type="line"/>
      <point x="485" y="581" type="line"/>
      <point x="440" y="600"/>
      <point x="390" y="610"/>
      <point x="340" y="610" type="curve" smooth="yes"/>
      <point x="188" y="610"/>
      <point x="35" y="518"/>
      <point x="35" y="302" type="curve" smooth="yes"/>
      <point x="35" y="83"/>
      <point x="191" y="-9"/>
      <point x="343" y="-9" type="curve" smooth="yes"/>
      <point x="394" y="-9"/>
      <point x="445" y="1"/>
      <point x="489" y="21" type="curve"/>
      <point x="610" y="0" type="line"/>
      <point x="610" y="249" type="line"/>
      <point x="675" y="249" type="line"/>
      <point x="675" y="276" type="line"/>
    </contour>
  </outline>
</glyph>
<glyph name="H" format="1">
  <advance width="734"/>
  <unicode hex="0048"/>
  <outline>
    <contour>
      <point x="557" y="294" type="line"/>
      <point x="557" y="324" type="line"/>
      <point x="167" y="324" type="line"/>
      <point x="167" y="294" type="line"/>
    </contour>
    <contour>
      <point x="320" y="0" type="line"/>
      <point x="320" y="20"/>
      <point x="313" y="27"/>
      <point x="293" y="27" type="curve" smooth="yes"/>
      <point x="20" y="27" type="line"/>
      <point x="20" y="0" type="line"/>
    </contour>
    <contour>
      <point x="714" y="0" type="line"/>
      <point x="714" y="20"/>
      <point x="707" y="27"/>
      <point x="687" y="27" type="curve" smooth="yes"/>
      <point x="414" y="27" type="line"/>
      <point x="414" y="0" type="line"/>
    </contour>
    <contour>
      <point x="320" y="573" type="line"/>
      <point x="320" y="600" type="line"/>
      <point x="20" y="600" type="line"/>
      <point x="20" y="573" type="line"/>
    </contour>
    <contour>
      <point x="714" y="573" type="line"/>
      <point x="714" y="600" type="line"/>
      <point x="414" y="600" type="line"/>
      <point x="414" y="573" type="line"/>
    </contour>
    <component base="vertical_stem_upper" xOffset="58"/>
    <component base="vertical_stem_upper" xOffset="452"/>
  </outline>
</glyph>
<glyph name="J" format="1">
  <advance width="417"/>
  <unicode hex="004A"/>
  <outline>
    <contour>
      <point x="402" y="573" type="line"/>
      <point x="402" y="600" type="line"/>
      <point x="97" y="600" type="line"/>
      <point x="97" y="573" type="line"/>
    </contour>
    <contour>
      <point x="187" y="600" type="line"/>
      <point x="187" y="193" type="line" smooth="yes"/>
      <point x="187" y="55"/>
      <point x="176" y="6"/>
      <point x="134" y="6" type="curve" smooth="yes"/>
      <point x="69" y="6"/>
      <point x="131" y="127"/>
      <point x="29" y="127" type="curve" smooth="yes"/>
      <point x="-3" y="127"/>
      <point x="-25" y="104"/>
      <point x="-25" y="72" type="curve" smooth="yes"/>
      <point x="-25" y="30"/>
      <point x="18" y="-20"/>
      <point x="123" y="-20" type="curve" smooth="yes"/>
      <point x="219" y="-20"/>
      <point x="327" y="25"/>
      <point x="327" y="199" type="curve" smooth="yes"/>
      <point x="327" y="600" type="line"/>
    </contour>
  </outline>
</glyph>
<glyph name="K" format="1">
  <advance width="654"/>
  <unicode hex="004B"/>
  <outline>
    <contour>
      <point x="331" y="630" type="move" name="top"/>
    </contour>
    <contour>
      <point x="359" y="0" type="move" name="bottom"/>
    </contour>
    <contour>
      <point x="320" y="0" type="line"/>
      <point x="320" y="20"/>
      <point x="313" y="27"/>
      <point x="293" y="27" type="curve" smooth="yes"/>
      <point x="20" y="27" type="line"/>
      <point x="20" y="0" type="line"/>
    </contour>
    <contour>
      <point x="320" y="573" type="line"/>
      <point x="320" y="600" type="line"/>
      <point x="20" y="600" type="line"/>
      <point x="20" y="573" type="line"/>
    </contour>
    <contour>
      <point x="654" y="0" type="line"/>
      <point x="654" y="20"/>
      <point x="647" y="27"/>
      <point x="627" y="27" type="curve" smooth="yes"/>
      <point x="618" y="27" type="line"/>
      <point x="369" y="396" type="line"/>
      <point x="262" y="312" type="line"/>
      <point x="463" y="-1" type="line"/>
    </contour>
    <contour>
      <point x="526" y="526" type="line" smooth="yes"/>
      <point x="562" y="559"/>
      <point x="579" y="573"/>
      <point x="604" y="573" type="curve" smooth="yes"/>
      <point x="625" y="573"/>
      <point x="631" y="579"/>
      <point x="631" y="600" type="curve"/>
      <point x="446" y="600" type="line"/>
      <point x="446" y="573" type="line"/>
      <point x="526" y="573" type="line"/>
      <point x="196" y="275" type="line"/>
      <point x="203" y="234" type="line"/>
    </contour>
    <component base="vertical_stem_upper" xOffset="58"/>
  </outline>
</glyph>
<glyph name="M" format="1">
  <advance width="803"/>
  <unicode hex="004D"/>
  <outline>
    <contour>
      <point x="793" y="600" type="line"/>
      <point x="578" y="600" type="line"/>
      <point x="386" y="138" type="line"/>
      <point x="414" y="139" type="line"/>
      <point x="189" y="600" type="line"/>
      <point x="10" y="600" type="line"/>
      <point x="10" y="573" type="line"/>
      <point x="90" y="573" type="line"/>
      <point x="90" y="27" type="line"/>
      <point x="10" y="27" type="line"/>
      <point x="10" y="0" type="line"/>
      <point x="212" y="0" type="line"/>
      <point x="212" y="20"/>
      <point x="205" y="27"/>
      <point x="185" y="27" type="curve" smooth="yes"/>
      <point x="132" y="27" type="line"/>
      <point x="132" y="431" type="line"/>
      <point x="125" y="418" type="line"/>
      <point x="345" y="-10" type="line"/>
      <point x="363" y="-10" type="line"/>
      <point x="584" y="516" type="line"/>
      <point x="578" y="528" type="line"/>
      <point x="578" y="27" type="line"/>
      <point x="498" y="27" type="line"/>
      <point x="498" y="0" type="line"/>
      <point x="793" y="0" type="line"/>
      <point x="793" y="20"/>
      <point x="786" y="27"/>
      <point x="766" y="27" type="curve" smooth="yes"/>
      <point x="713" y="27" type="line"/>
      <point x="713" y="573" type="line"/>
      <point x="793" y="573" type="line"/>
    </contour>
  </outline>
</glyph>
<glyph name="W" format="1">
  <advance width="893"/>
  <unicode hex="0057"/>
  <outline>
    <contour>
      <point x="652" y="0" type="line"/>
      <point x="843" y="573" type="line"/>
      <point x="808" y="573" type="line"/>
      <point x="652" y="100" type="line"/>
      <point x="683" y="100" type="line"/>
      <point x="512" y="574" type="line"/>
      <point x="592" y="573" type="line"/>
      <point x="592" y="600" type="line"/>
      <point x="360" y="600" type="line"/>
      <point x="562" y="77" type="line" smooth="yes"/>
      <point x="587" y="12"/>
      <point x="597" y="0"/>
      <point x="632" y="0" type="curve" smooth="yes"/>
    </contour>
    <contour>
      <point x="322" y="0" type="line"/>
      <point x="494" y="468" type="line"/>
      <point x="461" y="471" type="line"/>
      <point x="325" y="100" type="line"/>
      <point x="351" y="100" type="line"/>
      <point x="171" y="600" type="line"/>
      <point x="30" y="600" type="line"/>
      <point x="232" y="77" type="line" smooth="yes"/>
      <point x="257" y="12"/>
      <point x="267" y="0"/>
      <point x="302" y="0" type="curve" smooth="yes"/>
    </contour>
    <contour>
      <point x="261" y="573" type="line"/>
      <point x="261" y="600" type="line"/>
      <point x="-10" y="600" type="line"/>
      <point x="-10" y="573" type="line"/>
    </contour>
    <contour>
      <point x="893" y="573" type="line"/>
      <point x="893" y="600" type="line"/>
      <point x="728" y="600" type="line"/>
      <point x="728" y="573" type="line"/>
    </contour>
  </outline>
</glyph>
<glyph name="X" format="1">
  <advance width="634"/>
  <unicode hex="0058"/>
  <outline>
    <contour>
      <point x="594" y="0" type="line"/>
      <point x="195" y="600" type="line"/>
      <point x="50" y="600" type="line"/>
      <point x="443" y="0" type="line"/>
    </contour>
    <contour>
      <point x="193" y="0" type="line"/>
      <point x="193" y="27" type="line"/>
      <point x="113" y="27" type="line"/>
      <point x="308" y="302" type="line"/>
      <point x="287" y="327" type="line"/>
      <point x="93" y="55" type="line" smooth="yes"/>
      <point x="76" y="32"/>
      <point x="57" y="27"/>
      <point x="32" y="27" type="curve" smooth="yes"/>
      <point x="12" y="27"/>
      <point x="5" y="20"/>
      <point x="5" y="0" type="curve"/>
    </contour>
    <contour>
      <point x="634" y="0" type="line"/>
      <point x="634" y="20"/>
      <point x="627" y="27"/>
      <point x="607" y="27" type="curve" smooth="yes"/>
      <point x="353" y="27" type="line"/>
      <point x="353" y="0" type="line"/>
    </contour>
    <contour>
      <point x="285" y="573" type="line"/>
      <point x="285" y="600" type="line"/>
      <point x="10" y="600" type="line"/>
      <point x="10" y="573" type="line"/>
    </contour>
    <contour>
      <point x="514" y="545" type="line" smooth="yes"/>
      <point x="531" y="569"/>
      <point x="542" y="573"/>
      <point x="567" y="573" type="curve" smooth="yes"/>
      <point x="587" y="573"/>
      <point x="594" y="580"/>
      <point x="594" y="600" type="curve"/>
      <point x="417" y="600" type="line"/>
      <point x="417" y="573" type="line"/>
      <point x="497" y="573" type="line"/>
      <point x="328" y="336" type="line"/>
      <point x="345" y="308" type="line"/>
    </contour>
  </outline>
</glyph>
<glyph name="Y" format="1">
  <advance width="579"/>
  <unicode hex="0059"/>
  <outline>
    <contour>
      <point x="320" y="630" type="move" name="top"/>
    </contour>
    <contour>
      <point x="451" y="0" type="line"/>
      <point x="451" y="20"/>
      <point x="444" y="27"/>
      <point x="424" y="27" type="curve" smooth="yes"/>
      <point x="141" y="27" type="line"/>
      <point x="141" y="0" type="line"/>
    </contour>
    <contour>
      <point x="278" y="573" type="line"/>
      <point x="278" y="600" type="line"/>
      <point x="-2" y="600" type="line"/>
      <point x="-2" y="573" type="line"/>
    </contour>
    <contour>
      <point x="403" y="573" type="line"/>
      <point x="483" y="573" type="line"/>
      <point x="340" y="279" type="line"/>
      <point x="357" y="279" type="line"/>
      <point x="188" y="600" type="line"/>
      <point x="30" y="600" type="line"/>
      <point x="226" y="254" type="line"/>
      <point x="226" y="0" type="line"/>
      <point x="366" y="0" type="line"/>
      <point x="366" y="261" type="line"/>
      <point x="502" y="545" type="line" smooth="yes"/>
      <point x="514" y="569"/>
      <point x="529" y="573"/>
      <point x="552" y="573" type="curve" smooth="yes"/>
      <point x="572" y="573"/>
      <point x="579" y="580"/>
      <point x="579" y="600" type="curve"/>
      <point x="403" y="600" type="line"/>
    </contour>
  </outline>
</glyph>
<glyph name="Z" format="1">
  <advance width="552"/>
  <unicode hex="005A"/>
  <outline>
    <contour>
      <point x="311" y="630" type="move" name="top"/>
    </contour>
    <contour>
      <point x="525" y="0" type="line"/>
      <point x="527" y="207" type="line"/>
      <point x="496" y="207" type="line"/>
      <point x="467" y="111" type="line" smooth="yes"/>
      <point x="454" y="67"/>
      <point x="430" y="27"/>
      <point x="369" y="27" type="curve" smooth="yes"/>
      <point x="171" y="27" type="line"/>
      <point x="521" y="578" type="line"/>
      <point x="521" y="600" type="line"/>
      <point x="68" y="600" type="line"/>
      <point x="61" y="419" type="line"/>
      <point x="91" y="419" type="line"/>
      <point x="133" y="509" type="line" smooth="yes"/>
      <point x="152" y="549"/>
      <point x="177" y="573"/>
      <point x="214" y="573" type="curve" smooth="yes"/>
      <point x="378" y="574" type="line"/>
      <point x="20" y="22" type="line"/>
      <point x="20" y="0" type="line"/>
    </contour>
  </outline>
</glyph>
<glyph name="bracketleft" format="1">
  <advance width="376"/>
  <unicode hex="005B"/>
  <outline>
    <contour>
      <point x="351" y="-136" type="line"/>
      <point x="70" y="-136" type="line"/>
      <point x="70" y="645" type="line"/>
      <point x="351" y="645" type="line"/>
      <point x="351" y="616" type="line"/>
      <point x="197" y="616" type="line"/>
      <point x="197" y="-105" type="line"/>
      <point x="351" y="-107" type="line"/>
    </contour>
  </outline>
</glyph>
<glyph name="underscore" format="1">
  <advance width="510"/>
  <unicode hex="005F"/>
  <outline>
    <contour>
      <point x="10" y="-75" type="line"/>
      <point x="500" y="-75" type="line"/>
      <point x="500" y="-25" type="line"/>
      <point x="10" y="-25" type="line"/>
    </contour>
  </outline>
</glyph>
<glyph name="grave" format="1">
  <advance width="500"/>
  <unicode hex="0060"/>
  <outline>
    <contour>
      <point x="279" y="500" type="move" name="_top"/>
    </contour>
    <contour>
      <point x="387" y="503" type="line"/>
      <point x="307" y="572"/>
      <point x="286" y="618"/>
      <point x="252" y="643" type="curve" smooth="yes"/>
      <point x="241" y="651"/>
      <point x="231" y="654"/>
      <point x="221" y="654" type="curve" smooth="yes"/>
      <point x="190" y="654"/>
      <point x="165" y="624"/>
      <point x="165" y="594" type="curve" smooth="yes"/>
      <point x="165" y="579"/>
      <point x="171" y="563"/>
      <point x="187" y="552" type="curve" smooth="yes"/>
      <point x="219" y="529"/>
      <point x="296" y="517"/>
      <point x="372" y="481" type="curve"/>
    </contour>
  </outline>
</glyph>
<glyph name="a" format="1">
  <advance width="493"/>
  <unicode hex="0061"/>
  <outline>
    <contour>
      <point x="454" y="9" type="move" name="ogonek"/>
    </contour>
    <contour>
      <point x="247" y="500" type="move" name="top"/>
    </contour>
    <contour>
      <point x="289" y="87" type="curve"/>
      <point x="286" y="87" type="line"/>
      <point x="295" y="25"/>
      <point x="328" y="-10"/>
      <point x="388" y="-10" type="curve" smooth="yes"/>
      <point x="469" y="-10"/>
      <point x="483" y="32"/>
      <point x="488" y="94" type="curve"/>
      <point x="462" y="95" type="line"/>
      <point x="458" y="45"/>
      <point x="444" y="25"/>
      <point x="427" y="25" type="curve" smooth="yes"/>
      <point x="411" y="25"/>
      <point x="405" y="42"/>
      <point x="405" y="75" type="curve" smooth="yes"/>
      <point x="405" y="284" type="line" smooth="yes"/>
      <point x="405" y="401"/>
      <point x="323" y="445"/>
      <point x="224" y="445" type="curve" smooth="yes"/>
      <point x="105" y="445"/>
      <point x="44" y="406"/>
      <point x="44" y="354" type="curve" smooth="yes"/>
      <point x="44" y="322"/>
      <point x="68" y="302"/>
      <point x="100" y="302" type="curve" smooth="yes"/>
      <point x="191" y="302"/>
      <point x="138" y="419"/>
      <point x="217" y="419" type="curve" smooth="yes"/>
      <point x="263" y="419"/>
      <point x="278" y="384"/>
      <point x="278" y="312" type="curve" smooth="yes"/>
      <point x="278" y="122" type="line"/>
      <point x="262" y="64"/>
      <point x="230" y="33"/>
      <point x="201" y="33" type="curve" smooth="yes"/>
      <point x="169" y="33"/>
      <point x="150" y="61"/>
      <point x="150" y="122" type="curve" smooth="yes"/>
      <point x="150" y="189"/>
      <point x="184" y="219"/>
      <point x="293" y="219" type="curve"/>
      <point x="293" y="247" type="line"/>
      <point x="109" y="247"/>
      <point x="20" y="201"/>
      <point x="20" y="111" type="curve" smooth="yes"/>
      <point x="20" y="30"/>
      <point x="74" y="-10"/>
      <point x="149" y="-10" type="curve" smooth="yes"/>
      <point x="215" y="-10"/>
      <point x="270" y="25"/>
    </contour>
  </outline>
</glyph>
<glyph name="b" format="1">
  <advance width="556"/>
  <unicode hex="0062"/>
  <outline>
    <contour>
      <point x="179" y="93" type="line"/>
      <point x="163" y="93" type="line"/>
      <point x="197" y="24"/>
      <point x="253" y="-10"/>
      <point x="319" y="-10" type="curve" smooth="yes"/>
      <point x="426" y="-10"/>
      <point x="528" y="70"/>
      <point x="528" y="229" type="curve" smooth="yes"/>
      <point x="528" y="370"/>
      <point x="447" y="445"/>
      <point x="354" y="445" type="curve" smooth="yes"/>
      <point x="285" y="445"/>
      <point x="222" y="407"/>
      <point x="186" y="314" type="curve"/>
      <point x="199" y="314" type="line"/>
      <point x="199" y="650" type="line"/>
      <point x="15" y="650" type="line"/>
      <point x="15" y="623" type="line"/>
      <point x="72" y="623" type="line"/>
      <point x="72" y="79" type="line" smooth="yes"/>
      <point x="72" y="39"/>
      <point x="55" y="27"/>
      <point x="15" y="27" type="curve"/>
      <point x="15" y="0" type="line"/>
      <point x="168" y="0" type="line"/>
    </contour>
    <contour>
      <point x="305" y="397" type="curve" smooth="yes"/>
      <point x="365" y="397"/>
      <point x="391" y="331"/>
      <point x="391" y="215" type="curve" smooth="yes"/>
      <point x="391" y="88"/>
      <point x="360" y="17"/>
      <point x="298" y="17" type="curve" smooth="yes"/>
      <point x="244" y="17"/>
      <point x="199" y="68"/>
      <point x="199" y="196" type="curve" smooth="yes"/>
      <point x="199" y="316"/>
      <point x="239" y="397"/>
    </contour>
  </outline>
</glyph>
<glyph name="d" format="1">
  <advance width="571"/>
  <unicode hex="0064"/>
  <outline>
    <contour>
      <point x="370" y="117" type="curve"/>
      <point x="359" y="117" type="line"/>
      <point x="377" y="0" type="line"/>
      <point x="556" y="0" type="line"/>
      <point x="556" y="24"/>
      <point x="551" y="27"/>
      <point x="532" y="27" type="curve" smooth="yes"/>
      <point x="486" y="27" type="line"/>
      <point x="486" y="650" type="line"/>
      <point x="268" y="650" type="line"/>
      <point x="268" y="624" type="line"/>
      <point x="359" y="624" type="line"/>
      <point x="359" y="340" type="line"/>
      <point x="404" y="340" type="line"/>
      <point x="372" y="410"/>
      <point x="309" y="446"/>
      <point x="237" y="446" type="curve" smooth="yes"/>
      <point x="132" y="446"/>
      <point x="30" y="366"/>
      <point x="30" y="207" type="curve" smooth="yes"/>
      <point x="30" y="66"/>
      <point x="120" y="-10"/>
      <point x="213" y="-10" type="curve" smooth="yes"/>
      <point x="284" y="-10"/>
      <point x="347" y="30"/>
    </contour>
    <contour>
      <point x="167" y="219" type="curve" smooth="yes"/>
      <point x="167" y="337"/>
      <point x="203" y="413"/>
      <point x="268" y="413" type="curve" smooth="yes"/>
      <point x="325" y="413"/>
      <point x="361" y="356"/>
      <point x="361" y="238" type="curve" smooth="yes"/>
      <point x="361" y="111"/>
      <point x="322" y="36"/>
      <point x="259" y="36" type="curve" smooth="yes"/>
      <point x="200" y="36"/>
      <point x="167" y="102"/>
    </contour>
    <contour>
      <point x="287" y="250" type="move" name="center"/>
    </contour>
    <contour>
      <point x="551" y="500" type="move" name="topright"/>
    </contour>
  </outline>
</glyph>
<glyph name="e" format="1">
  <advance width="476"/>
  <unicode hex="0065"/>
  <outline>
    <contour>
      <point x="387" y="9" type="move" name="ogonek"/>
    </contour>
    <contour>
      <point x="242" y="0" type="move" name="bottom"/>
    </contour>
    <contour>
      <point x="242" y="500" type="move" name="top"/>
    </contour>
    <contour>
      <point x="254" y="419" type="curve" smooth="yes"/>
      <point x="300" y="419"/>
      <point x="319" y="375"/>
      <point x="319" y="310" type="curve" smooth="yes"/>
      <point x="319" y="258"/>
      <point x="301" y="244"/>
      <point x="231" y="247" type="curve" smooth="yes"/>
      <point x="155" y="250" type="line"/>
      <point x="153" y="221" type="line"/>
      <point x="259" y="218" type="line" smooth="yes"/>
      <point x="399" y="214"/>
      <point x="452" y="240"/>
      <point x="452" y="300" type="curve" smooth="yes"/>
      <point x="452" y="393"/>
      <point x="364" y="445"/>
      <point x="254" y="445" type="curve" smooth="yes"/>
      <point x="135" y="445"/>
      <point x="30" y="370"/>
      <point x="30" y="219" type="curve" smooth="yes"/>
      <point x="30" y="59"/>
      <point x="138" y="-10"/>
      <point x="257" y="-10" type="curve" smooth="yes"/>
      <point x="344" y="-10"/>
      <point x="413" y="29"/>
      <point x="441" y="103" type="curve"/>
      <point x="417" y="111" type="line"/>
      <point x="395" y="63"/>
      <point x="345" y="19"/>
      <point x="280" y="19" type="curve" smooth="yes"/>
      <point x="208" y="19"/>
      <point x="167" y="76"/>
      <point x="167" y="236" type="curve" smooth="yes"/>
      <point x="167" y="368"/>
      <point x="204" y="419"/>
    </contour>
  </outline>
</glyph>
<glyph name="h" format="1">
  <advance width="562"/>
  <unicode hex="0068"/>
  <outline>
    <contour>
      <point x="489" y="282" type="line" smooth="yes"/>
      <point x="489" y="401"/>
      <point x="424" y="445"/>
      <point x="352" y="445" type="curve" smooth="yes"/>
      <point x="283" y="445"/>
      <point x="228" y="405"/>
      <point x="205" y="353" type="curve"/>
      <point x="206" y="266" type="line"/>
      <point x="206" y="356"/>
      <point x="255" y="392"/>
      <point x="293" y="392" type="curve" smooth="yes"/>
      <point x="338" y="392"/>
      <point x="362" y="358"/>
      <point x="362" y="299" type="curve" smooth="yes"/>
      <point x="362" y="78" type="line" smooth="yes"/>
      <point x="362" y="38"/>
      <point x="359" y="26"/>
      <point x="323" y="26" type="curve"/>
      <point x="323" y="0" type="line"/>
      <point x="547" y="0" type="line"/>
      <point x="547" y="22"/>
      <point x="542" y="26"/>
      <point x="522" y="26" type="curve" smooth="yes"/>
      <point x="489" y="26" type="line"/>
    </contour>
    <contour>
      <point x="231" y="26" type="curve" smooth="yes"/>
      <point x="206" y="26" type="line"/>
      <point x="206" y="306" type="line"/>
      <point x="206" y="650" type="line"/>
      <point x="20" y="650" type="line"/>
      <point x="20" y="624" type="line"/>
      <point x="79" y="624" type="line"/>
      <point x="79" y="78" type="line" smooth="yes"/>
      <point x="79" y="36"/>
      <point x="55" y="26"/>
      <point x="20" y="26" type="curve"/>
      <point x="20" y="0" type="line"/>
      <point x="255" y="0" type="line"/>
      <point x="255" y="22"/>
      <point x="250" y="26"/>
    </contour>
  </outline>
</glyph>
<glyph name="i" format="1">
  <advance width="291"/>
  <unicode hex="0069"/>
  <outline>
    <contour>
      <point x="247" y="26" type="curve" smooth="yes"/>
      <point x="210" y="26" type="line"/>
      <point x="210" y="430" type="line"/>
      <point x="25" y="430" type="line"/>
      <point x="25" y="404" type="line"/>
      <point x="83" y="404" type="line"/>
      <point x="83" y="78" type="line" smooth="yes"/>
      <point x="83" y="36"/>
      <point x="63" y="26"/>
      <point x="25" y="26" type="curve"/>
      <point x="25" y="0" type="line"/>
      <point x="271" y="0" type="line"/>
      <point x="271" y="22"/>
      <point x="266" y="26"/>
    </contour>
    <contour>
      <point x="219" y="561" type="curve" smooth="yes"/>
      <point x="219" y="602"/>
      <point x="185" y="636"/>
      <point x="144" y="636" type="curve" smooth="yes"/>
      <point x="103" y="636"/>
      <point x="70" y="602"/>
      <point x="70" y="561" type="curve" smooth="yes"/>
      <point x="70" y="520"/>
      <point x="103" y="488"/>
      <point x="144" y="488" type="curve" smooth="yes"/>
      <point x="185" y="488"/>
      <point x="219" y="520"/>
    </contour>
  </outline>
</glyph>
<glyph name="l" format="1">
  <advance width="312"/>
  <unicode hex="006C"/>
  <outline>
    <contour>
      <point x="270" y="26" type="curve" smooth="yes"/>
      <point x="220" y="26" type="line"/>
      <point x="220" y="650" type="line"/>
      <point x="15" y="650" type="line"/>
      <point x="15" y="624" type="line"/>
      <point x="93" y="624" type="line"/>
      <point x="93" y="80" type="line" smooth="yes"/>
      <point x="93" y="35"/>
      <point x="70" y="26"/>
      <point x="15" y="26" type="curve"/>
      <point x="15" y="0" type="line"/>
      <point x="294" y="0" type="line"/>
      <point x="294" y="22"/>
      <point x="289" y="26"/>
    </contour>
  </outline>
</glyph>
<glyph name="n" format="1">
  <advance width="562"/>
  <unicode hex="006E"/>
  <outline>
    <contour>
      <point x="489" y="282" type="line" smooth="yes"/>
      <point x="489" y="401"/>
      <point x="423" y="445"/>
      <point x="351" y="445" type="curve" smooth="yes"/>
      <point x="287" y="445"/>
      <point x="225" y="403"/>
      <point x="200" y="346" type="curve"/>
      <point x="205" y="262" type="line"/>
      <point x="205" y="349"/>
      <point x="251" y="393"/>
      <point x="293" y="393" type="curve" smooth="yes"/>
      <point x="332" y="393"/>
      <point x="362" y="366"/>
      <point x="362" y="299" type="curve" smooth="yes"/>
      <point x="362" y="78" type="line" smooth="yes"/>
      <point x="362" y="38"/>
      <point x="352" y="26"/>
      <point x="316" y="26" type="curve"/>
      <point x="316" y="0" type="line"/>
      <point x="547" y="0" type="line"/>
      <point x="547" y="22"/>
      <point x="542" y="26"/>
      <point x="522" y="26" type="curve" smooth="yes"/>
      <point x="489" y="26" type="line"/>
    </contour>
    <contour>
      <point x="230" y="26" type="curve" smooth="yes"/>
      <point x="205" y="26" type="line"/>
      <point x="206" y="306" type="line"/>
      <point x="198" y="430" type="line"/>
      <point x="20" y="430" type="line"/>
      <point x="20" y="404" type="line"/>
      <point x="78" y="404" type="line"/>
      <point x="78" y="78" type="line" smooth="yes"/>
      <point x="78" y="36"/>
      <point x="55" y="26"/>
      <point x="20" y="26" type="curve"/>
      <point x="20" y="0" type="line"/>
      <point x="254" y="0" type="line"/>
      <point x="254" y="22"/>
      <point x="249" y="26"/>
    </contour>
    <contour>
      <point x="281" y="500" type="move" name="top"/>
    </contour>
    <contour>
      <point x="281" y="0" type="move" name="bottom"/>
    </contour>
  </outline>
</glyph>
<glyph name="p" format="1">
  <advance width="560"/>
  <unicode hex="0070"/>
  <outline>
    <contour>
      <point x="204" y="-164" type="line"/>
      <point x="204" y="36" type="line"/>
      <point x="228" y="5"/>
      <point x="276" y="-10"/>
      <point x="323" y="-10" type="curve" smooth="yes"/>
      <point x="433" y="-10"/>
      <point x="532" y="74"/>
      <point x="532" y="230" type="curve" smooth="yes"/>
      <point x="532" y="363"/>
      <point x="460" y="445"/>
      <point x="362" y="445" type="curve" smooth="yes"/>
      <point x="293" y="445"/>
      <point x="226" y="404"/>
      <point x="202" y="334" type="curve"/>
      <point x="197" y="430" type="line"/>
      <point x="20" y="430" type="line"/>
      <point x="20" y="404" type="line"/>
      <point x="77" y="404" type="line"/>
      <point x="77" y="-112" type="line" smooth="yes"/>
      <point x="77" y="-152"/>
      <point x="60" y="-164"/>
      <point x="20" y="-164" type="curve"/>
      <point x="20" y="-190" type="line"/>
      <point x="280" y="-190" type="line"/>
      <point x="280" y="-168"/>
      <point x="275" y="-164"/>
      <point x="255" y="-164" type="curve" smooth="yes"/>
    </contour>
    <contour>
      <point x="309" y="397" type="curve" smooth="yes"/>
      <point x="369" y="397"/>
      <point x="395" y="331"/>
      <point x="395" y="215" type="curve" smooth="yes"/>
      <point x="395" y="88"/>
      <point x="364" y="17"/>
      <point x="302" y="17" type="curve" smooth="yes"/>
      <point x="253" y="17"/>
      <point x="203" y="68"/>
      <point x="203" y="196" type="curve" smooth="yes"/>
      <point x="203" y="316"/>
      <point x="248" y="397"/>
    </contour>
  </outline>
</glyph>
<glyph name="q" format="1">
  <advance width="568"/>
  <unicode hex="0071"/>
  <outline>
    <contour>
      <point x="28" y="208" type="curve" smooth="yes"/>
      <point x="28" y="65"/>
      <point x="117" y="-10"/>
      <point x="210" y="-10" type="curve" smooth="yes"/>
      <point x="276" y="-10"/>
      <point x="345" y="31"/>
      <point x="368" y="117" type="curve"/>
      <point x="357" y="117" type="line"/>
      <point x="357" y="-112" type="line" smooth="yes"/>
      <point x="357" y="-152"/>
      <point x="340" y="-164"/>
      <point x="300" y="-164" type="curve"/>
      <point x="300" y="-190" type="line"/>
      <point x="548" y="-190" type="line"/>
      <point x="548" y="-167"/>
      <point x="543" y="-164"/>
      <point x="524" y="-164" type="curve" smooth="yes"/>
      <point x="484" y="-164" type="line"/>
      <point x="484" y="404" type="line"/>
      <point x="548" y="404" type="line"/>
      <point x="548" y="430" type="line"/>
      <point x="367" y="430" type="line"/>
      <point x="357" y="340" type="line"/>
      <point x="404" y="342" type="line"/>
      <point x="376" y="411"/>
      <point x="311" y="445"/>
      <point x="238" y="445" type="curve" smooth="yes"/>
      <point x="132" y="445"/>
      <point x="28" y="367"/>
    </contour>
    <contour>
      <point x="359" y="238" type="curve" smooth="yes"/>
      <point x="359" y="111"/>
      <point x="320" y="36"/>
      <point x="257" y="36" type="curve" smooth="yes"/>
      <point x="198" y="36"/>
      <point x="165" y="102"/>
      <point x="165" y="219" type="curve" smooth="yes"/>
      <point x="165" y="337"/>
      <point x="201" y="413"/>
      <point x="266" y="413" type="curve" smooth="yes"/>
      <point x="323" y="413"/>
      <point x="359" y="356"/>
    </contour>
  </outline>
</glyph>
<glyph name="u" format="1">
  <advance width="562"/>
  <unicode hex="0075"/>
  <outline>
    <contour>
      <point x="542" y="9" type="move" name="ogonek"/>
    </contour>
    <contour>
      <point x="284" y="500" type="move" name="top"/>
    </contour>
    <contour>
      <point x="518" y="26" type="curve" smooth="yes"/>
      <point x="484" y="26" type="line"/>
      <point x="484" y="430" type="line"/>
      <point x="308" y="430" type="line"/>
      <point x="308" y="404" type="line"/>
      <point x="357" y="404" type="line"/>
      <point x="356" y="152" type="line"/>
      <point x="349" y="79"/>
      <point x="308" y="42"/>
      <point x="269" y="42" type="curve" smooth="yes"/>
      <point x="230" y="42"/>
      <point x="200" y="69"/>
      <point x="200" y="136" type="curve" smooth="yes"/>
      <point x="200" y="430" type="line"/>
      <point x="15" y="430" type="line"/>
      <point x="15" y="404" type="line"/>
      <point x="73" y="404" type="line"/>
      <point x="73" y="153" type="line" smooth="yes"/>
      <point x="73" y="34"/>
      <point x="129" y="-10"/>
      <point x="216" y="-10" type="curve" smooth="yes"/>
      <point x="284" y="-10"/>
      <point x="333" y="29"/>
      <point x="359" y="82" type="curve"/>
      <point x="364" y="0" type="line"/>
      <point x="542" y="0" type="line"/>
      <point x="542" y="23"/>
      <point x="537" y="26"/>
    </contour>
  </outline>
</glyph>
<glyph name="asciitilde" format="1">
  <advance width="482"/>
  <unicode hex="007E"/>
  <outline>
    <contour>
      <point x="159" y="323" type="curve" smooth="yes"/>
      <point x="241" y="323"/>
      <point x="294" y="252"/>
      <point x="350" y="252" type="curve" smooth="yes"/>
      <point x="383" y="252"/>
      <point x="410" y="273"/>
      <point x="425" y="325" type="curve"/>
      <point x="452" y="320" type="line"/>
      <point x="444" y="241"/>
      <point x="400" y="175"/>
      <point x="328" y="175" type="curve" smooth="yes"/>
      <point x="250" y="175"/>
      <point x="193" y="245"/>
      <point x="135" y="245" type="curve" smooth="yes"/>
      <point x="92" y="245"/>
      <point x="68" y="214"/>
      <point x="57" y="172" type="curve"/>
      <point x="30" y="178" type="line"/>
      <point x="38" y="257"/>
      <point x="84" y="323"/>
    </contour>
  </outline>
</glyph>
<glyph name="cent" format="1">
  <advance width="467"/>
  <unicode hex="00A2"/>
  <outline>
    <contour>
      <point x="28" y="271" type="curve" smooth="yes"/>
      <point x="28" y="115"/>
      <point x="132" y="45"/>
      <point x="258" y="45" type="curve" smooth="yes"/>
      <point x="341" y="45"/>
      <point x="420" y="80"/>
      <point x="447" y="156" type="curve"/>
      <point x="422" y="163" type="line"/>
      <point x="399" y="116"/>
      <point x="343" y="73"/>
      <point x="274" y="73" type="curve" smooth="yes"/>
      <point x="201" y="73"/>
      <point x="160" y="111"/>
      <point x="160" y="266" type="curve" smooth="yes"/>
      <point x="160" y="422"/>
      <point x="189" y="475"/>
      <point x="256" y="475" type="curve" smooth="yes"/>
      <point x="362" y="475"/>
      <point x="277" y="338"/>
      <point x="377" y="338" type="curve" smooth="yes"/>
      <point x="420" y="338"/>
      <point x="442" y="363"/>
      <point x="442" y="392" type="curve" smooth="yes"/>
      <point x="442" y="439"/>
      <point x="382" y="500"/>
      <point x="259" y="500" type="curve" smooth="yes"/>
      <point x="147" y="500"/>
      <point x="28" y="430"/>
    </contour>
    <contour>
      <point x="237" y="-20" type="line"/>
      <point x="266" y="-20" type="line"/>
      <point x="266" y="570" type="line"/>
      <point x="237" y="570" type="line"/>
    </contour>
  </outline>
</glyph>
<glyph name="sterling" format="1">
  <advance width="568"/>
  <unicode hex="00A3"/>
  <outline>
    <contour>
      <point x="548" y="179" type="curve"/>
      <point x="527" y="179" type="line"/>
      <point x="509" y="124"/>
      <point x="457" y="107"/>
      <point x="384" y="107" type="curve" smooth="yes"/>
      <point x="273" y="107"/>
      <point x="181" y="132"/>
      <point x="120" y="132" type="curve" smooth="yes"/>
      <point x="67" y="132"/>
      <point x="40" y="98"/>
      <point x="40" y="63" type="curve" smooth="yes"/>
      <point x="40" y="30"/>
      <point x="63" y="0"/>
      <point x="109" y="0" type="curve" smooth="yes"/>
      <point x="191" y="0"/>
      <point x="242" y="98"/>
      <point x="242" y="214" type="curve" smooth="yes"/>
      <point x="242" y="284"/>
      <point x="232" y="359"/>
      <point x="232" y="424" type="curve" smooth="yes"/>
      <point x="232" y="518"/>
      <point x="247" y="582"/>
      <point x="315" y="582" type="curve" smooth="yes"/>
      <point x="430" y="582"/>
      <point x="337" y="430"/>
      <point x="451" y="430" type="curve" smooth="yes"/>
      <point x="494" y="430"/>
      <point x="519" y="456"/>
      <point x="519" y="489" type="curve" smooth="yes"/>
      <point x="519" y="563"/>
      <point x="430" y="610"/>
      <point x="305" y="610" type="curve" smooth="yes"/>
      <point x="184" y="610"/>
      <point x="80" y="542"/>
      <point x="80" y="427" type="curve" smooth="yes"/>
      <point x="80" y="306"/>
      <point x="170" y="179"/>
      <point x="170" y="95" type="curve" smooth="yes"/>
      <point x="170" y="56"/>
      <point x="142" y="28"/>
      <point x="108" y="28" type="curve" smooth="yes"/>
      <point x="84" y="28"/>
      <point x="72" y="44"/>
      <point x="72" y="63" type="curve" smooth="yes"/>
      <point x="72" y="84"/>
      <point x="87" y="104"/>
      <point x="118" y="104" type="curve" smooth="yes"/>
      <point x="211" y="104"/>
      <point x="268" y="-27"/>
      <point x="396" y="-27" type="curve" smooth="yes"/>
      <point x="478" y="-27"/>
      <point x="548" y="22"/>
    </contour>
    <contour>
      <point x="392" y="295" type="line"/>
      <point x="392" y="325" type="line"/>
      <point x="42" y="325" type="line"/>
      <point x="42" y="295" type="line"/>
    </contour>
  </outline>
</glyph>
<glyph name="currency" format="1">
  <advance width="606"/>
  <unicode hex="00A4"/>
  <outline>
    <contour>
      <point x="297" y="111" type="curve" smooth="yes"/>
      <point x="218" y="111"/>
      <point x="140" y="167"/>
      <point x="140" y="281" type="curve" smooth="yes"/>
      <point x="140" y="393"/>
      <point x="217" y="449"/>
      <point x="296" y="449" type="curve" smooth="yes"/>
      <point x="374" y="449"/>
      <point x="452" y="393"/>
      <point x="452" y="280" type="curve" smooth="yes"/>
      <point x="452" y="166"/>
      <point x="375" y="111"/>
    </contour>
    <contour>
      <point x="295" y="75" type="curve" smooth="yes"/>
      <point x="394" y="75"/>
      <point x="495" y="146"/>
      <point x="495" y="282" type="curve" smooth="yes"/>
      <point x="495" y="416"/>
      <point x="396" y="485"/>
      <point x="298" y="485" type="curve" smooth="yes"/>
      <point x="199" y="485"/>
      <point x="97" y="414"/>
      <point x="97" y="279" type="curve" smooth="yes"/>
      <point x="97" y="145"/>
      <point x="197" y="75"/>
    </contour>
    <contour>
      <point x="417" y="420" type="line"/>
      <point x="442" y="394" type="line"/>
      <point x="541" y="493" type="line"/>
      <point x="515" y="519" type="line"/>
    </contour>
    <contour>
      <point x="57" y="61" type="line"/>
      <point x="83" y="35" type="line"/>
      <point x="181" y="133" type="line"/>
      <point x="156" y="159" type="line"/>
    </contour>
    <contour>
      <point x="153" y="397" type="line"/>
      <point x="179" y="423" type="line"/>
      <point x="80" y="520" type="line"/>
      <point x="55" y="495" type="line"/>
    </contour>
    <contour>
      <point x="513" y="37" type="line"/>
      <point x="538" y="62" type="line"/>
      <point x="440" y="162" type="line"/>
      <point x="414" y="136" type="line"/>
    </contour>
  </outline>
</glyph>
<glyph name="registered" format="1">
  <advance width="395"/>
  <unicode hex="00AE"/>
  <outline>
    <contour>
      <point x="370" y="473" type="curve" smooth="yes"/>
      <point x="370" y="570"/>
      <point x="294" y="646"/>
      <point x="192" y="646" type="curve" smooth="yes"/>
      <point x="90" y="646"/>
      <point x="15" y="570"/>
      <point x="15" y="473" type="curve" smooth="yes"/>
      <point x="15" y="376"/>
      <point x="90" y="300"/>
      <point x="192" y="300" type="curve" smooth="yes"/>
      <point x="294" y="300"/>
      <point x="370" y="376"/>
    </contour>
    <contour>
      <point x="43" y="473" type="curve" smooth="yes"/>
      <point x="43" y="558"/>
      <point x="105" y="623"/>
      <point x="192" y="623" type="curve" smooth="yes"/>
      <point x="279" y="623"/>
      <point x="342" y="558"/>
      <point x="342" y="473" type="curve" smooth="yes"/>
      <point x="342" y="388"/>
      <point x="279" y="323"/>
      <point x="192" y="323" type="curve" smooth="yes"/>
      <point x="105" y="323"/>
      <point x="43" y="388"/>
    </contour>
    <contour>
      <point x="304" y="375" type="line"/>
      <point x="304" y="386"/>
      <point x="302" y="390"/>
      <point x="291" y="390" type="curve" smooth="yes"/>
      <point x="286" y="390" type="line"/>
      <point x="237" y="469" type="line"/>
      <point x="274" y="477"/>
      <point x="287" y="499"/>
      <point x="287" y="522" type="curve" smooth="yes"/>
      <point x="287" y="549"/>
      <point x="263" y="575"/>
      <point x="207" y="575" type="curve" smooth="yes"/>
      <point x="93" y="575" type="line"/>
      <point x="93" y="559" type="line"/>
      <point x="113" y="559" type="line"/>
      <point x="113" y="390" type="line"/>
      <point x="93" y="390" type="line"/>
      <point x="93" y="375" type="line"/>
      <point x="195" y="375" type="line"/>
      <point x="195" y="390" type="line"/>
      <point x="172" y="390" type="line"/>
      <point x="172" y="464" type="line"/>
      <point x="185" y="464" type="line"/>
      <point x="235" y="374" type="line"/>
    </contour>
    <contour>
      <point x="172" y="559" type="line"/>
      <point x="187" y="559" type="line" smooth="yes"/>
      <point x="210" y="559"/>
      <point x="221" y="538"/>
      <point x="221" y="520" type="curve" smooth="yes"/>
      <point x="221" y="499"/>
      <point x="210" y="480"/>
      <point x="189" y="480" type="curve" smooth="yes"/>
      <point x="172" y="480" type="line"/>
    </contour>
  </outline>
</glyph>
<glyph name="macron" format="1">
  <advance width="500"/>
  <unicode hex="00AF"/>
  <outline>
    <contour>
      <point x="248" y="500" type="move" name="_top"/>
    </contour>
    <contour>
      <point x="90" y="540" type="line"/>
      <point x="410" y="540" type="line"/>
      <point x="410" y="595" type="line"/>
      <point x="90" y="595" type="line"/>
    </contour>
  </outline>
</glyph>
<glyph name="degree" format="1">
  <advance width="278"/>
  <unicode hex="00B0"/>
  <outline>
    <contour>
      <point x="72" y="542" type="curve" smooth="yes"/>
      <point x="72" y="581"/>
      <point x="102" y="613"/>
      <point x="139" y="613" type="curve" smooth="yes"/>
      <point x="175" y="613"/>
      <point x="206" y="581"/>
      <point x="206" y="542" type="curve" smooth="yes"/>
      <point x="206" y="505"/>
      <point x="176" y="475"/>
      <point x="139" y="475" type="curve" smooth="yes"/>
      <point x="101" y="475"/>
      <point x="72" y="505"/>
    </contour>
    <contour>
      <point x="238" y="542" type="curve" smooth="yes"/>
      <point x="238" y="597"/>
      <point x="193" y="643"/>
      <point x="139" y="643" type="curve" smooth="yes"/>
      <point x="84" y="643"/>
      <point x="40" y="597"/>
      <point x="40" y="542" type="curve" smooth="yes"/>
      <point x="40" y="488"/>
      <point x="84" y="446"/>
      <point x="139" y="446" type="curve" smooth="yes"/>
      <point x="194" y="446"/>
      <point x="238" y="489"/>
    </contour>
  </outline>
</glyph>
<glyph name="paragraph" format="1">
  <advance width="554"/>
  <unicode hex="00B6"/>
  <outline>
    <contour>
      <point x="289" y="190" type="line"/>
      <point x="289" y="574" type="line"/>
      <point x="544" y="574" type="line"/>
      <point x="544" y="600" type="line"/>
      <point x="273" y="600" type="line" smooth="yes"/>
      <point x="110" y="600"/>
      <point x="29" y="503"/>
      <point x="29" y="393" type="curve" smooth="yes"/>
      <point x="29" y="283"/>
      <point x="107" y="190"/>
      <point x="246" y="190" type="curve" smooth="yes"/>
    </contour>
    <contour>
      <point x="356" y="65" type="line" smooth="yes"/>
      <point x="356" y="-37"/>
      <point x="348" y="-88"/>
      <point x="279" y="-91" type="curve"/>
      <point x="299" y="-71"/>
      <point x="303" y="-27"/>
      <point x="303" y="61" type="curve" smooth="yes"/>
      <point x="303" y="579" type="line"/>
      <point x="274" y="579" type="line"/>
      <point x="274" y="61" type="line" smooth="yes"/>
      <point x="274" y="-56"/>
      <point x="269" y="-90"/>
      <point x="238" y="-90" type="curve" smooth="yes"/>
      <point x="166" y="-90"/>
      <point x="233" y="49"/>
      <point x="124" y="49" type="curve" smooth="yes"/>
      <point x="84" y="49"/>
      <point x="60" y="21"/>
      <point x="60" y="-12" type="curve" smooth="yes"/>
      <point x="60" y="-79"/>
      <point x="144" y="-117"/>
      <point x="236" y="-117" type="curve" smooth="yes"/>
      <point x="349" y="-117"/>
      <point x="476" y="-59"/>
      <point x="476" y="75" type="curve" smooth="yes"/>
      <point x="476" y="600" type="line"/>
      <point x="356" y="600" type="line"/>
    </contour>
  </outline>
</glyph>
<glyph name="periodcentered" format="1">
  <advance width="249"/>
  <unicode hex="00B7"/>
  <outline>
    <contour>
      <point x="199" y="227" type="curve" smooth="yes"/>
      <point x="199" y="268"/>
      <point x="165" y="302"/>
      <point x="124" y="302" type="curve" smooth="yes"/>
      <point x="83" y="302"/>
      <point x="50" y="268"/>
      <point x="50" y="227" type="curve" smooth="yes"/>
      <point x="50" y="186"/>
      <point x="83" y="154"/>
      <point x="124" y="154" type="curve" smooth="yes"/>
      <point x="165" y="154"/>
      <point x="199" y="186"/>
    </contour>
  </outline>
</glyph>
<glyph name="cedilla" format="1">
  <advance width="500"/>
  <unicode hex="00B8"/>
  <outline>
    <contour>
      <point x="239" y="0" type="move" name="_bottom"/>
    </contour>
    <contour>
      <point x="155" y="-85" type="line"/>
      <point x="169" y="-95" type="line"/>
      <point x="186" y="-83"/>
      <point x="202" y="-77"/>
      <point x="217" y="-77" type="curve" smooth="yes"/>
      <point x="240" y="-77"/>
      <point x="257" y="-95"/>
      <point x="257" y="-134" type="curve" smooth="yes"/>
      <point x="257" y="-178"/>
      <point x="237" y="-199"/>
      <point x="211" y="-199" type="curve" smooth="yes"/>
      <point x="191" y="-199"/>
      <point x="166" y="-186"/>
      <point x="146" y="-161" type="curve"/>
      <point x="130" y="-175" type="line"/>
      <point x="153" y="-207"/>
      <point x="194" y="-228"/>
      <point x="242" y="-228" type="curve" smooth="yes"/>
      <point x="327" y="-228"/>
      <point x="369" y="-181"/>
      <point x="369" y="-135" type="curve" smooth="yes"/>
      <point x="369" y="-91"/>
      <point x="331" y="-49"/>
      <point x="253" y="-49" type="curve" smooth="yes"/>
      <point x="234" y="-49"/>
      <point x="214" y="-53"/>
      <point x="197" y="-60" type="curve"/>
      <point x="227" y="8" type="line"/>
      <point x="201" y="8" type="line"/>
    </contour>
  </outline>
</glyph>
<glyph name="onequarter" format="1">
  <advance width="872"/>
  <unicode hex="00BC"/>
  <outline>
    <contour>
      <point x="226" y="703" type="line"/>
      <point x="78" y="603" type="line"/>
      <point x="93" y="579" type="line"/>
      <point x="184" y="640" type="line"/>
      <point x="184" y="402" type="line"/>
      <point x="98" y="395" type="line"/>
      <point x="98" y="373" type="line"/>
      <point x="371" y="373" type="line"/>
      <point x="371" y="389"/>
      <point x="362" y="393"/>
      <point x="345" y="395" type="curve" smooth="yes"/>
      <point x="294" y="402" type="line"/>
      <point x="294" y="703" type="line"/>
    </contour>
    <contour>
      <point x="223" y="-33" type="line"/>
      <point x="652" y="610" type="line"/>
      <point x="615" y="633" type="line"/>
      <point x="185" y="-10" type="line"/>
    </contour>
    <contour>
      <point x="716" y="286" type="curve" smooth="yes"/>
      <point x="716" y="316"/>
      <point x="693" y="333"/>
      <point x="659" y="333" type="curve" smooth="yes"/>
      <point x="567" y="333"/>
      <point x="626" y="202"/>
      <point x="419" y="53" type="curve"/>
      <point x="449" y="46" type="line"/>
      <point x="559" y="119"/>
      <point x="716" y="209"/>
    </contour>
    <contour>
      <point x="783" y="-65" type="line"/>
      <point x="783" y="-46"/>
      <point x="779" y="-42"/>
      <point x="763" y="-42" type="curve" smooth="yes"/>
      <point x="520" y="-42" type="line"/>
      <point x="520" y="-65" type="line"/>
    </contour>
    <contour>
      <point x="783" y="51" type="line"/>
      <point x="419" y="53" type="line"/>
      <point x="424" y="28" type="line"/>
      <point x="783" y="26" type="line"/>
    </contour>
    <contour>
      <point x="711" y="-65" type="line"/>
      <point x="711" y="182" type="line"/>
      <point x="692" y="182" type="line"/>
      <point x="683" y="157" type="line" smooth="yes"/>
      <point x="671" y="124"/>
      <point x="645" y="121"/>
      <point x="611" y="121" type="curve" smooth="yes"/>
      <point x="599" y="121" type="line"/>
      <point x="599" y="-65" type="line"/>
    </contour>
  </outline>
</glyph>
<glyph name="onehalf" format="1">
  <advance width="775"/>
  <unicode hex="00BD"/>
  <outline>
    <contour>
      <point x="589" y="633" type="line"/>
      <point x="159" y="-10" type="line"/>
      <point x="197" y="-33" type="line"/>
      <point x="626" y="610" type="line"/>
    </contour>
    <contour>
      <point x="60" y="311" type="line"/>
      <point x="60" y="289" type="line"/>
      <point x="333" y="289" type="line"/>
      <point x="333" y="305"/>
      <point x="324" y="309"/>
      <point x="307" y="311" type="curve" smooth="yes"/>
      <point x="256" y="318" type="line"/>
      <point x="256" y="619" type="line"/>
      <point x="188" y="619" type="line"/>
      <point x="40" y="519" type="line"/>
      <point x="55" y="495" type="line"/>
      <point x="146" y="556" type="line"/>
      <point x="146" y="318" type="line"/>
    </contour>
    <contour>
      <point x="720" y="124" type="line"/>
      <point x="708" y="93" type="line" smooth="yes"/>
      <point x="701" y="76"/>
      <point x="684" y="75"/>
      <point x="657" y="75" type="curve" smooth="yes"/>
      <point x="508" y="75" type="line"/>
      <point x="549" y="139"/>
      <point x="732" y="125"/>
      <point x="732" y="244" type="curve" smooth="yes"/>
      <point x="732" y="312"/>
      <point x="657" y="340"/>
      <point x="588" y="340" type="curve" smooth="yes"/>
      <point x="528" y="340"/>
      <point x="453" y="312"/>
      <point x="453" y="253" type="curve" smooth="yes"/>
      <point x="453" y="226"/>
      <point x="468" y="206"/>
      <point x="504" y="206" type="curve" smooth="yes"/>
      <point x="601" y="206"/>
      <point x="531" y="319"/>
      <point x="586" y="319" type="curve" smooth="yes"/>
      <point x="620" y="319"/>
      <point x="622" y="288"/>
      <point x="622" y="244" type="curve" smooth="yes"/>
      <point x="622" y="105"/>
      <point x="451" y="144"/>
      <point x="451" y="5" type="curve" smooth="yes"/>
      <point x="451" y="0" type="line"/>
      <point x="735" y="0" type="line"/>
      <point x="736" y="124" type="line"/>
    </contour>
  </outline>
</glyph>
<glyph name="threequarters" format="1">
  <advance width="779"/>
  <unicode hex="00BE"/>
  <outline>
    <contour>
      <point x="596" y="633" type="line"/>
      <point x="166" y="-10" type="line"/>
      <point x="204" y="-33" type="line"/>
      <point x="633" y="610" type="line"/>
    </contour>
    <contour>
      <point x="339" y="412"/>
      <point x="300" y="457"/>
      <point x="220" y="457" type="curve" smooth="yes"/>
      <point x="207" y="457"/>
      <point x="191" y="455"/>
      <point x="175" y="453" type="curve"/>
      <point x="335" y="600" type="line"/>
      <point x="335" y="618" type="line"/>
      <point x="56" y="618" type="line"/>
      <point x="55" y="489" type="line"/>
      <point x="70" y="489" type="line"/>
      <point x="81" y="516" type="line" smooth="yes"/>
      <point x="91" y="542"/>
      <point x="103" y="543"/>
      <point x="127" y="543" type="curve" smooth="yes"/>
      <point x="230" y="543" type="line"/>
      <point x="132" y="441" type="line"/>
      <point x="149" y="429" type="line"/>
      <point x="161" y="433"/>
      <point x="172" y="436"/>
      <point x="182" y="436" type="curve" smooth="yes"/>
      <point x="209" y="436"/>
      <point x="231" y="416"/>
      <point x="231" y="362" type="curve" smooth="yes"/>
      <point x="231" y="308"/>
      <point x="220" y="265"/>
      <point x="172" y="265" type="curve" smooth="yes"/>
      <point x="102" y="265"/>
      <point x="176" y="368"/>
      <point x="86" y="368" type="curve" smooth="yes"/>
      <point x="54" y="368"/>
      <point x="40" y="349"/>
      <point x="40" y="326" type="curve" smooth="yes"/>
      <point x="40" y="275"/>
      <point x="100" y="249"/>
      <point x="169" y="249" type="curve" smooth="yes"/>
      <point x="249" y="249"/>
      <point x="339" y="288"/>
      <point x="339" y="364" type="curve" smooth="yes"/>
    </contour>
    <contour>
      <point x="729" y="46" type="line"/>
      <point x="729" y="71" type="line"/>
      <point x="657" y="71" type="line"/>
      <point x="657" y="202" type="line"/>
      <point x="638" y="202" type="line"/>
      <point x="629" y="177" type="line" smooth="yes"/>
      <point x="617" y="144"/>
      <point x="591" y="141"/>
      <point x="557" y="141" type="curve" smooth="yes"/>
      <point x="545" y="141" type="line"/>
      <point x="545" y="72" type="line"/>
      <point x="405" y="73" type="line"/>
      <point x="515" y="145"/>
      <point x="662" y="231"/>
      <point x="662" y="306" type="curve" smooth="yes"/>
      <point x="662" y="336"/>
      <point x="639" y="353"/>
      <point x="605" y="353" type="curve" smooth="yes"/>
      <point x="513" y="353"/>
      <point x="572" y="222"/>
      <point x="365" y="73" type="curve"/>
      <point x="370" y="48" type="line"/>
      <point x="545" y="47" type="line"/>
      <point x="545" y="-22" type="line"/>
      <point x="466" y="-22" type="line"/>
      <point x="466" y="-45" type="line"/>
      <point x="729" y="-45" type="line"/>
      <point x="729" y="-26"/>
      <point x="725" y="-22"/>
      <point x="709" y="-22" type="curve" smooth="yes"/>
      <point x="657" y="-22" type="line"/>
      <point x="657" y="46" type="line"/>
    </contour>
  </outline>
</glyph>
<glyph name="AE" format="1">
  <advance width="903"/>
  <unicode hex="00C6"/>
  <outline>
    <contour>
      <point x="186" y="0" type="line"/>
      <point x="186" y="22"/>
      <point x="181" y="26"/>
      <point x="162" y="26" type="curve" smooth="yes"/>
      <point x="105" y="26" type="line"/>
      <point x="231" y="233" type="line"/>
      <point x="498" y="233" type="line"/>
      <point x="488" y="263" type="line"/>
      <point x="249" y="263" type="line"/>
      <point x="438" y="573" type="line"/>
      <point x="687" y="573" type="line" smooth="yes"/>
      <point x="763" y="573"/>
      <point x="792" y="526"/>
      <point x="807" y="477" type="curve" smooth="yes"/>
      <point x="829" y="403" type="line"/>
      <point x="858" y="403" type="line"/>
      <point x="854" y="600" type="line"/>
      <point x="412" y="600" type="line"/>
      <point x="60" y="26" type="line"/>
      <point x="0" y="26" type="line"/>
      <point x="0" y="0" type="line"/>
    </contour>
    <contour>
      <point x="854" y="0" type="line"/>
      <point x="858" y="197" type="line"/>
      <point x="829" y="197" type="line"/>
      <point x="806" y="123" type="line" smooth="yes"/>
      <point x="791" y="76"/>
      <point x="763" y="27"/>
      <point x="687" y="27" type="curve" smooth="yes"/>
      <point x="356" y="27" type="line"/>
      <point x="356" y="0" type="line"/>
    </contour>
    <contour>
      <point x="766" y="294" type="line"/>
      <point x="766" y="324" type="line"/>
      <point x="499" y="324" type="line"/>
      <point x="499" y="294" type="line"/>
    </contour>
    <component base="vertical_stem_upper" xOffset="395"/>
    <contour>
      <point x="635" y="630" type="move" name="top"/>
    </contour>
  </outline>
</glyph>
<glyph name="germandbls" format="1">
  <advance width="609"/>
  <unicode hex="00DF"/>
  <outline>
    <contour>
      <point x="594" y="119" type="curve" smooth="yes"/>
      <point x="594" y="278"/>
      <point x="395" y="275"/>
      <point x="395" y="363" type="curve" smooth="yes"/>
      <point x="395" y="444"/>
      <point x="531" y="420"/>
      <point x="531" y="516" type="curve" smooth="yes"/>
      <point x="531" y="603"/>
      <point x="439" y="650"/>
      <point x="330" y="650" type="curve" smooth="yes"/>
      <point x="210" y="650"/>
      <point x="101" y="591"/>
      <point x="101" y="443" type="curve" smooth="yes"/>
      <point x="101" y="78" type="line" smooth="yes"/>
      <point x="101" y="36"/>
      <point x="67" y="26"/>
      <point x="25" y="26" type="curve"/>
      <point x="25" y="0" type="line"/>
      <point x="228" y="0" type="line"/>
      <point x="228" y="435" type="line" smooth="yes"/>
      <point x="228" y="590"/>
      <point x="267" y="627"/>
      <point x="322" y="627" type="curve" smooth="yes"/>
      <point x="377" y="627"/>
      <point x="401" y="581"/>
      <point x="401" y="512" type="curve" smooth="yes"/>
      <point x="401" y="405"/>
      <point x="280" y="440"/>
      <point x="280" y="327" type="curve" smooth="yes"/>
      <point x="280" y="205"/>
      <point x="479" y="197"/>
      <point x="479" y="75" type="curve" smooth="yes"/>
      <point x="479" y="35"/>
      <point x="455" y="18"/>
      <point x="416" y="18" type="curve" smooth="yes"/>
      <point x="343" y="18"/>
      <point x="381" y="138"/>
      <point x="314" y="138" type="curve" smooth="yes"/>
      <point x="280" y="138"/>
      <point x="257" y="117"/>
      <point x="257" y="89" type="curve" smooth="yes"/>
      <point x="257" y="26"/>
      <point x="336" y="-10"/>
      <point x="427" y="-10" type="curve" smooth="yes"/>
      <point x="513" y="-10"/>
      <point x="594" y="37"/>
    </contour>
    <contour>
      <point x="184" y="404" type="line"/>
      <point x="184" y="430" type="line"/>
      <point x="20" y="430" type="line"/>
      <point x="20" y="404" type="line"/>
    </contour>
  </outline>
</glyph>
<glyph name="ae" format="1">
  <advance width="710"/>
  <unicode hex="00E6"/>
  <outline>
    <contour>
      <point x="484" y="420" type="curve" smooth="yes"/>
      <point x="543" y="420"/>
      <point x="551" y="374"/>
      <point x="551" y="310" type="curve" smooth="yes"/>
      <point x="551" y="258"/>
      <point x="533" y="244"/>
      <point x="465" y="247" type="curve" smooth="yes"/>
      <point x="389" y="250" type="line"/>
      <point x="387" y="223" type="line"/>
      <point x="493" y="220" type="line" smooth="yes"/>
      <point x="631" y="216"/>
      <point x="684" y="240"/>
      <point x="684" y="300" type="curve" smooth="yes"/>
      <point x="684" y="393"/>
      <point x="596" y="445"/>
      <point x="490" y="445" type="curve" smooth="yes"/>
      <point x="379" y="445"/>
      <point x="279" y="370"/>
      <point x="279" y="219" type="curve" smooth="yes"/>
      <point x="279" y="59"/>
      <point x="352" y="-10"/>
      <point x="491" y="-10" type="curve" smooth="yes"/>
      <point x="577" y="-10"/>
      <point x="647" y="27"/>
      <point x="674" y="106" type="curve"/>
      <point x="649" y="111" type="line"/>
      <point x="627" y="63"/>
      <point x="577" y="19"/>
      <point x="514" y="19" type="curve" smooth="yes"/>
      <point x="442" y="19"/>
      <point x="401" y="76"/>
      <point x="401" y="236" type="curve" smooth="yes"/>
      <point x="401" y="368"/>
      <point x="427" y="420"/>
    </contour>
    <contour>
      <point x="303" y="122" type="curve"/>
      <point x="402" y="111" type="line"/>
      <point x="402" y="284" type="line" smooth="yes"/>
      <point x="402" y="401"/>
      <point x="310" y="445"/>
      <point x="221" y="445" type="curve" smooth="yes"/>
      <point x="99" y="445"/>
      <point x="38" y="406"/>
      <point x="38" y="354" type="curve" smooth="yes"/>
      <point x="38" y="322"/>
      <point x="62" y="302"/>
      <point x="94" y="302" type="curve" smooth="yes"/>
      <point x="182" y="302"/>
      <point x="132" y="420"/>
      <point x="214" y="420" type="curve" smooth="yes"/>
      <point x="260" y="420"/>
      <point x="278" y="384"/>
      <point x="278" y="312" type="curve" smooth="yes"/>
      <point x="278" y="122" type="line"/>
      <point x="262" y="64"/>
      <point x="227" y="33"/>
      <point x="198" y="33" type="curve" smooth="yes"/>
      <point x="163" y="33"/>
      <point x="144" y="61"/>
      <point x="144" y="122" type="curve" smooth="yes"/>
      <point x="144" y="189"/>
      <point x="181" y="220"/>
      <point x="293" y="220" type="curve"/>
      <point x="293" y="247" type="line"/>
      <point x="103" y="247"/>
      <point x="14" y="201"/>
      <point x="14" y="111" type="curve" smooth="yes"/>
      <point x="14" y="30"/>
      <point x="68" y="-10"/>
      <point x="143" y="-10" type="curve" smooth="yes"/>
      <point x="213" y="-10"/>
      <point x="285" y="29"/>
    </contour>
    <contour>
      <point x="360" y="500" type="move" name="top"/>
    </contour>
  </outline>
</glyph>
<glyph name="eth" format="1">
  <advance width="600"/>
  <unicode hex="00F0"/>
  <outline>
    <contour>
      <point x="490" y="244" type="curve" smooth="yes"/>
      <point x="490" y="426"/>
      <point x="367" y="640"/>
      <point x="116" y="650" type="curve"/>
      <point x="113" y="623" type="line"/>
      <point x="307" y="605"/>
      <point x="331" y="468"/>
      <point x="351" y="340" type="curve"/>
      <point x="405" y="341" type="line"/>
      <point x="368" y="385"/>
      <point x="313" y="405"/>
      <point x="256" y="405" type="curve" smooth="yes"/>
      <point x="140" y="405"/>
      <point x="30" y="329"/>
      <point x="30" y="201" type="curve" smooth="yes"/>
      <point x="30" y="83"/>
      <point x="121" y="-11"/>
      <point x="256" y="-11" type="curve" smooth="yes"/>
      <point x="415" y="-11"/>
      <point x="490" y="107"/>
    </contour>
    <contour>
      <point x="167" y="197" type="curve" smooth="yes"/>
      <point x="167" y="320"/>
      <point x="183" y="380"/>
      <point x="260" y="380" type="curve" smooth="yes"/>
      <point x="340" y="380"/>
      <point x="354" y="320"/>
      <point x="354" y="201" type="curve" smooth="yes"/>
      <point x="354" y="78"/>
      <point x="336" y="14"/>
      <point x="259" y="14" type="curve" smooth="yes"/>
      <point x="179" y="14"/>
      <point x="167" y="77"/>
    </contour>
    <contour>
      <point x="411" y="627" type="line"/>
      <point x="396" y="653" type="line"/>
      <point x="130" y="504" type="line"/>
      <point x="146" y="476" type="line"/>
    </contour>
  </outline>
</glyph>
<glyph name="imacron" format="1">
  <advance width="283"/>
  <unicode hex="012B"/>
  <outline>
    <contour>
      <point x="14" y="540" type="line"/>
      <point x="274" y="540" type="line"/>
      <point x="274" y="595" type="line"/>
      <point x="14" y="595" type="line"/>
    </contour>
    <component base="dotlessi"/>
  </outline>
</glyph>
<glyph name="dotlessi" format="1">
  <advance width="283"/>
  <unicode hex="0131"/>
  <outline>
    <contour>
      <point x="268" y="9" type="move" name="ogonek"/>
    </contour>
    <contour>
      <point x="142" y="500" type="move" name="top"/>
    </contour>
    <contour>
      <point x="244" y="26" type="curve" smooth="yes"/>
      <point x="210" y="26" type="line"/>
      <point x="210" y="430" type="line"/>
      <point x="20" y="430" type="line"/>
      <point x="20" y="404" type="line"/>
      <point x="78" y="404" type="line"/>
      <point x="78" y="78" type="line" smooth="yes"/>
      <point x="78" y="36"/>
      <point x="58" y="26"/>
      <point x="20" y="26" type="curve"/>
      <point x="20" y="0" type="line"/>
      <point x="268" y="0" type="line"/>
      <point x="268" y="22"/>
      <point x="263" y="26"/>
    </contour>
  </outline>
</glyph>
<glyph name="caron" format="1">
  <advance width="500"/>
  <unicode hex="02C7"/>
  <outline>
    <contour>
      <point x="234" y="591" type="curve"/>
      <point x="267" y="591" type="line"/>
      <point x="236" y="603"/>
      <point x="177" y="625"/>
      <point x="114" y="660" type="curve"/>
      <point x="99" y="640" type="line"/>
      <point x="187" y="552"/>
      <point x="201" y="501"/>
      <point x="251" y="501" type="curve" smooth="yes"/>
      <point x="300" y="501"/>
      <point x="317" y="552"/>
      <point x="401" y="640" type="curve"/>
      <point x="386" y="660" type="line"/>
      <point x="329" y="628"/>
      <point x="265" y="602"/>
    </contour>
    <contour>
      <point x="250" y="500" type="move" name="_top"/>
    </contour>
  </outline>
</glyph>
<glyph name="breve" format="1">
  <advance width="500"/>
  <unicode hex="02D8"/>
  <outline>
    <contour>
      <point x="251" y="500" type="move" name="_top"/>
    </contour>
    <contour>
      <point x="254" y="586" type="curve" smooth="yes"/>
      <point x="303" y="586"/>
      <point x="350" y="593"/>
      <point x="360" y="642" type="curve"/>
      <point x="381" y="642" type="line"/>
      <point x="381" y="574"/>
      <point x="349" y="503"/>
      <point x="251" y="503" type="curve" smooth="yes"/>
      <point x="154" y="503"/>
      <point x="120" y="574"/>
      <point x="120" y="642" type="curve"/>
      <point x="140" y="642" type="line"/>
      <point x="150" y="595"/>
      <point x="206" y="586"/>
    </contour>
  </outline>
</glyph>
<glyph name="dotaccent" format="1">
  <advance width="283"/>
  <unicode hex="02D9"/>
  <outline>
    <contour>
      <point x="216" y="561" type="curve" smooth="yes"/>
      <point x="216" y="602"/>
      <point x="182" y="636"/>
      <point x="141" y="636" type="curve" smooth="yes"/>
      <point x="100" y="636"/>
      <point x="67" y="602"/>
      <point x="67" y="561" type="curve" smooth="yes"/>
      <point x="67" y="520"/>
      <point x="100" y="488"/>
      <point x="141" y="488" type="curve" smooth="yes"/>
      <point x="182" y="488"/>
      <point x="216" y="520"/>
    </contour>
    <contour>
      <point x="142" y="500" type="move" name="_top"/>
    </contour>
  </outline>
</glyph>
<glyph name="pi" format="1">
  <advance width="573"/>
  <unicode hex="03C0"/>
  <outline>
    <contour>
      <point x="265" y="0" type="line"/>
      <point x="265" y="22"/>
      <point x="260" y="26"/>
      <point x="241" y="26" type="curve" smooth="yes"/>
      <point x="205" y="26" type="line"/>
      <point x="205" y="430" type="line"/>
      <point x="78" y="430" type="line"/>
      <point x="78" y="78" type="line" smooth="yes"/>
      <point x="78" y="36"/>
      <point x="58" y="26"/>
      <point x="20" y="26" type="curve"/>
      <point x="20" y="0" type="line"/>
    </contour>
    <contour>
      <point x="563" y="75" type="curve"/>
      <point x="540" y="80" type="line"/>
      <point x="533" y="34"/>
      <point x="511" y="15"/>
      <point x="495" y="15" type="curve" smooth="yes"/>
      <point x="477" y="15"/>
      <point x="470" y="31"/>
      <point x="470" y="76" type="curve" smooth="yes"/>
      <point x="470" y="425" type="line"/>
      <point x="343" y="425" type="line"/>
      <point x="343" y="151" type="line" smooth="yes"/>
      <point x="343" y="22"/>
      <point x="398" y="-11"/>
      <point x="467" y="-11" type="curve" smooth="yes"/>
      <point x="523" y="-11"/>
      <point x="553" y="15"/>
    </contour>
    <contour>
      <point x="541" y="404" type="line"/>
      <point x="541" y="430" type="line"/>
      <point x="20" y="430" type="line"/>
      <point x="20" y="404" type="line"/>
    </contour>
  </outline>
</glyph>
<glyph name="anusvara" format="1">
  <advance width="364"/>
  <unicode hex="0D82"/>
  <outline>
    <contour>
      <point x="82" y="192" type="curve" smooth="yes"/>
      <point x="82" y="144"/>
      <point x="123" y="105"/>
      <point x="173" y="105" type="curve" smooth="yes"/>
      <point x="223" y="105"/>
      <point x="264" y="144"/>
      <point x="264" y="192" type="curve" smooth="yes"/>
      <point x="264" y="240"/>
      <point x="223" y="279"/>
      <point x="173" y="279" type="curve" smooth="yes"/>
      <point x="123" y="279"/>
      <point x="82" y="240"/>
    </contour>
    <contour>
      <point x="28" y="165" type="curve" smooth="yes"/>
      <point x="28" y="243"/>
      <point x="94" y="307"/>
      <point x="173" y="307" type="curve" smooth="yes"/>
      <point x="252" y="307"/>
      <point x="318" y="243"/>
      <point x="318" y="165" type="curve" smooth="yes"/>
      <point x="318" y="87"/>
      <point x="252" y="23"/>
      <point x="173" y="23" type="curve" smooth="yes"/>
      <point x="94" y="23"/>
      <point x="28" y="87"/>
    </contour>
  </outline>
</glyph>
<glyph name="si_I" format="1">
  <advance width="593"/>
  <unicode hex="0D89"/>
  <outline>
    <contour>
      <point x="33" y="221" type="curve" smooth="yes"/>
      <point x="33" y="357"/>
      <point x="148" y="432"/>
      <point x="284" y="432" type="curve" smooth="yes"/>
      <point x="437" y="432"/>
      <point x="544" y="353"/>
      <point x="544" y="198" type="curve" smooth="yes"/>
      <point x="544" y="92"/>
      <point x="473" y="10"/>
      <point x="384" y="-6" type="curve"/>
      <point x="417" y="-12"/>
      <point x="439" y="-36"/>
      <point x="439" y="-75" type="curve" smooth="yes"/>
      <point x="439" y="-134"/>
      <point x="364" y="-160"/>
      <point x="298" y="-160" type="curve" smooth="yes"/>
      <point x="236" y="-160"/>
      <point x="173" y="-139"/>
      <point x="173" y="-76" type="curve" smooth="yes"/>
      <point x="173" y="-50"/>
      <point x="191" y="-38"/>
      <point x="208" y="-38" type="curve" smooth="yes"/>
      <point x="223" y="-38"/>
      <point x="239" y="-48"/>
      <point x="239" y="-65" type="curve" smooth="yes"/>
      <point x="239" y="-71"/>
      <point x="235" y="-82"/>
      <point x="235" y="-94" type="curve" smooth="yes"/>
      <point x="235" y="-114"/>
      <point x="247" y="-135"/>
      <point x="300" y="-135" type="curve" smooth="yes"/>
      <point x="339" y="-135"/>
      <point x="362" y="-116"/>
      <point x="362" y="-83" type="curve" smooth="yes"/>
      <point x="362" y="-44"/>
      <point x="334" y="-15"/>
      <point x="267" y="-15" type="curve" smooth="yes"/>
      <point x="259" y="-15"/>
      <point x="259" y="-15"/>
      <point x="249" y="-16" type="curve"/>
      <point x="249" y="14" type="line"/>
      <point x="261" y="15"/>
      <point x="262" y="15"/>
      <point x="273" y="15" type="curve" smooth="yes"/>
      <point x="290" y="15"/>
      <point x="305" y="13"/>
      <point x="322" y="13" type="curve" smooth="yes"/>
      <point x="420" y="13"/>
      <point x="471" y="87"/>
      <point x="471" y="162" type="curve" smooth="yes"/>
      <point x="471" y="248"/>
      <point x="408" y="322"/>
      <point x="285" y="322" type="curve" smooth="yes"/>
      <point x="174" y="322"/>
      <point x="108" y="273"/>
      <point x="108" y="190" type="curve" smooth="yes"/>
      <point x="108" y="144"/>
      <point x="150" y="83"/>
      <point x="236" y="83" type="curve" smooth="yes"/>
      <point x="275" y="83"/>
      <point x="310" y="92"/>
      <point x="326" y="111" type="curve"/>
      <point x="315" y="102"/>
      <point x="299" y="98"/>
      <point x="285" y="98" type="curve" smooth="yes"/>
      <point x="241" y="98"/>
      <point x="206" y="133"/>
      <point x="206" y="173" type="curve" smooth="yes"/>
      <point x="206" y="219"/>
      <point x="240" y="255"/>
      <point x="286" y="255" type="curve" smooth="yes"/>
      <point x="344" y="255"/>
      <point x="378" y="218"/>
      <point x="378" y="164" type="curve" smooth="yes"/>
      <point x="378" y="84"/>
      <point x="310" y="54"/>
      <point x="220" y="54" type="curve" smooth="yes"/>
      <point x="113" y="54"/>
      <point x="33" y="117"/>
    </contour>
    <contour>
      <point x="238" y="176" type="curve" smooth="yes"/>
      <point x="238" y="148"/>
      <point x="261" y="127"/>
      <point x="288" y="127" type="curve" smooth="yes"/>
      <point x="316" y="127"/>
      <point x="338" y="149"/>
      <point x="338" y="176" type="curve" smooth="yes"/>
      <point x="338" y="204"/>
      <point x="315" y="225"/>
      <point x="288" y="225" type="curve" smooth="yes"/>
      <point x="260" y="225"/>
      <point x="238" y="203"/>
    </contour>
  </outline>
</glyph>
<glyph name="si_U" format="1">
  <advance width="635"/>
  <unicode hex="0D8B"/>
  <outline>
    <contour>
      <point x="31" y="97" type="curve" smooth="yes"/>
      <point x="31" y="205"/>
      <point x="118" y="289"/>
      <point x="258" y="289" type="curve" smooth="yes"/>
      <point x="492" y="289" type="line"/>
      <point x="489" y="338"/>
      <point x="445" y="374"/>
      <point x="406" y="374" type="curve" smooth="yes"/>
      <point x="386" y="374"/>
      <point x="367" y="368"/>
      <point x="354" y="346" type="curve" smooth="yes"/>
      <point x="347" y="334"/>
      <point x="332" y="316"/>
      <point x="306" y="316" type="curve" smooth="yes"/>
      <point x="275" y="316"/>
      <point x="261" y="337"/>
      <point x="261" y="356" type="curve" smooth="yes"/>
      <point x="261" y="400"/>
      <point x="305" y="421"/>
      <point x="367" y="421" type="curve" smooth="yes"/>
      <point x="458" y="421"/>
      <point x="526" y="362"/>
      <point x="526" y="270" type="curve" smooth="yes"/>
      <point x="526" y="268"/>
      <point x="526" y="264"/>
      <point x="526" y="262" type="curve"/>
      <point x="347" y="262" type="line" smooth="yes"/>
      <point x="226" y="262"/>
      <point x="183" y="205"/>
      <point x="183" y="114" type="curve" smooth="yes"/>
      <point x="183" y="-23"/>
      <point x="273" y="-96"/>
      <point x="385" y="-96" type="curve" smooth="yes"/>
      <point x="465" y="-96"/>
      <point x="558" y="-34"/>
      <point x="558" y="67" type="curve"/>
      <point x="589" y="67" type="line"/>
      <point x="589" y="-63"/>
      <point x="468" y="-157"/>
      <point x="320" y="-157" type="curve" smooth="yes"/>
      <point x="173" y="-157"/>
      <point x="31" y="-60"/>
    </contour>
  </outline>
</glyph>
<glyph name="si_vocalicR" format="1">
  <advance width="873"/>
  <unicode hex="0D8D"/>
  <outline>
    <contour>
      <point x="30" y="150" type="curve" smooth="yes"/>
      <point x="30" y="223"/>
      <point x="69" y="309"/>
      <point x="199" y="309" type="curve" smooth="yes"/>
      <point x="215" y="309"/>
      <point x="240" y="306"/>
      <point x="254" y="303" type="curve"/>
      <point x="254" y="305"/>
      <point x="254" y="304"/>
      <point x="254" y="306" type="curve" smooth="yes"/>
      <point x="254" y="347"/>
      <point x="222" y="380"/>
      <point x="192" y="380" type="curve" smooth="yes"/>
      <point x="155" y="380"/>
      <point x="147" y="360"/>
      <point x="142" y="344" type="curve" smooth="yes"/>
      <point x="136" y="325"/>
      <point x="121" y="313"/>
      <point x="97" y="313" type="curve" smooth="yes"/>
      <point x="77" y="313"/>
      <point x="60" y="326"/>
      <point x="60" y="351" type="curve" smooth="yes"/>
      <point x="60" y="395"/>
      <point x="109" y="421"/>
      <point x="163" y="421" type="curve" smooth="yes"/>
      <point x="249" y="421"/>
      <point x="286" y="360"/>
      <point x="286" y="289" type="curve" smooth="yes"/>
      <point x="286" y="286"/>
      <point x="286" y="280"/>
      <point x="286" y="273" type="curve"/>
      <point x="253" y="279"/>
      <point x="225" y="281"/>
      <point x="197" y="281" type="curve" smooth="yes"/>
      <point x="142" y="281"/>
      <point x="96" y="260"/>
      <point x="96" y="208" type="curve" smooth="yes"/>
      <point x="96" y="173"/>
      <point x="129" y="137"/>
      <point x="200" y="137" type="curve" smooth="yes"/>
      <point x="254" y="137"/>
      <point x="294" y="153"/>
      <point x="294" y="193" type="curve" smooth="yes"/>
      <point x="294" y="209" type="line"/>
      <point x="320" y="209" type="line"/>
      <point x="320" y="193" type="line" smooth="yes"/>
      <point x="320" y="153"/>
      <point x="354" y="137"/>
      <point x="414" y="137" type="curve" smooth="yes"/>
      <point x="485" y="137"/>
      <point x="528" y="164"/>
      <point x="528" y="212" type="curve" smooth="yes"/>
      <point x="528" y="244"/>
      <point x="508" y="281"/>
      <point x="420" y="281" type="curve" smooth="yes"/>
      <point x="389" y="281"/>
      <point x="362" y="279"/>
      <point x="325" y="272" type="curve"/>
      <point x="325" y="276"/>
      <point x="325" y="280"/>
      <point x="325" y="284" type="curve" smooth="yes"/>
      <point x="325" y="366"/>
      <point x="371" y="422"/>
      <point x="445" y="422" type="curve" smooth="yes"/>
      <point x="498" y="422"/>
      <point x="546" y="399"/>
      <point x="546" y="342" type="curve" smooth="yes"/>
      <point x="546" y="321"/>
      <point x="530" y="298"/>
      <point x="518" y="291" type="curve"/>
      <point x="567" y="269"/>
      <point x="594" y="216"/>
      <point x="594" y="162" type="curve" smooth="yes"/>
      <point x="594" y="57"/>
      <point x="526" y="0"/>
      <point x="430" y="0" type="curve" smooth="yes"/>
      <point x="367" y="0"/>
      <point x="325" y="30"/>
      <point x="306" y="80" type="curve"/>
      <point x="285" y="29"/>
      <point x="245" y="-1"/>
      <point x="179" y="-1" type="curve" smooth="yes"/>
      <point x="86" y="-1"/>
      <point x="30" y="74"/>
    </contour>
    <contour>
      <point x="356" y="303" type="curve"/>
      <point x="367" y="306"/>
      <point x="392" y="309"/>
      <point x="415" y="309" type="curve" smooth="yes"/>
      <point x="448" y="309"/>
      <point x="469" y="307"/>
      <point x="490" y="300" type="curve"/>
      <point x="498" y="308"/>
      <point x="504" y="320"/>
      <point x="504" y="334" type="curve" smooth="yes"/>
      <point x="504" y="361"/>
      <point x="475" y="376"/>
      <point x="439" y="376" type="curve" smooth="yes"/>
      <point x="389" y="376"/>
      <point x="360" y="349"/>
    </contour>
    <component base="si_MatraR" xOffset="569"/>
  </outline>
</glyph>
<glyph name="si_vocalicRr" format="1">
  <advance width="1140"/>
  <unicode hex="0D8E"/>
  <outline>
    <contour>
      <point x="31" y="154" type="curve" smooth="yes"/>
      <point x="31" y="228.589"/>
      <point x="70.4703" y="316"/>
      <point x="203.5" y="316" type="curve" smooth="yes"/>
      <point x="219.646" y="316"/>
      <point x="245.821" y="313.495"/>
      <point x="260" y="310" type="curve"/>
      <point x="260.082" y="312.041"/>
      <point x="260.086" y="311.041"/>
      <point x="260.086" y="313" type="curve" smooth="yes"/>
      <point x="260.086" y="355.183"/>
      <point x="226.924" y="388.75"/>
      <point x="196.5" y="388.75" type="curve" smooth="yes"/>
      <point x="158.484" y="388.75"/>
      <point x="150.5" y="368.5"/>
      <point x="145" y="352.5" type="curve" smooth="yes"/>
      <point x="138.451" y="333.448"/>
      <point x="124.167" y="321"/>
      <point x="99.75" y="321" type="curve" smooth="yes"/>
      <point x="79.1436" y="321"/>
      <point x="61.5" y="333.368"/>
      <point x="61.5" y="359" type="curve" smooth="yes"/>
      <point x="61.5" y="404.195"/>
      <point x="112" y="431.5"/>
      <point x="167" y="431.5" type="curve" smooth="yes"/>
      <point x="255" y="431.5"/>
      <point x="293.146" y="369"/>
      <point x="293.146" y="296" type="curve" smooth="yes"/>
      <point x="293.146" y="292.722"/>
      <point x="293.069" y="286.456"/>
      <point x="293" y="279.25" type="curve"/>
      <point x="259.298" y="285.735"/>
      <point x="230.667" y="288"/>
      <point x="201.75" y="288" type="curve" smooth="yes"/>
      <point x="145.224" y="288"/>
      <point x="98" y="266.474"/>
      <point x="98" y="213" type="curve" smooth="yes"/>
      <point x="98" y="176.825"/>
      <point x="131.995" y="140"/>
      <point x="205" y="140" type="curve" smooth="yes"/>
      <point x="260.765" y="140"/>
      <point x="301" y="156.653"/>
      <point x="301" y="197.5" type="curve" smooth="yes"/>
      <point x="301" y="213.75" type="line"/>
      <point x="328" y="213.75" type="line"/>
      <point x="328" y="197.5" type="line" smooth="yes"/>
      <point x="328" y="156.602"/>
      <point x="362.237" y="140"/>
      <point x="423.5" y="140" type="curve" smooth="yes"/>
      <point x="495.775" y="140"/>
      <point x="541" y="168.034"/>
      <point x="541" y="217" type="curve" smooth="yes"/>
      <point x="541" y="249.401"/>
      <point x="519.76" y="288"/>
      <point x="430" y="288" type="curve" smooth="yes"/>
      <point x="398" y="288"/>
      <point x="371" y="286"/>
      <point x="333" y="279" type="curve"/>
      <point x="332.814" y="282.706"/>
      <point x="332.717" y="287.374"/>
      <point x="332.717" y="291" type="curve" smooth="yes"/>
      <point x="332.717" y="375"/>
      <point x="380.574" y="432"/>
      <point x="456" y="432" type="curve" smooth="yes"/>
      <point x="510" y="432"/>
      <point x="559" y="408"/>
      <point x="559" y="350" type="curve" smooth="yes"/>
      <point x="559" y="328.667"/>
      <point x="543.111" y="305.043"/>
      <point x="530.5" y="297.75" type="curve"/>
      <point x="580.433" y="275.626"/>
      <point x="608" y="221.082"/>
      <point x="608" y="166" type="curve" smooth="yes"/>
      <point x="608" y="58"/>
      <point x="538" y="0"/>
      <point x="440" y="0" type="curve" smooth="yes"/>
      <point x="375.333" y="0"/>
      <point x="332" y="31"/>
      <point x="313" y="82" type="curve"/>
      <point x="292" y="30"/>
      <point x="251" y="-1"/>
      <point x="183" y="-1" type="curve" smooth="yes"/>
      <point x="88" y="-1"/>
      <point x="31" y="76"/>
    </contour>
    <contour>
      <point x="365" y="310" type="curve"/>
      <point x="376" y="313"/>
      <point x="401" y="316"/>
      <point x="425" y="316" type="curve" smooth="yes"/>
      <point x="459" y="316"/>
      <point x="480" y="314.25"/>
      <point x="502" y="307.25" type="curve"/>
      <point x="510.512" y="315.827"/>
      <point x="516.5" y="328.051"/>
      <point x="516.5" y="342.5" type="curve" smooth="yes"/>
      <point x="516.5" y="370.602"/>
      <point x="486.478" y="384.75"/>
      <point x="450" y="384.75" type="curve" smooth="yes"/>
      <point x="398" y="384.75"/>
      <point x="368.589" y="355.908"/>
    </contour>
    <component base="si_MatraR" xOffset="835"/>
    <component base="si_MatraR" xOffset="583"/>
  </outline>
</glyph>
<glyph name="si_Ee" format="1">
  <advance width="581"/>
  <unicode hex="0D92"/>
  <outline>
    <contour>
      <point x="430" y="434" type="line"/>
      <point x="430" y="678" type="line"/>
      <point x="483" y="637"/>
      <point x="578" y="632"/>
      <point x="578" y="542" type="curve" smooth="yes"/>
      <point x="578" y="499"/>
      <point x="544" y="470"/>
      <point x="502" y="470" type="curve" smooth="yes"/>
      <point x="488" y="470"/>
      <point x="473" y="472"/>
      <point x="458" y="479" type="curve"/>
      <point x="458" y="417" type="line"/>
    </contour>
    <contour>
      <point x="458" y="505" type="line"/>
      <point x="466" y="501"/>
      <point x="477" y="498"/>
      <point x="490" y="498" type="curve" smooth="yes"/>
      <point x="521" y="498"/>
      <point x="534" y="522"/>
      <point x="534" y="545" type="curve" smooth="yes"/>
      <point x="534" y="585"/>
      <point x="503" y="604"/>
      <point x="458" y="634" type="curve"/>
    </contour>
    <contour>
      <point x="44" y="161" type="curve" smooth="yes"/>
      <point x="44" y="191"/>
      <point x="53" y="222"/>
      <point x="76" y="242" type="curve" smooth="yes"/>
      <point x="92" y="256"/>
      <point x="111" y="266"/>
      <point x="136" y="271" type="curve"/>
      <point x="169" y="283"/>
      <point x="203" y="295"/>
      <point x="239" y="295" type="curve" smooth="yes"/>
      <point x="249" y="295" type="line"/>
      <point x="249" y="297"/>
      <point x="249" y="299"/>
      <point x="249" y="301" type="curve" smooth="yes"/>
      <point x="249" y="341"/>
      <point x="224" y="374"/>
      <point x="188" y="374" type="curve" smooth="yes"/>
      <point x="166" y="374"/>
      <point x="149" y="357"/>
      <point x="144" y="341" type="curve" smooth="yes"/>
      <point x="137" y="319"/>
      <point x="125" y="308"/>
      <point x="100" y="308" type="curve" smooth="yes"/>
      <point x="82" y="308"/>
      <point x="62" y="320"/>
      <point x="62" y="345" type="curve" smooth="yes"/>
      <point x="62" y="391"/>
      <point x="106" y="416"/>
      <point x="160" y="416" type="curve" smooth="yes"/>
      <point x="246" y="416"/>
      <point x="282" y="354"/>
      <point x="282" y="283" type="curve" smooth="yes"/>
      <point x="282" y="280"/>
      <point x="282" y="272"/>
      <point x="282" y="269" type="curve"/>
      <point x="228" y="269" type="line" smooth="yes"/>
      <point x="185" y="269"/>
      <point x="155" y="261"/>
      <point x="132" y="247" type="curve" smooth="yes"/>
      <point x="116" y="237"/>
      <point x="105" y="222"/>
      <point x="105" y="202" type="curve" smooth="yes"/>
      <point x="105" y="145"/>
      <point x="194" y="137"/>
      <point x="272" y="137" type="curve" smooth="yes"/>
      <point x="421" y="137"/>
      <point x="484" y="205"/>
      <point x="484" y="294" type="curve" smooth="yes"/>
      <point x="484" y="343"/>
      <point x="473" y="361"/>
      <point x="460" y="383" type="curve"/>
      <point x="445" y="353"/>
      <point x="416" y="333"/>
      <point x="374" y="333" type="curve" smooth="yes"/>
      <point x="312" y="333"/>
      <point x="276" y="387"/>
      <point x="276" y="451" type="curve" smooth="yes"/>
      <point x="276" y="500"/>
      <point x="291" y="536"/>
      <point x="317" y="566" type="curve"/>
      <point x="377" y="534"/>
      <point x="446" y="464"/>
      <point x="481" y="403" type="curve" smooth="yes"/>
      <point x="519" y="338"/>
      <point x="532" y="307"/>
      <point x="532" y="239" type="curve" smooth="yes"/>
      <point x="532" y="114"/>
      <point x="449" y="0"/>
      <point x="270" y="0" type="curve" smooth="yes"/>
      <point x="152" y="0"/>
      <point x="44" y="45"/>
    </contour>
    <contour>
      <point x="16" y="262" type="curve"/>
      <point x="16" y="295" type="line"/>
      <point x="247" y="295" type="line"/>
      <point x="278" y="269" type="line"/>
      <point x="126" y="269" type="line" smooth="yes"/>
      <point x="57" y="268"/>
      <point x="32" y="265"/>
    </contour>
    <contour>
      <point x="310" y="459" type="curve" smooth="yes"/>
      <point x="310" y="411"/>
      <point x="342" y="379"/>
      <point x="385" y="379" type="curve" smooth="yes"/>
      <point x="404" y="379"/>
      <point x="428" y="389"/>
      <point x="438" y="413" type="curve"/>
      <point x="409" y="456"/>
      <point x="363" y="500"/>
      <point x="326" y="527" type="curve"/>
      <point x="318" y="510"/>
      <point x="310" y="488"/>
    </contour>
  </outline>
</glyph>
<glyph name="si_Os" format="1">
  <advance width="636"/>
  <unicode hex="0D94"/>
  <outline>
    <contour>
      <point x="274.94" y="361" type="curve" smooth="yes"/>
      <point x="274.94" y="335.52"/>
      <point x="295.52" y="314.94"/>
      <point x="321" y="314.94" type="curve" smooth="yes"/>
      <point x="346.48" y="314.94"/>
      <point x="367.06" y="335.52"/>
      <point x="367.06" y="361" type="curve" smooth="yes"/>
      <point x="367.06" y="386.48"/>
      <point x="346.48" y="407.06"/>
      <point x="321" y="407.06" type="curve" smooth="yes"/>
      <point x="295.52" y="407.06"/>
      <point x="274.94" y="386.48"/>
    </contour>
    <contour>
      <point x="30" y="224" type="curve" smooth="yes"/>
      <point x="30" y="332"/>
      <point x="74" y="431.5"/>
      <point x="148" y="431.5" type="curve" smooth="yes"/>
      <point x="167.007" y="431.5"/>
      <point x="175" y="428"/>
      <point x="182" y="423" type="curve" smooth="yes"/>
      <point x="192.609" y="415.422"/>
      <point x="200.873" y="401"/>
      <point x="200.873" y="371" type="curve" smooth="yes"/>
      <point x="200.873" y="357"/>
      <point x="201" y="340.015"/>
      <point x="201" y="337" type="curve" smooth="yes"/>
      <point x="201" y="284"/>
      <point x="240" y="256"/>
      <point x="295" y="256" type="curve" smooth="yes"/>
      <point x="348" y="256"/>
      <point x="389" y="281"/>
      <point x="389" y="326" type="curve" smooth="yes"/>
      <point x="389" y="327"/>
      <point x="389" y="329"/>
      <point x="388" y="331" type="curve"/>
      <point x="383" y="316"/>
      <point x="362" y="285"/>
      <point x="318" y="285" type="curve" smooth="yes"/>
      <point x="271.344" y="285"/>
      <point x="243" y="322"/>
      <point x="243" y="360" type="curve" smooth="yes"/>
      <point x="243" y="402"/>
      <point x="274" y="434"/>
      <point x="322" y="434" type="curve" smooth="yes"/>
      <point x="384" y="434"/>
      <point x="420" y="389"/>
      <point x="420" y="330" type="curve" smooth="yes"/>
      <point x="420" y="265"/>
      <point x="367" y="225"/>
      <point x="296" y="225" type="curve" smooth="yes"/>
      <point x="222" y="225"/>
      <point x="170" y="264"/>
      <point x="170" y="339" type="curve" smooth="yes"/>
      <point x="170" y="344.22"/>
      <point x="170.275" y="362.935"/>
      <point x="170.275" y="372" type="curve" smooth="yes"/>
      <point x="170.275" y="392"/>
      <point x="164" y="403"/>
      <point x="145" y="403" type="curve" smooth="yes"/>
      <point x="98" y="403"/>
      <point x="74" y="329"/>
      <point x="74" y="279" type="curve" smooth="yes"/>
      <point x="74" y="198"/>
      <point x="126" y="138"/>
      <point x="204" y="138" type="curve" smooth="yes"/>
      <point x="273" y="138"/>
      <point x="291" y="171.667"/>
      <point x="291" y="205" type="curve" smooth="yes"/>
      <point x="291" y="208" type="line"/>
      <point x="319" y="208" type="line"/>
      <point x="319" y="204" type="line" smooth="yes"/>
      <point x="319" y="171"/>
      <point x="342" y="139"/>
      <point x="403" y="139" type="curve" smooth="yes"/>
      <point x="498.559" y="139"/>
      <point x="531" y="230"/>
      <point x="531" y="323" type="curve" smooth="yes"/>
      <point x="531" y="437"/>
      <point x="458" y="553"/>
      <point x="298" y="553" type="curve" smooth="yes"/>
      <point x="199" y="553"/>
      <point x="142" y="522"/>
      <point x="96" y="466" type="curve"/>
      <point x="62" y="466" type="line"/>
      <point x="107" y="531"/>
      <point x="173" y="579"/>
      <point x="300" y="579" type="curve" smooth="yes"/>
      <point x="488" y="579"/>
      <point x="590" y="431.115"/>
      <point x="590" y="254" type="curve" smooth="yes"/>
      <point x="590" y="126.501"/>
      <point x="543" y="0"/>
      <point x="406" y="0" type="curve" smooth="yes"/>
      <point x="365" y="0"/>
      <point x="321" y="16"/>
      <point x="305" y="55" type="curve"/>
      <point x="283" y="15"/>
      <point x="246" y="0"/>
      <point x="196" y="0" type="curve" smooth="yes"/>
      <point x="78" y="0"/>
      <point x="30" y="127"/>
    </contour>
  </outline>
</glyph>
<glyph name="si_Oo" format="1">
  <advance width="621"/>
  <unicode hex="0D95"/>
  <outline>
    <contour>
      <point x="141" y="525" type="curve" smooth="yes"/>
      <point x="141" y="513"/>
      <point x="159" y="514"/>
      <point x="159" y="503" type="curve" smooth="yes"/>
      <point x="159" y="501"/>
      <point x="158" y="498"/>
      <point x="156" y="496" type="curve"/>
      <point x="188" y="502"/>
      <point x="227" y="507"/>
      <point x="272" y="507" type="curve" smooth="yes"/>
      <point x="377" y="507"/>
      <point x="461" y="477"/>
      <point x="515" y="415" type="curve"/>
      <point x="483" y="523"/>
      <point x="390" y="561"/>
      <point x="277" y="561" type="curve" smooth="yes"/>
      <point x="207" y="561"/>
      <point x="141" y="544"/>
    </contour>
    <contour>
      <point x="41" y="430" type="curve"/>
      <point x="41" y="462" type="line"/>
      <point x="72" y="474"/>
      <point x="121" y="487"/>
      <point x="121" y="496" type="curve" smooth="yes"/>
      <point x="121" y="508"/>
      <point x="93" y="508"/>
      <point x="93" y="533" type="curve" smooth="yes"/>
      <point x="93" y="569"/>
      <point x="159" y="614"/>
      <point x="271" y="614" type="curve" smooth="yes"/>
      <point x="474" y="614"/>
      <point x="547" y="479"/>
      <point x="559" y="348" type="curve"/>
      <point x="568" y="326"/>
      <point x="576" y="288"/>
      <point x="576" y="244" type="curve"/>
      <point x="520" y="280" type="line"/>
      <point x="520" y="288"/>
      <point x="520" y="284"/>
      <point x="520" y="288" type="curve" smooth="yes"/>
      <point x="520" y="401"/>
      <point x="435" y="480"/>
      <point x="270" y="480" type="curve" smooth="yes"/>
      <point x="196" y="480"/>
      <point x="120" y="467"/>
    </contour>
    <contour>
      <point x="268" y="353" type="curve" smooth="yes"/>
      <point x="268" y="328"/>
      <point x="288" y="308"/>
      <point x="313" y="308" type="curve" smooth="yes"/>
      <point x="338" y="308"/>
      <point x="358" y="328"/>
      <point x="358" y="353" type="curve" smooth="yes"/>
      <point x="358" y="378"/>
      <point x="338" y="398"/>
      <point x="313" y="398" type="curve" smooth="yes"/>
      <point x="288" y="398"/>
      <point x="268" y="378"/>
    </contour>
    <contour>
      <point x="29" y="219" type="curve" smooth="yes"/>
      <point x="29" y="324"/>
      <point x="73" y="421"/>
      <point x="145" y="421" type="curve" smooth="yes"/>
      <point x="164" y="421"/>
      <point x="171" y="418"/>
      <point x="178" y="413" type="curve" smooth="yes"/>
      <point x="188" y="406"/>
      <point x="196" y="391"/>
      <point x="196" y="362" type="curve" smooth="yes"/>
      <point x="196" y="348"/>
      <point x="196" y="332"/>
      <point x="196" y="329" type="curve" smooth="yes"/>
      <point x="196" y="277"/>
      <point x="234" y="250"/>
      <point x="288" y="250" type="curve" smooth="yes"/>
      <point x="340" y="250"/>
      <point x="380" y="274"/>
      <point x="380" y="318" type="curve" smooth="yes"/>
      <point x="380" y="319"/>
      <point x="380" y="321"/>
      <point x="379" y="323" type="curve"/>
      <point x="374" y="308"/>
      <point x="354" y="278"/>
      <point x="311" y="278" type="curve" smooth="yes"/>
      <point x="265" y="278"/>
      <point x="237" y="315"/>
      <point x="237" y="352" type="curve" smooth="yes"/>
      <point x="237" y="393"/>
      <point x="267" y="424"/>
      <point x="314" y="424" type="curve" smooth="yes"/>
      <point x="375" y="424"/>
      <point x="410" y="380"/>
      <point x="410" y="322" type="curve" smooth="yes"/>
      <point x="410" y="259"/>
      <point x="358" y="220"/>
      <point x="289" y="220" type="curve" smooth="yes"/>
      <point x="217" y="220"/>
      <point x="166" y="258"/>
      <point x="166" y="331" type="curve" smooth="yes"/>
      <point x="166" y="336"/>
      <point x="166" y="354"/>
      <point x="166" y="363" type="curve" smooth="yes"/>
      <point x="166" y="383"/>
      <point x="161" y="394"/>
      <point x="142" y="394" type="curve" smooth="yes"/>
      <point x="96" y="394"/>
      <point x="72" y="321"/>
      <point x="72" y="272" type="curve" smooth="yes"/>
      <point x="72" y="193"/>
      <point x="123" y="135"/>
      <point x="199" y="135" type="curve" smooth="yes"/>
      <point x="266" y="135"/>
      <point x="284" y="167"/>
      <point x="284" y="200" type="curve" smooth="yes"/>
      <point x="284" y="203" type="line"/>
      <point x="312" y="203" type="line"/>
      <point x="312" y="199" type="line" smooth="yes"/>
      <point x="312" y="167"/>
      <point x="334" y="136"/>
      <point x="394" y="136" type="curve" smooth="yes"/>
      <point x="487" y="136"/>
      <point x="520" y="214"/>
      <point x="520" y="293" type="curve"/>
      <point x="537" y="275"/>
      <point x="554" y="283"/>
      <point x="576" y="248" type="curve"/>
      <point x="576" y="123"/>
      <point x="530" y="0"/>
      <point x="396" y="0" type="curve" smooth="yes"/>
      <point x="356" y="0"/>
      <point x="314" y="16"/>
      <point x="298" y="54" type="curve"/>
      <point x="277" y="15"/>
      <point x="240" y="0"/>
      <point x="191" y="0" type="curve" smooth="yes"/>
      <point x="76" y="0"/>
      <point x="29" y="124"/>
    </contour>
  </outline>
</glyph>
<glyph name="si_Ka" format="1">
  <advance width="728"/>
  <unicode hex="0D9A"/>
  <outline>
    <contour>
      <point x="21" y="21" type="line"/>
      <point x="29" y="89"/>
      <point x="72" y="180"/>
      <point x="106" y="227" type="curve" smooth="yes"/>
      <point x="131" y="262"/>
      <point x="145" y="274"/>
      <point x="167" y="297" type="curve"/>
      <point x="176" y="307"/>
      <point x="188" y="323"/>
      <point x="188" y="344" type="curve" smooth="yes"/>
      <point x="188" y="363"/>
      <point x="177" y="377"/>
      <point x="154" y="377" type="curve" smooth="yes"/>
      <point x="140" y="377"/>
      <point x="125" y="369"/>
      <point x="121" y="354" type="curve" smooth="yes"/>
      <point x="115" y="333"/>
      <point x="119" y="334"/>
      <point x="110" y="315" type="curve" smooth="yes"/>
      <point x="102" y="298"/>
      <point x="85" y="290"/>
      <point x="70" y="290" type="curve" smooth="yes"/>
      <point x="34" y="290"/>
      <point x="28" y="320"/>
      <point x="28" y="332" type="curve" smooth="yes"/>
      <point x="28" y="385"/>
      <point x="78" y="423"/>
      <point x="133" y="423" type="curve" smooth="yes"/>
      <point x="184" y="423"/>
      <point x="215" y="390"/>
      <point x="215" y="350" type="curve" smooth="yes"/>
      <point x="215" y="344"/>
      <point x="215" y="341"/>
      <point x="214" y="333" type="curve"/>
      <point x="272" y="387"/>
      <point x="357" y="424"/>
      <point x="442" y="424" type="curve" smooth="yes"/>
      <point x="588" y="424"/>
      <point x="685" y="321"/>
      <point x="685" y="188" type="curve" smooth="yes"/>
      <point x="685" y="108"/>
      <point x="644" y="0"/>
      <point x="540" y="-1" type="curve" smooth="yes"/>
      <point x="530" y="-1"/>
      <point x="509" y="1"/>
      <point x="492" y="12" type="curve"/>
      <point x="492" y="39" type="line"/>
      <point x="506" y="32"/>
      <point x="518" y="29"/>
      <point x="530" y="29" type="curve" smooth="yes"/>
      <point x="570" y="29"/>
      <point x="583" y="75"/>
      <point x="583" y="120" type="curve" smooth="yes"/>
      <point x="583" y="281"/>
      <point x="458" y="340"/>
      <point x="350" y="340" type="curve" smooth="yes"/>
      <point x="288" y="340"/>
      <point x="238" y="322"/>
      <point x="209" y="297" type="curve"/>
      <point x="238" y="305"/>
      <point x="271" y="307"/>
      <point x="298" y="307" type="curve" smooth="yes"/>
      <point x="415" y="307"/>
      <point x="503" y="244"/>
      <point x="503" y="123" type="curve" smooth="yes"/>
      <point x="503" y="66"/>
      <point x="471" y="-1"/>
      <point x="388" y="-1" type="curve" smooth="yes"/>
      <point x="343" y="-1"/>
      <point x="310" y="20"/>
      <point x="289" y="62" type="curve"/>
      <point x="272" y="22"/>
      <point x="240" y="-1"/>
      <point x="199" y="-1" type="curve" smooth="yes"/>
      <point x="114" y="-1"/>
      <point x="117" y="71"/>
      <point x="85" y="71" type="curve" smooth="yes"/>
      <point x="63" y="71"/>
      <point x="51" y="50"/>
      <point x="48" y="11" type="curve"/>
    </contour>
    <contour>
      <point x="89" y="140" type="curve"/>
      <point x="101" y="150"/>
      <point x="112" y="156"/>
      <point x="126" y="156" type="curve" smooth="yes"/>
      <point x="157" y="156"/>
      <point x="168" y="137"/>
      <point x="207" y="137" type="curve" smooth="yes"/>
      <point x="252" y="137"/>
      <point x="273" y="153"/>
      <point x="273" y="209" type="curve" smooth="yes"/>
      <point x="273" y="211"/>
      <point x="273" y="209"/>
      <point x="273" y="211" type="curve"/>
      <point x="301" y="211" type="line"/>
      <point x="301" y="210"/>
      <point x="301" y="211"/>
      <point x="301" y="210" type="curve" smooth="yes"/>
      <point x="301" y="150"/>
      <point x="324" y="137"/>
      <point x="368" y="137" type="curve" smooth="yes"/>
      <point x="408" y="137"/>
      <point x="433" y="165"/>
      <point x="433" y="199" type="curve" smooth="yes"/>
      <point x="433" y="240"/>
      <point x="393" y="280"/>
      <point x="294" y="280" type="curve" smooth="yes"/>
      <point x="239" y="280"/>
      <point x="200" y="274"/>
      <point x="176" y="262" type="curve"/>
      <point x="159" y="248"/>
      <point x="143" y="229"/>
      <point x="128" y="207" type="curve" smooth="yes"/>
      <point x="102" y="168"/>
      <point x="99" y="160"/>
    </contour>
  </outline>
</glyph>
<glyph name="si_Nga" format="1">
  <advance width="602"/>
  <unicode hex="0D9E"/>
  <outline>
    <contour>
      <point x="87" y="338" type="curve" smooth="yes"/>
      <point x="87" y="312"/>
      <point x="110" y="291"/>
      <point x="138" y="291" type="curve" smooth="yes"/>
      <point x="166" y="291"/>
      <point x="189" y="312"/>
      <point x="189" y="338" type="curve" smooth="yes"/>
      <point x="189" y="364"/>
      <point x="166" y="385"/>
      <point x="138" y="385" type="curve" smooth="yes"/>
      <point x="110" y="385"/>
      <point x="87" y="364"/>
    </contour>
    <contour>
      <point x="45" y="457" type="line"/>
      <point x="103" y="531"/>
      <point x="179" y="568"/>
      <point x="274" y="568" type="curve" smooth="yes"/>
      <point x="430" y="568"/>
      <point x="557" y="435"/>
      <point x="557" y="254" type="curve" smooth="yes"/>
      <point x="557" y="111"/>
      <point x="504" y="0"/>
      <point x="406" y="0" type="curve" smooth="yes"/>
      <point x="346" y="0"/>
      <point x="322" y="21"/>
      <point x="291" y="58" type="curve"/>
      <point x="261" y="20"/>
      <point x="228" y="0"/>
      <point x="184" y="0" type="curve" smooth="yes"/>
      <point x="104" y="0"/>
      <point x="50" y="59"/>
      <point x="50" y="137" type="curve" smooth="yes"/>
      <point x="50" y="207"/>
      <point x="106" y="253"/>
      <point x="175" y="253" type="curve" smooth="yes"/>
      <point x="210" y="253"/>
      <point x="239" y="247"/>
      <point x="273" y="247" type="curve" smooth="yes"/>
      <point x="318" y="247"/>
      <point x="333" y="270"/>
      <point x="333" y="302" type="curve" smooth="yes"/>
      <point x="333" y="372"/>
      <point x="257" y="400"/>
      <point x="209" y="400" type="curve" smooth="yes"/>
      <point x="195" y="400"/>
      <point x="188" y="399"/>
      <point x="180" y="398" type="curve"/>
      <point x="199" y="388"/>
      <point x="217" y="371"/>
      <point x="217" y="337" type="curve" smooth="yes"/>
      <point x="217" y="302"/>
      <point x="185" y="265"/>
      <point x="138" y="265" type="curve" smooth="yes"/>
      <point x="98" y="265"/>
      <point x="59" y="296"/>
      <point x="59" y="338" type="curve" smooth="yes"/>
      <point x="59" y="393"/>
      <point x="117" y="424"/>
      <point x="203" y="424" type="curve" smooth="yes"/>
      <point x="304" y="424"/>
      <point x="363" y="370"/>
      <point x="363" y="299" type="curve" smooth="yes"/>
      <point x="363" y="259"/>
      <point x="340" y="218"/>
      <point x="274" y="218" type="curve" smooth="yes"/>
      <point x="234" y="218"/>
      <point x="219" y="225"/>
      <point x="177" y="225" type="curve" smooth="yes"/>
      <point x="129" y="225"/>
      <point x="115" y="200"/>
      <point x="115" y="184" type="curve" smooth="yes"/>
      <point x="115" y="159"/>
      <point x="139" y="137"/>
      <point x="196" y="137" type="curve" smooth="yes"/>
      <point x="223" y="137"/>
      <point x="277" y="139"/>
      <point x="277" y="186" type="curve" smooth="yes"/>
      <point x="277" y="191" type="line"/>
      <point x="304" y="191" type="line"/>
      <point x="304" y="186" type="line" smooth="yes"/>
      <point x="304" y="141"/>
      <point x="345" y="137"/>
      <point x="377" y="137" type="curve" smooth="yes"/>
      <point x="449" y="137"/>
      <point x="485" y="204"/>
      <point x="485" y="308" type="curve" smooth="yes"/>
      <point x="485" y="416"/>
      <point x="414" y="542"/>
      <point x="271" y="542" type="curve" smooth="yes"/>
      <point x="194" y="542"/>
      <point x="130" y="514"/>
      <point x="78" y="457" type="curve"/>
    </contour>
  </outline>
</glyph>
<glyph name="si_Nnga" format="1">
  <advance width="749"/>
  <unicode hex="0D9F"/>
  <outline>
    <contour>
      <point x="151" y="207" type="curve" smooth="yes"/>
      <point x="151" y="330"/>
      <point x="226" y="432"/>
      <point x="337" y="432" type="curve" smooth="yes"/>
      <point x="341" y="432"/>
      <point x="346" y="431"/>
      <point x="350" y="431" type="curve"/>
      <point x="350" y="405" type="line"/>
      <point x="347" y="405"/>
      <point x="342" y="405"/>
      <point x="339" y="405" type="curve" smooth="yes"/>
      <point x="255" y="405"/>
      <point x="205" y="329"/>
      <point x="205" y="258" type="curve" smooth="yes"/>
      <point x="205" y="186"/>
      <point x="259" y="140"/>
      <point x="328" y="140" type="curve" smooth="yes"/>
      <point x="387" y="140"/>
      <point x="411" y="164"/>
      <point x="411" y="191" type="curve" smooth="yes"/>
      <point x="411" y="216"/>
      <point x="393" y="220"/>
      <point x="386" y="220" type="curve" smooth="yes"/>
      <point x="375" y="220"/>
      <point x="368" y="217"/>
      <point x="363" y="214" type="curve"/>
      <point x="362" y="208"/>
      <point x="361" y="197"/>
      <point x="361" y="194" type="curve"/>
      <point x="333" y="194" type="line"/>
      <point x="342" y="321"/>
      <point x="405" y="432"/>
      <point x="527" y="432" type="curve" smooth="yes"/>
      <point x="639" y="432"/>
      <point x="703" y="332"/>
      <point x="703" y="217" type="curve" smooth="yes"/>
      <point x="703" y="95"/>
      <point x="617" y="-1"/>
      <point x="486" y="-1" type="curve" smooth="yes"/>
      <point x="476" y="-1"/>
      <point x="466" y="-0"/>
      <point x="455" y="1" type="curve"/>
      <point x="455" y="29" type="line"/>
      <point x="463" y="28"/>
      <point x="471" y="27"/>
      <point x="479" y="27" type="curve" smooth="yes"/>
      <point x="583" y="27"/>
      <point x="615" y="110"/>
      <point x="615" y="175" type="curve" smooth="yes"/>
      <point x="615" y="255"/>
      <point x="578" y="320"/>
      <point x="480" y="320" type="curve" smooth="yes"/>
      <point x="409" y="320"/>
      <point x="374" y="277"/>
      <point x="367" y="241" type="curve"/>
      <point x="373" y="244"/>
      <point x="380" y="246"/>
      <point x="387" y="246" type="curve" smooth="yes"/>
      <point x="437" y="246"/>
      <point x="469" y="202"/>
      <point x="469" y="136" type="curve" smooth="yes"/>
      <point x="469" y="56"/>
      <point x="412" y="-2"/>
      <point x="325" y="-2" type="curve" smooth="yes"/>
      <point x="214" y="-2"/>
      <point x="151" y="96"/>
    </contour>
    <contour>
      <point x="27" y="221" type="curve" smooth="yes"/>
      <point x="27" y="353"/>
      <point x="100" y="433"/>
      <point x="239" y="433" type="curve" smooth="yes"/>
      <point x="248" y="433"/>
      <point x="317" y="432"/>
      <point x="344" y="432" type="curve"/>
      <point x="323" y="420"/>
      <point x="265" y="412"/>
      <point x="256" y="407" type="curve"/>
      <point x="172" y="407"/>
      <point x="59" y="380"/>
      <point x="59" y="218" type="curve" smooth="yes"/>
      <point x="59" y="137"/>
      <point x="86" y="78"/>
      <point x="135" y="34" type="curve"/>
      <point x="135" y="0" type="line"/>
      <point x="69" y="33"/>
      <point x="27" y="120"/>
    </contour>
  </outline>
</glyph>
<glyph name="si_Nnga" format="1">
  <advance width="731"/>
  <unicode hex="0D9F"/>
  <outline>
    <contour>
      <point x="147" y="202" type="curve" smooth="yes"/>
      <point x="147" y="322"/>
      <point x="221" y="421"/>
      <point x="329" y="421" type="curve" smooth="yes"/>
      <point x="333" y="421"/>
      <point x="338" y="421"/>
      <point x="342" y="421" type="curve"/>
      <point x="342" y="396" type="line"/>
      <point x="339" y="396"/>
      <point x="334" y="396"/>
      <point x="331" y="396" type="curve" smooth="yes"/>
      <point x="249" y="396"/>
      <point x="200" y="321"/>
      <point x="200" y="252" type="curve" smooth="yes"/>
      <point x="200" y="182"/>
      <point x="253" y="137"/>
      <point x="320" y="137" type="curve" smooth="yes"/>
      <point x="378" y="137"/>
      <point x="401" y="161"/>
      <point x="401" y="187" type="curve" smooth="yes"/>
      <point x="401" y="211"/>
      <point x="384" y="215"/>
      <point x="377" y="215" type="curve" smooth="yes"/>
      <point x="366" y="215"/>
      <point x="359" y="212"/>
      <point x="354" y="209" type="curve"/>
      <point x="353" y="203"/>
      <point x="353" y="192"/>
      <point x="353" y="189" type="curve"/>
      <point x="325" y="189" type="line"/>
      <point x="334" y="313"/>
      <point x="396" y="421"/>
      <point x="515" y="421" type="curve" smooth="yes"/>
      <point x="624" y="421"/>
      <point x="687" y="324"/>
      <point x="687" y="212" type="curve" smooth="yes"/>
      <point x="687" y="93"/>
      <point x="603" y="-1"/>
      <point x="475" y="-1" type="curve" smooth="yes"/>
      <point x="465" y="-1"/>
      <point x="454" y="0"/>
      <point x="444" y="1" type="curve"/>
      <point x="444" y="28" type="line"/>
      <point x="452" y="27"/>
      <point x="460" y="26"/>
      <point x="468" y="26" type="curve" smooth="yes"/>
      <point x="570" y="26"/>
      <point x="601" y="108"/>
      <point x="601" y="171" type="curve" smooth="yes"/>
      <point x="601" y="249"/>
      <point x="565" y="312"/>
      <point x="469" y="312" type="curve" smooth="yes"/>
      <point x="400" y="312"/>
      <point x="365" y="270"/>
      <point x="358" y="235" type="curve"/>
      <point x="364" y="238"/>
      <point x="371" y="240"/>
      <point x="378" y="240" type="curve" smooth="yes"/>
      <point x="427" y="240"/>
      <point x="458" y="197"/>
      <point x="458" y="133" type="curve" smooth="yes"/>
      <point x="458" y="55"/>
      <point x="402" y="-2"/>
      <point x="317" y="-2" type="curve" smooth="yes"/>
      <point x="209" y="-2"/>
      <point x="147" y="94"/>
    </contour>
    <contour>
      <point x="26" y="216" type="curve" smooth="yes"/>
      <point x="26" y="345"/>
      <point x="97" y="423"/>
      <point x="233" y="423" type="curve" smooth="yes"/>
      <point x="242" y="423"/>
      <point x="310" y="422"/>
      <point x="336" y="421" type="curve"/>
      <point x="315" y="410"/>
      <point x="259" y="402"/>
      <point x="250" y="397" type="curve"/>
      <point x="168" y="397"/>
      <point x="58" y="371"/>
      <point x="58" y="213" type="curve" smooth="yes"/>
      <point x="58" y="134"/>
      <point x="84" y="76"/>
      <point x="132" y="33" type="curve"/>
      <point x="132" y="0" type="line"/>
      <point x="67" y="32"/>
      <point x="26" y="117"/>
    </contour>
  </outline>
</glyph>
<glyph name="si_Ca" format="1">
  <advance width="583"/>
  <unicode hex="0DA0"/>
  <outline>
    <contour>
      <point x="62" y="161" type="curve" smooth="yes"/>
      <point x="62" y="191"/>
      <point x="72" y="222"/>
      <point x="95" y="242" type="curve" smooth="yes"/>
      <point x="111" y="256"/>
      <point x="129" y="266"/>
      <point x="154" y="271" type="curve"/>
      <point x="187" y="283"/>
      <point x="228" y="295"/>
      <point x="264" y="295" type="curve" smooth="yes"/>
      <point x="277" y="295" type="line"/>
      <point x="277" y="297"/>
      <point x="277" y="299"/>
      <point x="277" y="301" type="curve" smooth="yes"/>
      <point x="277" y="350"/>
      <point x="246" y="380"/>
      <point x="215" y="380" type="curve" smooth="yes"/>
      <point x="182" y="380"/>
      <point x="169" y="363"/>
      <point x="164" y="347" type="curve" smooth="yes"/>
      <point x="158" y="328"/>
      <point x="146" y="312"/>
      <point x="118" y="312" type="curve" smooth="yes"/>
      <point x="98" y="312"/>
      <point x="81" y="326"/>
      <point x="81" y="351" type="curve" smooth="yes"/>
      <point x="81" y="397"/>
      <point x="130" y="421"/>
      <point x="184" y="421" type="curve" smooth="yes"/>
      <point x="270" y="421"/>
      <point x="312" y="367"/>
      <point x="312" y="283" type="curve" smooth="yes"/>
      <point x="312" y="280"/>
      <point x="312" y="271"/>
      <point x="312" y="268" type="curve"/>
      <point x="265" y="268" type="line" smooth="yes"/>
      <point x="211" y="268"/>
      <point x="179" y="260"/>
      <point x="157" y="248" type="curve" smooth="yes"/>
      <point x="129" y="234"/>
      <point x="125" y="215"/>
      <point x="125" y="202" type="curve" smooth="yes"/>
      <point x="125" y="154"/>
      <point x="203" y="137"/>
      <point x="291" y="137" type="curve" smooth="yes"/>
      <point x="440" y="137"/>
      <point x="505" y="213"/>
      <point x="505" y="321" type="curve" smooth="yes"/>
      <point x="505" y="431"/>
      <point x="427" y="538"/>
      <point x="296" y="538" type="curve" smooth="yes"/>
      <point x="219" y="538"/>
      <point x="159" y="510"/>
      <point x="116" y="459" type="curve"/>
      <point x="82" y="459" type="line"/>
      <point x="130" y="527"/>
      <point x="200" y="563"/>
      <point x="296" y="563" type="curve" smooth="yes"/>
      <point x="452" y="563"/>
      <point x="562" y="433"/>
      <point x="562" y="268" type="curve" smooth="yes"/>
      <point x="562" y="112"/>
      <point x="467" y="0"/>
      <point x="288" y="0" type="curve" smooth="yes"/>
      <point x="170" y="0"/>
      <point x="62" y="45"/>
    </contour>
    <contour>
      <point x="13" y="261" type="curve"/>
      <point x="13" y="295" type="line"/>
      <point x="275" y="295" type="line"/>
      <point x="308" y="268" type="line"/>
      <point x="145" y="268" type="line" smooth="yes"/>
      <point x="76" y="267"/>
      <point x="29" y="264"/>
    </contour>
  </outline>
</glyph>
<glyph name="si_Cha" format="1">
  <advance width="583"/>
  <unicode hex="0DA1"/>
  <outline>
    <contour>
      <point x="32" y="166" type="curve" smooth="yes"/>
      <point x="32" y="243"/>
      <point x="94" y="305"/>
      <point x="203" y="305" type="curve" smooth="yes"/>
      <point x="207" y="305"/>
      <point x="216" y="305"/>
      <point x="220" y="304" type="curve"/>
      <point x="221" y="311"/>
      <point x="222" y="315"/>
      <point x="222" y="322" type="curve" smooth="yes"/>
      <point x="222" y="355"/>
      <point x="206" y="375"/>
      <point x="179" y="375" type="curve" smooth="yes"/>
      <point x="158" y="375"/>
      <point x="147" y="368"/>
      <point x="140" y="353" type="curve" smooth="yes"/>
      <point x="129" y="330"/>
      <point x="117" y="313"/>
      <point x="91" y="313" type="curve" smooth="yes"/>
      <point x="72" y="313"/>
      <point x="52" y="327"/>
      <point x="52" y="352" type="curve" smooth="yes"/>
      <point x="52" y="400"/>
      <point x="99" y="422"/>
      <point x="145" y="422" type="curve" smooth="yes"/>
      <point x="210" y="422"/>
      <point x="252" y="384"/>
      <point x="252" y="318" type="curve" smooth="yes"/>
      <point x="252" y="306"/>
      <point x="251" y="292"/>
      <point x="248" y="279" type="curve"/>
      <point x="240" y="280"/>
      <point x="233" y="281"/>
      <point x="224" y="281" type="curve" smooth="yes"/>
      <point x="108" y="281"/>
      <point x="91" y="232"/>
      <point x="91" y="212" type="curve" smooth="yes"/>
      <point x="91" y="153"/>
      <point x="185" y="134"/>
      <point x="285" y="134" type="curve" smooth="yes"/>
      <point x="389" y="134"/>
      <point x="479" y="151"/>
      <point x="479" y="205" type="curve" smooth="yes"/>
      <point x="479" y="238"/>
      <point x="459" y="280"/>
      <point x="347" y="280" type="curve" smooth="yes"/>
      <point x="326" y="280"/>
      <point x="291" y="277"/>
      <point x="277" y="276" type="curve"/>
      <point x="275" y="283"/>
      <point x="272" y="301"/>
      <point x="272" y="312" type="curve" smooth="yes"/>
      <point x="272" y="392"/>
      <point x="328" y="425"/>
      <point x="396" y="425" type="curve" smooth="yes"/>
      <point x="466" y="425"/>
      <point x="520" y="379"/>
      <point x="520" y="302" type="curve" smooth="yes"/>
      <point x="520" y="261"/>
      <point x="494" y="182"/>
      <point x="423" y="182" type="curve" smooth="yes"/>
      <point x="364" y="182"/>
      <point x="340" y="227"/>
      <point x="340" y="286" type="curve" smooth="yes"/>
      <point x="340" y="402"/>
      <point x="374" y="499"/>
      <point x="424" y="556" type="curve" smooth="yes"/>
      <point x="458" y="594"/>
      <point x="492" y="603"/>
      <point x="518" y="603" type="curve" smooth="yes"/>
      <point x="545" y="603"/>
      <point x="560" y="588"/>
      <point x="560" y="570" type="curve" smooth="yes"/>
      <point x="560" y="518"/>
      <point x="489" y="547"/>
      <point x="432" y="479" type="curve" smooth="yes"/>
      <point x="399" y="440"/>
      <point x="369" y="382"/>
      <point x="369" y="285" type="curve" smooth="yes"/>
      <point x="369" y="247"/>
      <point x="379" y="209"/>
      <point x="425" y="209" type="curve" smooth="yes"/>
      <point x="467" y="209"/>
      <point x="490" y="265"/>
      <point x="490" y="300" type="curve" smooth="yes"/>
      <point x="490" y="364"/>
      <point x="454" y="398"/>
      <point x="393" y="398" type="curve" smooth="yes"/>
      <point x="350" y="398"/>
      <point x="301" y="377"/>
      <point x="301" y="316" type="curve" smooth="yes"/>
      <point x="301" y="311"/>
      <point x="301" y="307"/>
      <point x="302" y="303" type="curve"/>
      <point x="309" y="304"/>
      <point x="326" y="305"/>
      <point x="342" y="305" type="curve" smooth="yes"/>
      <point x="379" y="305"/>
      <point x="424" y="302"/>
      <point x="462" y="284" type="curve" smooth="yes"/>
      <point x="505" y="264"/>
      <point x="536" y="223"/>
      <point x="536" y="164" type="curve" smooth="yes"/>
      <point x="536" y="44"/>
      <point x="414" y="0"/>
      <point x="291" y="0" type="curve" smooth="yes"/>
      <point x="156" y="0"/>
      <point x="32" y="43"/>
    </contour>
  </outline>
</glyph>
<glyph name="si_Ndja" format="1">
  <advance width="682"/>
  <unicode hex="0DA6"/>
  <outline>
    <contour>
      <point x="131" y="166" type="curve" smooth="yes"/>
      <point x="131" y="243"/>
      <point x="193" y="305"/>
      <point x="302" y="305" type="curve" smooth="yes"/>
      <point x="320" y="305"/>
      <point x="318" y="305"/>
      <point x="326" y="304" type="curve"/>
      <point x="327" y="311"/>
      <point x="328" y="316"/>
      <point x="328" y="323" type="curve" smooth="yes"/>
      <point x="328" y="345"/>
      <point x="317" y="377"/>
      <point x="281" y="377" type="curve" smooth="yes"/>
      <point x="260" y="377"/>
      <point x="245" y="361"/>
      <point x="238" y="346" type="curve" smooth="yes"/>
      <point x="227" y="323"/>
      <point x="215" y="312"/>
      <point x="193" y="312" type="curve" smooth="yes"/>
      <point x="169" y="312"/>
      <point x="153" y="327"/>
      <point x="153" y="352" type="curve" smooth="yes"/>
      <point x="153" y="400"/>
      <point x="203" y="422"/>
      <point x="249" y="422" type="curve" smooth="yes"/>
      <point x="314" y="422"/>
      <point x="358" y="384"/>
      <point x="358" y="318" type="curve" smooth="yes"/>
      <point x="358" y="306"/>
      <point x="357" y="291"/>
      <point x="354" y="278" type="curve"/>
      <point x="342" y="279"/>
      <point x="331" y="280"/>
      <point x="322" y="280" type="curve" smooth="yes"/>
      <point x="206" y="280"/>
      <point x="191" y="236"/>
      <point x="191" y="210" type="curve" smooth="yes"/>
      <point x="191" y="153"/>
      <point x="284" y="137"/>
      <point x="384" y="137" type="curve" smooth="yes"/>
      <point x="488" y="137"/>
      <point x="572" y="157"/>
      <point x="572" y="215" type="curve" smooth="yes"/>
      <point x="572" y="238"/>
      <point x="557" y="281"/>
      <point x="445" y="281" type="curve" smooth="yes"/>
      <point x="424" y="281"/>
      <point x="406" y="279"/>
      <point x="392" y="278" type="curve"/>
      <point x="387" y="294"/>
      <point x="385" y="309"/>
      <point x="385" y="323" type="curve" smooth="yes"/>
      <point x="385" y="399"/>
      <point x="441" y="424"/>
      <point x="508" y="424" type="curve" smooth="yes"/>
      <point x="548" y="424"/>
      <point x="606" y="403"/>
      <point x="606" y="345" type="curve" smooth="yes"/>
      <point x="606" y="317"/>
      <point x="589" y="278"/>
      <point x="526" y="278" type="curve" smooth="yes"/>
      <point x="473" y="278"/>
      <point x="453" y="323"/>
      <point x="453" y="360" type="curve" smooth="yes"/>
      <point x="453" y="449"/>
      <point x="496" y="523"/>
      <point x="539" y="563" type="curve" smooth="yes"/>
      <point x="568" y="590"/>
      <point x="600" y="604"/>
      <point x="619" y="604" type="curve" smooth="yes"/>
      <point x="647" y="604"/>
      <point x="653" y="586"/>
      <point x="653" y="573" type="curve" smooth="yes"/>
      <point x="653" y="542"/>
      <point x="608" y="534"/>
      <point x="552" y="495" type="curve" smooth="yes"/>
      <point x="521" y="474"/>
      <point x="481" y="425"/>
      <point x="481" y="361" type="curve" smooth="yes"/>
      <point x="481" y="329"/>
      <point x="498" y="304"/>
      <point x="527" y="304" type="curve" smooth="yes"/>
      <point x="555" y="304"/>
      <point x="576" y="321"/>
      <point x="576" y="347" type="curve" smooth="yes"/>
      <point x="576" y="379"/>
      <point x="547" y="396"/>
      <point x="504" y="396" type="curve" smooth="yes"/>
      <point x="435" y="396"/>
      <point x="415" y="365"/>
      <point x="415" y="326" type="curve" smooth="yes"/>
      <point x="415" y="319"/>
      <point x="416" y="311"/>
      <point x="418" y="302" type="curve"/>
      <point x="426" y="303"/>
      <point x="433" y="304"/>
      <point x="446" y="304" type="curve" smooth="yes"/>
      <point x="535" y="304"/>
      <point x="635" y="276"/>
      <point x="635" y="164" type="curve" smooth="yes"/>
      <point x="635" y="44"/>
      <point x="513" y="0"/>
      <point x="390" y="0" type="curve" smooth="yes"/>
      <point x="255" y="0"/>
      <point x="131" y="43"/>
    </contour>
    <contour>
      <point x="26" y="216" type="curve" smooth="yes"/>
      <point x="26" y="345"/>
      <point x="97" y="423"/>
      <point x="233" y="423" type="curve" smooth="yes"/>
      <point x="242" y="423"/>
      <point x="265" y="423"/>
      <point x="286" y="417" type="curve"/>
      <point x="265" y="406"/>
      <point x="191" y="395"/>
      <point x="174" y="389" type="curve"/>
      <point x="104" y="372"/>
      <point x="58" y="312"/>
      <point x="58" y="213" type="curve" smooth="yes"/>
      <point x="58" y="134"/>
      <point x="84" y="76"/>
      <point x="132" y="33" type="curve"/>
      <point x="132" y="0" type="line"/>
      <point x="67" y="32"/>
      <point x="26" y="117"/>
    </contour>
  </outline>
</glyph>
<glyph name="si_Dda" format="1">
  <advance width="631"/>
  <unicode hex="0DA9"/>
  <outline>
    <contour>
      <point x="15" y="278" type="line"/>
      <point x="15" y="308" type="line"/>
      <point x="252" y="308" type="line"/>
      <point x="250" y="342"/>
      <point x="225" y="379"/>
      <point x="192" y="379" type="curve" smooth="yes"/>
      <point x="183" y="379"/>
      <point x="165" y="379"/>
      <point x="150" y="352" type="curve" smooth="yes"/>
      <point x="140" y="334"/>
      <point x="126" y="327"/>
      <point x="110" y="327" type="curve" smooth="yes"/>
      <point x="87" y="327"/>
      <point x="71" y="342"/>
      <point x="71" y="364" type="curve" smooth="yes"/>
      <point x="71" y="403"/>
      <point x="118" y="422"/>
      <point x="159" y="422" type="curve" smooth="yes"/>
      <point x="236" y="422"/>
      <point x="288" y="375"/>
      <point x="288" y="278" type="curve"/>
      <point x="219" y="278" type="line" smooth="yes"/>
      <point x="128" y="278"/>
      <point x="107" y="228"/>
      <point x="107" y="205" type="curve" smooth="yes"/>
      <point x="107" y="160"/>
      <point x="146" y="137"/>
      <point x="198" y="137" type="curve" smooth="yes"/>
      <point x="260" y="137"/>
      <point x="290" y="157"/>
      <point x="290" y="195" type="curve" smooth="yes"/>
      <point x="290" y="216" type="line"/>
      <point x="320" y="216" type="line"/>
      <point x="320" y="195" type="line" smooth="yes"/>
      <point x="320" y="160"/>
      <point x="344" y="137"/>
      <point x="404" y="137" type="curve" smooth="yes"/>
      <point x="477" y="137"/>
      <point x="527" y="195"/>
      <point x="527" y="286" type="curve" smooth="yes"/>
      <point x="527" y="412"/>
      <point x="449" y="542"/>
      <point x="291" y="542" type="curve" smooth="yes"/>
      <point x="212" y="542"/>
      <point x="150" y="510"/>
      <point x="106" y="457" type="curve"/>
      <point x="71" y="457" type="line"/>
      <point x="124" y="533"/>
      <point x="205" y="568"/>
      <point x="297" y="568" type="curve" smooth="yes"/>
      <point x="467" y="568"/>
      <point x="584" y="433"/>
      <point x="584" y="252" type="curve" smooth="yes"/>
      <point x="584" y="107"/>
      <point x="535" y="0"/>
      <point x="418" y="0" type="curve" smooth="yes"/>
      <point x="355" y="0"/>
      <point x="327" y="28"/>
      <point x="306" y="58" type="curve"/>
      <point x="277" y="22"/>
      <point x="244" y="0"/>
      <point x="194" y="0" type="curve" smooth="yes"/>
      <point x="95" y="0"/>
      <point x="45" y="79"/>
      <point x="45" y="158" type="curve" smooth="yes"/>
      <point x="45" y="207"/>
      <point x="69" y="255"/>
      <point x="122" y="278" type="curve"/>
    </contour>
  </outline>
</glyph>
<glyph name="si_Ddha" format="1">
  <advance width="647"/>
  <unicode hex="0DAA"/>
  <outline>
    <contour>
      <point x="15" y="285" type="line"/>
      <point x="15" y="315" type="line"/>
      <point x="256" y="315" type="line"/>
      <point x="255" y="354"/>
      <point x="229" y="388.268"/>
      <point x="197" y="388.268" type="curve" smooth="yes"/>
      <point x="188" y="388.268"/>
      <point x="169.203" y="387.365"/>
      <point x="154" y="360" type="curve" smooth="yes"/>
      <point x="144" y="342"/>
      <point x="129" y="335.264"/>
      <point x="113" y="335.264" type="curve" smooth="yes"/>
      <point x="89" y="335.264"/>
      <point x="73.2109" y="351"/>
      <point x="73.2109" y="373.122" type="curve" smooth="yes"/>
      <point x="73.2109" y="413"/>
      <point x="121.101" y="432.167"/>
      <point x="163.279" y="432.167" type="curve" smooth="yes"/>
      <point x="242" y="432.167"/>
      <point x="293" y="382"/>
      <point x="293" y="285" type="curve"/>
      <point x="224" y="285" type="line" smooth="yes"/>
      <point x="130.957" y="285"/>
      <point x="109.392" y="234"/>
      <point x="109.392" y="210" type="curve" smooth="yes"/>
      <point x="109.392" y="164"/>
      <point x="149.99" y="140"/>
      <point x="203" y="140" type="curve" smooth="yes"/>
      <point x="267" y="140"/>
      <point x="297" y="161"/>
      <point x="297" y="200" type="curve" smooth="yes"/>
      <point x="297" y="221" type="line"/>
      <point x="328" y="221" type="line"/>
      <point x="328" y="200" type="line" smooth="yes"/>
      <point x="328" y="164"/>
      <point x="353" y="140"/>
      <point x="414" y="140" type="curve" smooth="yes"/>
      <point x="489" y="140"/>
      <point x="537.144" y="200"/>
      <point x="537.144" y="293.218" type="curve" smooth="yes"/>
      <point x="537.144" y="336.219"/>
      <point x="525.755" y="377.127"/>
      <point x="508.313" y="413.661" type="curve"/>
      <point x="491.339" y="388.064"/>
      <point x="464.799" y="363"/>
      <point x="422" y="363" type="curve" smooth="yes"/>
      <point x="356" y="363"/>
      <point x="318" y="411"/>
      <point x="318" y="477" type="curve" smooth="yes"/>
      <point x="318" y="541"/>
      <point x="348" y="586"/>
      <point x="359" y="603" type="curve"/>
      <point x="473" y="558"/>
      <point x="597.987" y="402"/>
      <point x="597.987" y="256.222" type="curve" smooth="yes"/>
      <point x="597.987" y="110"/>
      <point x="547.007" y="-0.0251312"/>
      <point x="427.656" y="-0.0251312" type="curve" smooth="yes"/>
      <point x="363.028" y="-0.0251312"/>
      <point x="334.63" y="28.5207"/>
      <point x="313" y="59" type="curve"/>
      <point x="283.406" y="21.6861"/>
      <point x="250" y="0"/>
      <point x="199" y="0" type="curve" smooth="yes"/>
      <point x="97.9838" y="0"/>
      <point x="45.8805" y="81.1903"/>
      <point x="45.8805" y="162" type="curve" smooth="yes"/>
      <point x="45.8805" y="212"/>
      <point x="71.0488" y="261.198"/>
      <point x="125" y="285" type="curve"/>
    </contour>
    <contour>
      <point x="350" y="481" type="curve" smooth="yes"/>
      <point x="350" y="424"/>
      <point x="378" y="396"/>
      <point x="424" y="396" type="curve" smooth="yes"/>
      <point x="454.905" y="396"/>
      <point x="477.873" y="420.143"/>
      <point x="491.29" y="445.028" type="curve"/>
      <point x="456.37" y="502.289"/>
      <point x="408.576" y="544.996"/>
      <point x="374" y="562" type="curve"/>
      <point x="361" y="547"/>
      <point x="350" y="510"/>
    </contour>
  </outline>
</glyph>
<glyph name="si_Nna" format="1">
  <advance width="940"/>
  <unicode hex="0DAB"/>
  <outline>
    <contour>
      <point x="21" y="174" type="line"/>
      <point x="226" y="315"/>
      <point x="494" y="442"/>
      <point x="645" y="489" type="curve" smooth="yes"/>
      <point x="704" y="507"/>
      <point x="744" y="516"/>
      <point x="786" y="516" type="curve" smooth="yes"/>
      <point x="824" y="516"/>
      <point x="843" y="495"/>
      <point x="843" y="474" type="curve" smooth="yes"/>
      <point x="843" y="459"/>
      <point x="834" y="437"/>
      <point x="800" y="434" type="curve" smooth="yes"/>
      <point x="766" y="431"/>
      <point x="664" y="423"/>
      <point x="586" y="406" type="curve" smooth="yes"/>
      <point x="405" y="367"/>
      <point x="241" y="281"/>
      <point x="113" y="201" type="curve"/>
      <point x="173" y="201"/>
      <point x="190" y="126"/>
      <point x="329" y="126" type="curve" smooth="yes"/>
      <point x="444" y="126"/>
      <point x="480" y="200"/>
      <point x="480" y="264" type="curve" smooth="yes"/>
      <point x="480" y="309"/>
      <point x="450" y="395"/>
      <point x="347" y="395" type="curve" smooth="yes"/>
      <point x="265" y="395"/>
      <point x="197" y="357"/>
      <point x="197" y="290" type="curve" smooth="yes"/>
      <point x="197" y="217"/>
      <point x="261" y="194"/>
      <point x="314" y="194" type="curve"/>
      <point x="396" y="189" type="line"/>
      <point x="375" y="175"/>
      <point x="353" y="166"/>
      <point x="313" y="166" type="curve" smooth="yes"/>
      <point x="226" y="166"/>
      <point x="166" y="212"/>
      <point x="166" y="285" type="curve" smooth="yes"/>
      <point x="166" y="375"/>
      <point x="247" y="423"/>
      <point x="351" y="423" type="curve" smooth="yes"/>
      <point x="430" y="423"/>
      <point x="570" y="381"/>
      <point x="570" y="208" type="curve" smooth="yes"/>
      <point x="570" y="111"/>
      <point x="507" y="0"/>
      <point x="356" y="0" type="curve" smooth="yes"/>
      <point x="163" y="0"/>
      <point x="176" y="175"/>
      <point x="97" y="175" type="curve" smooth="yes"/>
      <point x="70" y="175"/>
      <point x="53" y="162"/>
      <point x="32" y="148" type="curve"/>
    </contour>
    <contour>
      <point x="259" y="258" type="curve" smooth="yes"/>
      <point x="259" y="305"/>
      <point x="298" y="343"/>
      <point x="345" y="343" type="curve" smooth="yes"/>
      <point x="392" y="343"/>
      <point x="430" y="305"/>
      <point x="430" y="258" type="curve" smooth="yes"/>
      <point x="430" y="211"/>
      <point x="392" y="172"/>
      <point x="345" y="172" type="curve" smooth="yes"/>
      <point x="298" y="172"/>
      <point x="259" y="211"/>
    </contour>
    <contour>
      <point x="289" y="258" type="curve" smooth="yes"/>
      <point x="289" y="228"/>
      <point x="314" y="203"/>
      <point x="344" y="203" type="curve" smooth="yes"/>
      <point x="374" y="203"/>
      <point x="399" y="228"/>
      <point x="399" y="258" type="curve" smooth="yes"/>
      <point x="399" y="288"/>
      <point x="374" y="313"/>
      <point x="344" y="313" type="curve" smooth="yes"/>
      <point x="314" y="313"/>
      <point x="289" y="288"/>
    </contour>
    <contour>
      <point x="536" y="157" type="curve" smooth="yes"/>
      <point x="536" y="224"/>
      <point x="578" y="279"/>
      <point x="630" y="279" type="curve" smooth="yes"/>
      <point x="662" y="279"/>
      <point x="686" y="268"/>
      <point x="702" y="246" type="curve"/>
      <point x="706" y="294"/>
      <point x="734" y="340"/>
      <point x="793" y="340" type="curve" smooth="yes"/>
      <point x="861" y="340"/>
      <point x="894" y="258"/>
      <point x="894" y="164" type="curve" smooth="yes"/>
      <point x="894" y="71"/>
      <point x="862" y="-1"/>
      <point x="781" y="-1" type="curve" smooth="yes"/>
      <point x="730" y="-1"/>
      <point x="702" y="32"/>
      <point x="697" y="66" type="curve"/>
      <point x="681" y="46"/>
      <point x="658" y="36"/>
      <point x="630" y="36" type="curve" smooth="yes"/>
      <point x="578" y="36"/>
      <point x="536" y="90"/>
    </contour>
    <contour>
      <point x="565" y="158" type="curve" smooth="yes"/>
      <point x="565" y="108"/>
      <point x="593" y="68"/>
      <point x="628" y="68" type="curve" smooth="yes"/>
      <point x="668" y="68"/>
      <point x="692" y="104"/>
      <point x="692" y="158" type="curve" smooth="yes"/>
      <point x="692" y="215"/>
      <point x="671" y="249"/>
      <point x="628" y="249" type="curve" smooth="yes"/>
      <point x="593" y="249"/>
      <point x="565" y="208"/>
    </contour>
    <contour>
      <point x="719" y="103" type="curve" smooth="yes"/>
      <point x="719" y="57"/>
      <point x="750" y="49"/>
      <point x="760" y="49" type="curve" smooth="yes"/>
      <point x="795" y="49"/>
      <point x="802" y="93"/>
      <point x="802" y="165" type="curve" smooth="yes"/>
      <point x="802" y="239"/>
      <point x="791" y="279"/>
      <point x="762" y="279" type="curve" smooth="yes"/>
      <point x="738" y="279"/>
      <point x="725" y="247"/>
      <point x="722" y="187" type="curve" smooth="yes"/>
      <point x="723" y="178"/>
      <point x="724" y="167"/>
      <point x="724" y="157" type="curve" smooth="yes"/>
      <point x="724" y="141"/>
      <point x="722" y="126"/>
      <point x="719" y="113" type="curve" smooth="yes"/>
      <point x="719" y="110"/>
      <point x="719" y="107"/>
    </contour>
  </outline>
</glyph>
<glyph name="si_Tha" format="1">
  <advance width="614"/>
  <unicode hex="0DAE"/>
  <outline>
    <contour>
      <point x="33" y="235" type="curve" smooth="yes"/>
      <point x="33" y="344.829"/>
      <point x="134" y="430"/>
      <point x="245" y="430" type="curve"/>
      <point x="245" y="403" type="line"/>
      <point x="162" y="403"/>
      <point x="87" y="347"/>
      <point x="87" y="265" type="curve" smooth="yes"/>
      <point x="87" y="169"/>
      <point x="191" y="140"/>
      <point x="305" y="140" type="curve" smooth="yes"/>
      <point x="427" y="140"/>
      <point x="514" y="213"/>
      <point x="514" y="317" type="curve" smooth="yes"/>
      <point x="514" y="351"/>
      <point x="509" y="380"/>
      <point x="492" y="417" type="curve"/>
      <point x="477.333" y="384.333"/>
      <point x="448" y="367"/>
      <point x="405" y="367" type="curve" smooth="yes"/>
      <point x="341.845" y="367"/>
      <point x="305" y="422"/>
      <point x="305" y="488" type="curve" smooth="yes"/>
      <point x="305" y="538"/>
      <point x="320" y="574"/>
      <point x="347" y="605" type="curve"/>
      <point x="408" y="572"/>
      <point x="478.965" y="500.242"/>
      <point x="515" y="438" type="curve" smooth="yes"/>
      <point x="553.783" y="371.012"/>
      <point x="566" y="322"/>
      <point x="566" y="252" type="curve" smooth="yes"/>
      <point x="566" y="102.631"/>
      <point x="450" y="-1"/>
      <point x="295" y="-1" type="curve" smooth="yes"/>
      <point x="150.697" y="-1"/>
      <point x="33" y="92.0605"/>
    </contour>
    <contour>
      <point x="337" y="492" type="curve" smooth="yes"/>
      <point x="337" y="442.667"/>
      <point x="355" y="405"/>
      <point x="412" y="405" type="curve" smooth="yes"/>
      <point x="436" y="405"/>
      <point x="460.764" y="414.141"/>
      <point x="471" y="448" type="curve"/>
      <point x="441" y="494"/>
      <point x="395" y="536"/>
      <point x="357" y="564" type="curve"/>
      <point x="345" y="546"/>
      <point x="337" y="526.667"/>
    </contour>
  </outline>
</glyph>
<glyph name="si_Da" format="1">
  <advance width="445"/>
  <unicode hex="0DAF"/>
  <outline>
    <contour>
      <point x="30" y="165" type="curve" smooth="yes"/>
      <point x="30" y="268"/>
      <point x="102" y="310"/>
      <point x="218" y="310" type="curve" smooth="yes"/>
      <point x="332" y="310" type="line"/>
      <point x="323" y="355"/>
      <point x="294" y="381"/>
      <point x="262" y="381" type="curve" smooth="yes"/>
      <point x="243" y="381"/>
      <point x="229" y="370"/>
      <point x="221" y="353" type="curve" smooth="yes"/>
      <point x="211" y="332"/>
      <point x="194" y="325"/>
      <point x="175" y="325" type="curve" smooth="yes"/>
      <point x="151" y="325"/>
      <point x="133" y="341"/>
      <point x="133" y="362" type="curve" smooth="yes"/>
      <point x="133" y="397"/>
      <point x="173" y="423"/>
      <point x="227" y="423" type="curve" smooth="yes"/>
      <point x="311" y="423"/>
      <point x="353" y="379"/>
      <point x="370" y="284" type="curve"/>
      <point x="310" y="284" type="line" smooth="yes"/>
      <point x="224" y="284"/>
      <point x="180" y="251"/>
      <point x="180" y="169" type="curve" smooth="yes"/>
      <point x="180" y="87"/>
      <point x="231" y="43"/>
      <point x="279" y="43" type="curve" smooth="yes"/>
      <point x="309" y="43"/>
      <point x="333" y="47"/>
      <point x="372" y="92" type="curve"/>
      <point x="397" y="73" type="line"/>
      <point x="367" y="38"/>
      <point x="327" y="-16"/>
      <point x="327" y="-90" type="curve" smooth="yes"/>
      <point x="327" y="-131"/>
      <point x="339" y="-182"/>
      <point x="399" y="-201" type="curve"/>
      <point x="399" y="-232" type="line"/>
      <point x="379" y="-237"/>
      <point x="358" y="-240"/>
      <point x="341" y="-240" type="curve" smooth="yes"/>
      <point x="262" y="-240"/>
      <point x="229" y="-189"/>
      <point x="229" y="-133" type="curve" smooth="yes"/>
      <point x="229" y="-77"/>
      <point x="261" y="-39"/>
      <point x="308" y="8" type="curve"/>
      <point x="283" y="1"/>
      <point x="256" y="-1"/>
      <point x="229" y="-1" type="curve" smooth="yes"/>
      <point x="101" y="-1"/>
      <point x="30" y="67"/>
    </contour>
  </outline>
</glyph>
<glyph name="uni0DAF" format="1">
  <advance width="456"/>
  <unicode hex="0DAF"/>
  <outline>
    <contour>
      <point x="31" y="169" type="curve" smooth="yes"/>
      <point x="31" y="274"/>
      <point x="104" y="317"/>
      <point x="223" y="317" type="curve" smooth="yes"/>
      <point x="340" y="317" type="line"/>
      <point x="331" y="363"/>
      <point x="301" y="390"/>
      <point x="268" y="390" type="curve" smooth="yes"/>
      <point x="249" y="390"/>
      <point x="235" y="379"/>
      <point x="226" y="361" type="curve" smooth="yes"/>
      <point x="216" y="339"/>
      <point x="199" y="333"/>
      <point x="179" y="333" type="curve" smooth="yes"/>
      <point x="154" y="333"/>
      <point x="136" y="350"/>
      <point x="136" y="371" type="curve" smooth="yes"/>
      <point x="136" y="407"/>
      <point x="177" y="433"/>
      <point x="232" y="433" type="curve" smooth="yes"/>
      <point x="318" y="433"/>
      <point x="362" y="389"/>
      <point x="379" y="291" type="curve"/>
      <point x="317" y="291" type="line" smooth="yes"/>
      <point x="229" y="291"/>
      <point x="184" y="257"/>
      <point x="184" y="173" type="curve" smooth="yes"/>
      <point x="184" y="89"/>
      <point x="236" y="44"/>
      <point x="286" y="44" type="curve" smooth="yes"/>
      <point x="316" y="44"/>
      <point x="341" y="48"/>
      <point x="381" y="94" type="curve"/>
      <point x="407" y="75" type="line"/>
      <point x="376" y="39"/>
      <point x="335" y="-16"/>
      <point x="335" y="-92" type="curve" smooth="yes"/>
      <point x="335" y="-134"/>
      <point x="347" y="-186"/>
      <point x="409" y="-206" type="curve"/>
      <point x="409" y="-238" type="line"/>
      <point x="389" y="-243"/>
      <point x="366" y="-246"/>
      <point x="349" y="-246" type="curve" smooth="yes"/>
      <point x="269" y="-246"/>
      <point x="235" y="-193"/>
      <point x="235" y="-136" type="curve" smooth="yes"/>
      <point x="235" y="-79"/>
      <point x="267" y="-40"/>
      <point x="315" y="8" type="curve"/>
      <point x="290" y="2"/>
      <point x="261" y="-1"/>
      <point x="234" y="-1" type="curve" smooth="yes"/>
      <point x="103" y="-1"/>
      <point x="31" y="69"/>
    </contour>
  </outline>
</glyph>
<glyph name="si_Dha" format="1">
  <advance width="638"/>
  <unicode hex="0DB0"/>
  <outline>
    <contour>
      <point x="33" y="195" type="curve" smooth="yes"/>
      <point x="33" y="288"/>
      <point x="86.2482" y="363.669"/>
      <point x="152" y="387" type="curve" smooth="yes"/>
      <point x="172.667" y="394.333"/>
      <point x="195.667" y="398"/>
      <point x="221" y="398" type="curve"/>
      <point x="221" y="371.5" type="line"/>
      <point x="217.651" y="371.789"/>
      <point x="214.316" y="371.937"/>
      <point x="211" y="371.937" type="curve" smooth="yes"/>
      <point x="132" y="371.937"/>
      <point x="88" y="307.146"/>
      <point x="88" y="242" type="curve" smooth="yes"/>
      <point x="88" y="186.85"/>
      <point x="119.567" y="140"/>
      <point x="193" y="140" type="curve" smooth="yes"/>
      <point x="243.911" y="140"/>
      <point x="288.5" y="161"/>
      <point x="288.5" y="225" type="curve" smooth="yes"/>
      <point x="288.5" y="249" type="line"/>
      <point x="319.25" y="249" type="line"/>
      <point x="319.25" y="225" type="line" smooth="yes"/>
      <point x="319.25" y="161"/>
      <point x="362.83" y="140"/>
      <point x="412" y="140" type="curve" smooth="yes"/>
      <point x="507.71" y="140"/>
      <point x="526" y="230.978"/>
      <point x="526" y="304" type="curve" smooth="yes"/>
      <point x="526" y="426.935"/>
      <point x="440.908" y="554"/>
      <point x="294" y="554" type="curve" smooth="yes"/>
      <point x="213.333" y="554"/>
      <point x="151.536" y="525.406"/>
      <point x="99.25" y="468" type="curve"/>
      <point x="65" y="468" type="line"/>
      <point x="121.667" y="542.667"/>
      <point x="199.667" y="580"/>
      <point x="299" y="580" type="curve" smooth="yes"/>
      <point x="462" y="580"/>
      <point x="589" y="446"/>
      <point x="589" y="261" type="curve" smooth="yes"/>
      <point x="589" y="139"/>
      <point x="547.876" y="0"/>
      <point x="422" y="0" type="curve" smooth="yes"/>
      <point x="372.667" y="0"/>
      <point x="333" y="19.6667"/>
      <point x="303" y="59" type="curve"/>
      <point x="272.333" y="20.3333"/>
      <point x="234.672" y="0"/>
      <point x="190" y="0" type="curve" smooth="yes"/>
      <point x="88" y="0"/>
      <point x="33" y="96"/>
    </contour>
  </outline>
</glyph>
<glyph name="si_Na" format="1">
  <advance width="787"/>
  <unicode hex="0DB1"/>
  <outline>
    <contour>
      <point x="23" y="172" type="curve"/>
      <point x="31" y="163"/>
      <point x="48" y="156"/>
      <point x="65" y="156" type="curve" smooth="yes"/>
      <point x="127" y="156"/>
      <point x="128" y="201"/>
      <point x="203" y="272" type="curve"/>
      <point x="216" y="285"/>
      <point x="218" y="301"/>
      <point x="218" y="314" type="curve" smooth="yes"/>
      <point x="218" y="347"/>
      <point x="199" y="371"/>
      <point x="176" y="371" type="curve" smooth="yes"/>
      <point x="156" y="371"/>
      <point x="142" y="361"/>
      <point x="140" y="337" type="curve" smooth="yes"/>
      <point x="138" y="316"/>
      <point x="128" y="287"/>
      <point x="97" y="287" type="curve" smooth="yes"/>
      <point x="80" y="287"/>
      <point x="54" y="297"/>
      <point x="54" y="331" type="curve" smooth="yes"/>
      <point x="54" y="375"/>
      <point x="87" y="421"/>
      <point x="150" y="421" type="curve" smooth="yes"/>
      <point x="214" y="421"/>
      <point x="247" y="377"/>
      <point x="247" y="312" type="curve" smooth="yes"/>
      <point x="247" y="311"/>
      <point x="247" y="311"/>
      <point x="247" y="310" type="curve"/>
      <point x="296" y="366"/>
      <point x="391" y="423"/>
      <point x="494" y="423" type="curve" smooth="yes"/>
      <point x="631" y="423"/>
      <point x="742" y="327"/>
      <point x="742" y="179" type="curve" smooth="yes"/>
      <point x="742" y="61"/>
      <point x="661" y="-1"/>
      <point x="579" y="-1" type="curve" smooth="yes"/>
      <point x="549" y="-1"/>
      <point x="528" y="4"/>
      <point x="516" y="9" type="curve"/>
      <point x="516" y="37" type="line"/>
      <point x="526" y="33"/>
      <point x="538" y="31"/>
      <point x="553" y="31" type="curve" smooth="yes"/>
      <point x="592" y="31"/>
      <point x="620" y="76"/>
      <point x="620" y="134" type="curve" smooth="yes"/>
      <point x="620" y="268"/>
      <point x="519" y="339"/>
      <point x="408" y="339" type="curve" smooth="yes"/>
      <point x="356" y="339"/>
      <point x="297" y="321"/>
      <point x="263" y="290" type="curve"/>
      <point x="288" y="299"/>
      <point x="310" y="301"/>
      <point x="337" y="301" type="curve" smooth="yes"/>
      <point x="419" y="301"/>
      <point x="486" y="243"/>
      <point x="486" y="165" type="curve" smooth="yes"/>
      <point x="486" y="52"/>
      <point x="389" y="-1"/>
      <point x="270" y="-1" type="curve" smooth="yes"/>
      <point x="133" y="-1"/>
      <point x="23" y="64"/>
    </contour>
    <contour>
      <point x="122" y="144" type="curve"/>
      <point x="150" y="135"/>
      <point x="185" y="130"/>
      <point x="242" y="130" type="curve" smooth="yes"/>
      <point x="351" y="130"/>
      <point x="408" y="173"/>
      <point x="408" y="220" type="curve" smooth="yes"/>
      <point x="408" y="253"/>
      <point x="381" y="274"/>
      <point x="326" y="274" type="curve" smooth="yes"/>
      <point x="185" y="274"/>
      <point x="184" y="186"/>
    </contour>
  </outline>
</glyph>
<glyph name="si_Nda" format="1">
  <advance width="538"/>
  <unicode hex="0DB3"/>
  <outline>
    <contour>
      <point x="115" y="169" type="curve" smooth="yes"/>
      <point x="115" y="274"/>
      <point x="188" y="317"/>
      <point x="307" y="317" type="curve" smooth="yes"/>
      <point x="424.25" y="317" type="line"/>
      <point x="414.526" y="363.186"/>
      <point x="384.515" y="390"/>
      <point x="352" y="390" type="curve" smooth="yes"/>
      <point x="333" y="390"/>
      <point x="318.549" y="378.911"/>
      <point x="310" y="361" type="curve" smooth="yes"/>
      <point x="299.5" y="339"/>
      <point x="282.579" y="333"/>
      <point x="262.75" y="333" type="curve" smooth="yes"/>
      <point x="237.75" y="333"/>
      <point x="220" y="349.75"/>
      <point x="220" y="370.75" type="curve" smooth="yes"/>
      <point x="220" y="407.033"/>
      <point x="261" y="433"/>
      <point x="316" y="433" type="curve" smooth="yes"/>
      <point x="401.739" y="433"/>
      <point x="445.74" y="388.542"/>
      <point x="463" y="291" type="curve"/>
      <point x="401.25" y="291" type="line" smooth="yes"/>
      <point x="313.25" y="291"/>
      <point x="268.25" y="257"/>
      <point x="268.25" y="173" type="curve" smooth="yes"/>
      <point x="268.25" y="89"/>
      <point x="319.989" y="44"/>
      <point x="369.5" y="44" type="curve" smooth="yes"/>
      <point x="399.849" y="44"/>
      <point x="424.75" y="48.25"/>
      <point x="464.75" y="94.25" type="curve"/>
      <point x="491" y="75" type="line"/>
      <point x="460.46" y="39.3701"/>
      <point x="419" y="-16"/>
      <point x="419" y="-92" type="curve" smooth="yes"/>
      <point x="419" y="-133.842"/>
      <point x="431.445" y="-185.983"/>
      <point x="493" y="-205.75" type="curve"/>
      <point x="493" y="-238" type="line"/>
      <point x="472.735" y="-242.805"/>
      <point x="450.185" y="-246"/>
      <point x="433" y="-246" type="curve" smooth="yes"/>
      <point x="352.534" y="-246"/>
      <point x="318.75" y="-193.269"/>
      <point x="318.75" y="-136.25" type="curve" smooth="yes"/>
      <point x="318.75" y="-78.9844"/>
      <point x="351.211" y="-39.8848"/>
      <point x="399" y="8.5" type="curve"/>
      <point x="373.784" y="1.80664"/>
      <point x="345.333" y="-1"/>
      <point x="318" y="-1" type="curve" smooth="yes"/>
      <point x="187" y="-1"/>
      <point x="115" y="69"/>
    </contour>
    <contour>
      <point x="27" y="221" type="curve" smooth="yes"/>
      <point x="27" y="337.213"/>
      <point x="97.5107" y="436.25"/>
      <point x="265.5" y="436.25" type="curve" smooth="yes"/>
      <point x="291.563" y="436.25"/>
      <point x="320.717" y="435.999"/>
      <point x="354" y="429.5" type="curve"/>
      <point x="333" y="418.5"/>
      <point x="265.037" y="411.052"/>
      <point x="256" y="405.75" type="curve"/>
      <point x="177.193" y="405.75"/>
      <point x="59" y="370.057"/>
      <point x="59" y="218" type="curve" smooth="yes"/>
      <point x="59" y="137.333"/>
      <point x="86" y="78"/>
      <point x="135" y="34" type="curve"/>
      <point x="135" y="0" type="line"/>
      <point x="68.5828" y="33.2086"/>
      <point x="27" y="120.07"/>
    </contour>
  </outline>
</glyph>
<glyph name="si_Bha" format="1">
  <advance width="654"/>
  <unicode hex="0DB7"/>
  <outline>
    <contour>
      <point x="6" y="262" type="curve"/>
      <point x="6" y="296" type="line"/>
      <point x="210" y="296" type="line"/>
      <point x="167" y="269" type="line"/>
      <point x="137" y="269" type="line" smooth="yes"/>
      <point x="68" y="268"/>
      <point x="22" y="265"/>
    </contour>
    <contour>
      <point x="48" y="151" type="curve" smooth="yes"/>
      <point x="48" y="240"/>
      <point x="134" y="296"/>
      <point x="208" y="296" type="curve" smooth="yes"/>
      <point x="211" y="296"/>
      <point x="212" y="296"/>
      <point x="215" y="296" type="curve"/>
      <point x="215" y="334"/>
      <point x="191" y="369"/>
      <point x="164" y="369" type="curve" smooth="yes"/>
      <point x="149" y="369"/>
      <point x="136" y="365"/>
      <point x="127" y="344" type="curve" smooth="yes"/>
      <point x="119" y="325"/>
      <point x="104" y="315"/>
      <point x="88" y="315" type="curve" smooth="yes"/>
      <point x="67" y="315"/>
      <point x="48" y="328"/>
      <point x="48" y="355" type="curve" smooth="yes"/>
      <point x="48" y="385"/>
      <point x="76" y="422"/>
      <point x="131" y="422" type="curve" smooth="yes"/>
      <point x="208" y="422"/>
      <point x="249" y="352"/>
      <point x="249" y="270" type="curve"/>
      <point x="238" y="271"/>
      <point x="227" y="272"/>
      <point x="216" y="272" type="curve" smooth="yes"/>
      <point x="146" y="272"/>
      <point x="107" y="239"/>
      <point x="107" y="204" type="curve" smooth="yes"/>
      <point x="107" y="152"/>
      <point x="169" y="136"/>
      <point x="222" y="136" type="curve" smooth="yes"/>
      <point x="259" y="136"/>
      <point x="326" y="149"/>
      <point x="326" y="186" type="curve" smooth="yes"/>
      <point x="326" y="204"/>
      <point x="316" y="210"/>
      <point x="305" y="210" type="curve" smooth="yes"/>
      <point x="291" y="210"/>
      <point x="280" y="203"/>
      <point x="273" y="182" type="curve"/>
      <point x="249" y="190" type="line"/>
      <point x="258" y="312"/>
      <point x="337" y="422"/>
      <point x="436" y="422" type="curve" smooth="yes"/>
      <point x="545" y="422"/>
      <point x="606" y="321"/>
      <point x="606" y="206" type="curve" smooth="yes"/>
      <point x="606" y="90"/>
      <point x="519" y="-1"/>
      <point x="399" y="-1" type="curve" smooth="yes"/>
      <point x="386" y="-1"/>
      <point x="373" y="0"/>
      <point x="359" y="2" type="curve"/>
      <point x="359" y="30" type="line"/>
      <point x="371" y="28"/>
      <point x="383" y="28"/>
      <point x="394" y="28" type="curve" smooth="yes"/>
      <point x="481" y="28"/>
      <point x="501" y="109"/>
      <point x="501" y="162" type="curve" smooth="yes"/>
      <point x="501" y="224"/>
      <point x="469" y="307"/>
      <point x="381" y="307" type="curve" smooth="yes"/>
      <point x="308" y="307"/>
      <point x="291" y="257"/>
      <point x="282" y="229" type="curve"/>
      <point x="292" y="234"/>
      <point x="300" y="236"/>
      <point x="309" y="236" type="curve" smooth="yes"/>
      <point x="349" y="236"/>
      <point x="373" y="195"/>
      <point x="373" y="142" type="curve" smooth="yes"/>
      <point x="373" y="52"/>
      <point x="304" y="-1"/>
      <point x="212" y="-1" type="curve" smooth="yes"/>
      <point x="117" y="-1"/>
      <point x="48" y="59"/>
    </contour>
  </outline>
</glyph>
<glyph name="si_Ya" format="1">
  <advance width="621"/>
  <unicode hex="0DBA"/>
  <outline>
    <contour>
      <point x="29" y="181" type="curve" smooth="yes"/>
      <point x="29" y="298"/>
      <point x="104" y="380"/>
      <point x="218" y="380" type="curve" smooth="yes"/>
      <point x="228" y="380"/>
      <point x="237" y="379"/>
      <point x="245" y="378" type="curve"/>
      <point x="245" y="348" type="line"/>
      <point x="235" y="350"/>
      <point x="224" y="351"/>
      <point x="214" y="351" type="curve" smooth="yes"/>
      <point x="127" y="351"/>
      <point x="80" y="292"/>
      <point x="80" y="235" type="curve" smooth="yes"/>
      <point x="80" y="177"/>
      <point x="115" y="137"/>
      <point x="188" y="137" type="curve" smooth="yes"/>
      <point x="236" y="137"/>
      <point x="287" y="156"/>
      <point x="287" y="204" type="curve" smooth="yes"/>
      <point x="287" y="225" type="line"/>
      <point x="315" y="225" type="line"/>
      <point x="315" y="205" type="line" smooth="yes"/>
      <point x="315" y="157"/>
      <point x="369" y="137"/>
      <point x="425" y="137" type="curve" smooth="yes"/>
      <point x="505" y="137"/>
      <point x="525" y="180"/>
      <point x="525" y="209" type="curve" smooth="yes"/>
      <point x="525" y="262"/>
      <point x="482" y="291"/>
      <point x="398" y="291" type="curve" smooth="yes"/>
      <point x="369" y="291"/>
      <point x="340" y="287"/>
      <point x="314" y="280" type="curve"/>
      <point x="313" y="287"/>
      <point x="313" y="296"/>
      <point x="313" y="303" type="curve" smooth="yes"/>
      <point x="313" y="380"/>
      <point x="358" y="423"/>
      <point x="440" y="423" type="curve" smooth="yes"/>
      <point x="499" y="423"/>
      <point x="545" y="400"/>
      <point x="545" y="349" type="curve" smooth="yes"/>
      <point x="545" y="330"/>
      <point x="535" y="305"/>
      <point x="509" y="296" type="curve"/>
      <point x="551" y="271"/>
      <point x="578" y="222"/>
      <point x="578" y="163" type="curve" smooth="yes"/>
      <point x="578" y="69"/>
      <point x="516" y="-1"/>
      <point x="426" y="-1" type="curve" smooth="yes"/>
      <point x="362" y="-1"/>
      <point x="320" y="24"/>
      <point x="300" y="69" type="curve"/>
      <point x="278" y="22"/>
      <point x="239" y="-1"/>
      <point x="182" y="-1" type="curve" smooth="yes"/>
      <point x="84" y="-1"/>
      <point x="29" y="80"/>
    </contour>
    <contour>
      <point x="344" y="312" type="curve"/>
      <point x="360" y="316"/>
      <point x="380" y="317"/>
      <point x="400" y="317" type="curve" smooth="yes"/>
      <point x="435" y="317"/>
      <point x="461" y="314"/>
      <point x="482" y="307" type="curve"/>
      <point x="495" y="313"/>
      <point x="504" y="325"/>
      <point x="504" y="341" type="curve" smooth="yes"/>
      <point x="504" y="365"/>
      <point x="475" y="383"/>
      <point x="441" y="383" type="curve" smooth="yes"/>
      <point x="383" y="383"/>
      <point x="344" y="357"/>
    </contour>
  </outline>
</glyph>
<glyph name="si_Ra" format="1">
  <advance width="515"/>
  <unicode hex="0DBB"/>
  <outline>
    <contour>
      <point x="30" y="208" type="curve" smooth="yes"/>
      <point x="30" y="315"/>
      <point x="94" y="381"/>
      <point x="178" y="413" type="curve" smooth="yes"/>
      <point x="254" y="442"/>
      <point x="297" y="453"/>
      <point x="358" y="500" type="curve" smooth="yes"/>
      <point x="413" y="543"/>
      <point x="425" y="599"/>
      <point x="477" y="599" type="curve" smooth="yes"/>
      <point x="492" y="599"/>
      <point x="514" y="590"/>
      <point x="514" y="567" type="curve" smooth="yes"/>
      <point x="514" y="539"/>
      <point x="491" y="511"/>
      <point x="430" y="479" type="curve" smooth="yes"/>
      <point x="394" y="460"/>
      <point x="325" y="435"/>
      <point x="284" y="424" type="curve"/>
      <point x="323" y="424"/>
      <point x="378" y="403"/>
      <point x="419" y="358" type="curve" smooth="yes"/>
      <point x="454" y="319"/>
      <point x="471" y="275"/>
      <point x="471" y="220" type="curve" smooth="yes"/>
      <point x="471" y="100"/>
      <point x="374" y="0"/>
      <point x="242" y="0" type="curve" smooth="yes"/>
      <point x="121" y="0"/>
      <point x="30" y="87"/>
    </contour>
    <contour>
      <point x="77" y="250" type="curve" smooth="yes"/>
      <point x="77" y="193"/>
      <point x="118" y="135"/>
      <point x="223" y="135" type="curve" smooth="yes"/>
      <point x="326" y="135"/>
      <point x="396" y="186"/>
      <point x="396" y="284" type="curve" smooth="yes"/>
      <point x="396" y="353"/>
      <point x="343" y="401"/>
      <point x="254" y="401" type="curve" smooth="yes"/>
      <point x="178" y="401"/>
      <point x="77" y="344"/>
    </contour>
  </outline>
</glyph>
<glyph name="si_La" format="1">
  <advance width="654"/>
  <unicode hex="0DBD"/>
  <outline>
    <contour>
      <point x="30" y="132" type="curve" smooth="yes"/>
      <point x="30" y="316"/>
      <point x="165" y="422"/>
      <point x="355" y="422" type="curve" smooth="yes"/>
      <point x="476" y="422"/>
      <point x="597" y="383"/>
      <point x="597" y="273" type="curve" smooth="yes"/>
      <point x="597" y="205"/>
      <point x="540" y="159"/>
      <point x="474" y="159" type="curve" smooth="yes"/>
      <point x="408" y="159"/>
      <point x="357" y="205"/>
      <point x="357" y="273" type="curve"/>
      <point x="259" y="273" type="line"/>
      <point x="259" y="301" type="line"/>
      <point x="506" y="301" type="line"/>
      <point x="506" y="273" type="line"/>
      <point x="387" y="273" type="line"/>
      <point x="387" y="272"/>
      <point x="386" y="270"/>
      <point x="386" y="269" type="curve" smooth="yes"/>
      <point x="386" y="234"/>
      <point x="428" y="211"/>
      <point x="475" y="211" type="curve" smooth="yes"/>
      <point x="529" y="211"/>
      <point x="560" y="239"/>
      <point x="560" y="287" type="curve" smooth="yes"/>
      <point x="560" y="366"/>
      <point x="466" y="390"/>
      <point x="386" y="390" type="curve" smooth="yes"/>
      <point x="263" y="390"/>
      <point x="174" y="309"/>
      <point x="174" y="167" type="curve" smooth="yes"/>
      <point x="174" y="4"/>
      <point x="273" y="-91"/>
      <point x="411" y="-91" type="curve" smooth="yes"/>
      <point x="476" y="-91"/>
      <point x="578" y="-49"/>
      <point x="578" y="64" type="curve" smooth="yes"/>
      <point x="578" y="70"/>
      <point x="576" y="79"/>
      <point x="574" y="82" type="curve"/>
      <point x="609" y="82" type="line"/>
      <point x="609" y="77"/>
      <point x="610" y="72"/>
      <point x="610" y="68" type="curve" smooth="yes"/>
      <point x="610" y="-71"/>
      <point x="488" y="-150"/>
      <point x="353" y="-150" type="curve" smooth="yes"/>
      <point x="176" y="-150"/>
      <point x="30" y="-56"/>
    </contour>
  </outline>
</glyph>
<glyph name="si_Va" format="1">
  <advance width="583"/>
  <unicode hex="0DC0"/>
  <outline>
    <contour>
      <point x="32" y="161" type="curve" smooth="yes"/>
      <point x="32" y="244"/>
      <point x="95" y="297"/>
      <point x="194" y="297" type="curve" smooth="yes"/>
      <point x="250" y="297" type="line"/>
      <point x="250" y="299"/>
      <point x="250" y="299"/>
      <point x="250" y="301" type="curve" smooth="yes"/>
      <point x="250" y="350"/>
      <point x="219" y="378"/>
      <point x="187" y="378" type="curve" smooth="yes"/>
      <point x="154" y="378"/>
      <point x="142" y="363"/>
      <point x="137" y="347" type="curve" smooth="yes"/>
      <point x="131" y="328"/>
      <point x="119" y="312"/>
      <point x="94" y="312" type="curve" smooth="yes"/>
      <point x="72" y="312"/>
      <point x="55" y="326"/>
      <point x="55" y="351" type="curve" smooth="yes"/>
      <point x="55" y="397"/>
      <point x="103" y="421"/>
      <point x="157" y="421" type="curve" smooth="yes"/>
      <point x="243" y="421"/>
      <point x="285" y="367"/>
      <point x="285" y="283" type="curve" smooth="yes"/>
      <point x="285" y="280"/>
      <point x="285" y="274"/>
      <point x="285" y="271" type="curve"/>
      <point x="206" y="271" type="line" smooth="yes"/>
      <point x="134" y="271"/>
      <point x="99" y="244"/>
      <point x="99" y="208" type="curve" smooth="yes"/>
      <point x="99" y="147"/>
      <point x="192" y="137"/>
      <point x="264" y="137" type="curve" smooth="yes"/>
      <point x="413" y="137"/>
      <point x="479" y="206"/>
      <point x="479" y="310" type="curve" smooth="yes"/>
      <point x="479" y="426"/>
      <point x="401" y="538"/>
      <point x="270" y="538" type="curve" smooth="yes"/>
      <point x="193" y="538"/>
      <point x="133" y="510"/>
      <point x="90" y="459" type="curve"/>
      <point x="56" y="459" type="line"/>
      <point x="104" y="527"/>
      <point x="174" y="563"/>
      <point x="270" y="563" type="curve" smooth="yes"/>
      <point x="426" y="563"/>
      <point x="535" y="433"/>
      <point x="535" y="268" type="curve" smooth="yes"/>
      <point x="535" y="112"/>
      <point x="440" y="0"/>
      <point x="261" y="0" type="curve" smooth="yes"/>
      <point x="143" y="0"/>
      <point x="32" y="45"/>
    </contour>
  </outline>
</glyph>
